<svg xmlns="http://www.w3.org/2000/svg" xmlns:xlink="http://www.w3.org/1999/xlink" xmlns:lucid="lucid" width="871" height="511"><g transform="translate(-280 -240)" lucid:page-tab-id="LIRKWd5~aUbs"><path d="M860 400c0 22.1-17.9 40-40 40s-40-17.9-40-40 17.9-40 40-40 40 17.9 40 40z" stroke="#000" stroke-width="2" fill="#fff"/><use xlink:href="#a" transform="matrix(1,0,0,1,785,365) translate(11.5 38.6)"/><path d="M679.9 520.32c0 6.62-26.86 12-60 12s-60-5.38-60-12v-96c0-6.63 26.86-12 60-12s60 5.37 60 12z" stroke="#000" stroke-width="2" fill="#fff"/><path d="M679.9 424.32c0 6.62-26.86 12-60 12s-60-5.38-60-12" stroke="#000" stroke-width="2" fill="none"/><use xlink:href="#b" transform="matrix(1,0,0,1,564.898514707136,441.31740238899033) translate(31.075 46.6)"/><path d="M659.9 540.32c0 6.62-26.86 12-60 12s-60-5.38-60-12v-96c0-6.63 26.86-12 60-12s60 5.37 60 12z" stroke="#000" stroke-width="2" fill="#fff"/><path d="M659.9 444.32c0 6.62-26.86 12-60 12s-60-5.38-60-12" stroke="#000" stroke-width="2" fill="none"/><use xlink:href="#b" transform="matrix(1,0,0,1,544.898514707136,461.31740238899033) translate(31.075 46.6)"/><path d="M639.9 560.32c0 6.62-26.86 12-60 12s-60-5.38-60-12v-96c0-6.63 26.86-12 60-12s60 5.37 60 12z" stroke="#000" stroke-width="2" fill="#fff"/><path d="M639.9 464.32c0 6.62-26.86 12-60 12s-60-5.38-60-12" stroke="#000" stroke-width="2" fill="none"/><use xlink:href="#b" transform="matrix(1,0,0,1,524.898514707136,481.31740238899033) translate(31.075 46.6)"/><path d="M700 300c0 22.1-17.9 40-40 40s-40-17.9-40-40 17.9-40 40-40 40 17.9 40 40z" stroke="#000" stroke-width="2" fill="#fff"/><use xlink:href="#c" transform="matrix(1,0,0,1,625,265) translate(4.899999999999999 38.6)"/><path d="M1020 400c0 22.1-17.9 40-40 40s-40-17.9-40-40 17.9-40 40-40 40 17.9 40 40z" stroke="#000" stroke-width="2" fill="#fff"/><use xlink:href="#a" transform="matrix(1,0,0,1,945,365) translate(11.5 38.6)"/><path d="M940 520c0 22.1-17.9 40-40 40s-40-17.9-40-40 17.9-40 40-40 40 17.9 40 40z" stroke="#000" stroke-width="2" fill="#fff"/><use xlink:href="#a" transform="matrix(1,0,0,1,865,485) translate(11.5 38.6)"/><path d="M925.63 376.74l-2.83-.83-5.2-1.2-4.9-.83-4.72-.52-4.66-.24-4.73.04-4.93.33-5.28.66-5.87 1.1-6.82 1.68-1.1.35" stroke="#000" stroke-width="2" fill="none"/><path d="M939.64 382.06l-14.98-.73 3.3-8.67z"/><path d="M942.67 383.2l-19.43-.94 4.26-11.24zm-16.6-2.8l10.55.5-8.23-6.6zM875.42 381.87l-15 .28 11.97-9.04z"/><path d="M876.8 382.85l-19.44.36 15.53-11.72zm-13.32-1.76l10.54-.2-2.12-6.16z"/><path d="M420 488c0 6.63-26.86 12-60 12s-60-5.37-60-12v-96c0-6.63 26.86-12 60-12s60 5.37 60 12z" stroke="#000" stroke-width="2" fill="#fff"/><path d="M420 392c0 6.63-26.86 12-60 12s-60-5.37-60-12" stroke="#000" stroke-width="2" fill="none"/><use xlink:href="#d" transform="matrix(1,0,0,1,305,409) translate(17.074999999999996 46.6)"/><path d="M820 420h160v40H820z" stroke="#000" stroke-opacity="0" stroke-width="2" fill="#fff" fill-opacity="0"/><use xlink:href="#e" transform="matrix(1,0,0,1,825,425) translate(58 18.6)"/><path d="M679.9 660c0 22.1-17.9 40-40 40s-40-17.9-40-40 17.9-40 40-40 40 17.9 40 40z" stroke="#000" stroke-width="2" fill="#fff"/><use xlink:href="#f" transform="matrix(1,0,0,1,604.898514707136,625) translate(12.024999999999999 38.6)"/><path d="M880 660c0 22.1-17.9 40-40 40s-40-17.9-40-40 17.9-40 40-40 40 17.9 40 40z" stroke="#000" stroke-width="2" fill="#fff"/><use xlink:href="#g" transform="matrix(1,0,0,1,805,625) translate(15.05 27.799999999999997)"/><use xlink:href="#h" transform="matrix(1,0,0,1,805,625) translate(13 49.4)"/><path d="M438.1 470.34l22 8.17 10.42 4.66 9.68 4.94 12.76 7.4 10.64 6.9" stroke="#000" stroke-width="2" fill="none"/><path d="M439.02 465.74l-3.22 8.7-11.76-9.3z"/><path d="M440.44 464.8l-4.18 11.27L421 464zm-5.1 8l2.27-6.1-10.53-.45zM516.18 510.56l-14.5-3.88 5.06-7.78z"/><path d="M518.9 512.32l-18.8-5.03 6.55-10.1zm-15.62-6.25l10.2 2.72-6.65-8.2z"/><path d="M505.8 732.28l-45.6 8.7-.4-1.96 42.22-8.06h9.9zm85.77-39.23l-4.17 3.64-5.3 4.24-5.2 3.8-5.14 3.46-1.9 1.16h-3.82l4.64-2.84 5.07-3.4 5.12-3.77 5.24-4.2 4.15-3.6zM594.67 695.1l-6.5-6.62 13.45-6.68z" fill="#3aa6dd"/><path d="M594.92 696.78l-8.4-8.6 17.4-8.64zm-5.06-8.02l4.56 4.65 4.9-9.33z" fill="#3aa6dd"/><use xlink:href="#i" transform="matrix(1,0,0,1,497.08681559185413,709.3622896798366) translate(0 14.4)"/><use xlink:href="#j" transform="matrix(1,0,0,1,497.08681559185413,709.3622896798366) translate(58.95 14.4)"/><path d="M1024.5 360.93l-12.95 12.84-1.4-1.42 12.93-12.82 22.13-23.23h2.77zm78.15-55.3l-3.1.88-8.85 2.96-6.8 2.6-5.52 2.43-.42.2h-4.5l4.08-2.02 5.6-2.46 6.88-2.65 8.94-2.97 3.15-.9z" fill="#3aa6dd"/><path d="M1011.55 373.77l-.74.73-.08-.12-1.27-1.34.7-.7zM1116.87 300.83l-12.6 8.14-2.38-8.96z" fill="#3aa6dd"/><path d="M1120 300l-16.34 10.56-3.08-11.62zm-15.1 7.38l8.84-5.72-10.53-.58z" fill="#3aa6dd"/><use xlink:href="#i" transform="matrix(1,0,0,1,1014.9132688476652,314.696124556745) translate(0 14.4)"/><use xlink:href="#k" transform="matrix(1,0,0,1,1014.9132688476652,314.696124556745) translate(58.95 14.4)"/><path d="M797.98 365.64l-1.82.85-13-28.06h2.2zM723 288.5l7.33 2.17 6.22 2.2 5.38 2.2 4.72 2.22 4.2 2.23 3.78 2.28 3.45 2.32 3.17 2.37 2.95 2.44 2.78 2.55 2.65 2.68 2.36 2.66h-2.68l-1.15-1.3-2.58-2.6-2.7-2.5-2.9-2.38-3.08-2.3-3.36-2.27-3.7-2.23-4.1-2.2-4.64-2.17-5.28-2.17-6.13-2.16-7.2-2.14-6.93-1.68.47-1.94z"/><path d="M798.32 366.4l-1.64 1.2-.52-1.1 1.82-.86zM714.25 292.2l-13.2-7.13 14.88-1.98z"/><path d="M715 293.74l-17.12-9.26 19.28-2.57zm-10.76-8.1l9.28 5.03 1.18-6.4z"/><use xlink:href="#l" transform="matrix(1,0,0,1,717.6962298606192,316.8393405816008) translate(0 14.4)"/><use xlink:href="#m" transform="matrix(1,0,0,1,717.6962298606192,316.8393405816008) translate(74.85000000000001 14.4)"/><path d="M597 392.1l.14 1.9-2 .14-.14-1.94-.38-11.67h2zm24.23-80.66l-3.67 3.87-3.05 3.57-2.6 3.36-2.26 3.23-1.98 3.16-1.76 3.13-1.56 3.15-1.4 3.2-1.28 3.35-1.15 3.52-1 3.8-.92 4.14-.8 4.7-.14 1.33h-2.02l.2-1.62.8-4.77.92-4.25 1.06-3.88 1.17-3.6 1.3-3.44 1.45-3.3 1.62-3.25 1.8-3.2 2.03-3.24 2.32-3.3 2.66-3.45 3.1-3.63 3.72-3.9z"/><path d="M621.6 311l-.34.4-1.52-1.3 1.24-1.45zM597.27 409.03l-5.7-13.88 9.25-.7z"/><path d="M597.52 412.25l-7.4-18 12-.9zm-4.5-16.2l4 9.75 2.5-10.25z"/><use xlink:href="#l" transform="matrix(1,0,0,1,534.8058080255075,358.9265769654893) translate(0 14.4)"/><use xlink:href="#m" transform="matrix(1,0,0,1,534.8058080255075,358.9265769654893) translate(74.85000000000001 14.4)"/><path d="M847.64 492.43l-5.4-4-4.37-3.86-3.63-3.77-3.06-3.75-2.6-3.8-2.2-3.9-1.88-4.05-1.57-4.3-.55-1.98" stroke="#000" stroke-width="2" fill="none"/><path d="M860.73 499.73l-14.72-2.9 4.53-8.1z"/><path d="M863.55 501.3l-19.08-3.76 5.85-10.5zm-16-5.2l10.35 2.05-7.17-7.73zM826.9 457.74l-9.2 1.22 2.72-14.75z"/><path d="M828.4 458.55l-11.93 1.58L820 441zm-9.47-.76l6.47-.87-4.55-9.5z"/><path d="M952.2 492.2l3.78-2.78 5.3-4.6 4.1-4.2 3.26-3.97 2.68-3.86 2.24-3.87 1.87-3.93 1.55-4.1.55-1.9" stroke="#000" stroke-width="2" fill="none"/><path d="M954.1 496.5l-14.52 3.8 9.5-11.6z"/><path d="M955.67 497.12l-18.82 4.93L949.18 487zm-13.37 1.43l10.2-2.67-3.52-5.5zM982.2 458.97l-9.17-1.26 6.53-13.5z"/><path d="M983.44 460.15l-11.9-1.64L980 441zm-8.92-3.24l6.46.9-1.86-10.4z"/><path d="M1120.1 628c0 6.63-26.86 12-60 12s-60-5.37-60-12v-96c0-6.63 26.86-12 60-12s60 5.37 60 12z" stroke="#000" stroke-width="2" fill="#fff"/><path d="M1120.1 532c0 6.63-26.86 12-60 12s-60-5.37-60-12" stroke="#000" stroke-width="2" fill="none"/><use xlink:href="#d" transform="matrix(1,0,0,1,1005.101485292864,549) translate(17.074999999999996 46.6)"/><path d="M773.63 436.8l-15.92 11.33-8.93 5.63-6.83 3.85-5.88 2.98-5.38 2.4-5.13 2.02-5.04 1.72-5.07 1.46-5.23 1.25-5.5 1.04-5.6.8" stroke="#000" stroke-width="2" fill="none"/><path d="M776.9 440.15l-5.37-7.55 14.3-4.5z"/><path d="M776.9 441.85l-6.98-9.8 18.56-5.83zm-3.75-8.7l3.78 5.3 6.28-8.47zM698.64 475.94l-14.5-3.8 13.97-5.46z"/><path d="M699.72 477.26l-18.82-4.94 18.12-7.07zm-12.36-5.3l10.2 2.66-.37-6.5zM872.6 605.58l-1.75 3.85-1.82-.83 1.7-3.73 2.23-7.2h2.1zm14.45-46.76l-5.32 17.24h-2.1l5.5-17.83z"/><path d="M887.34 557.88l-.3.94-1.9-.6.3-.96zM873.7 611.83l-10.8 10.4 2.6-14.76z"/><path d="M875.38 611.6l-14 13.5 3.4-19.16zm-10.96 7.78l7.6-7.32-5.76-3.06z"/><use xlink:href="#n" transform="matrix(1,0,0,1,823.4184709659437,576.0642750968979) translate(0 14.4)"/><use xlink:href="#o" transform="matrix(1,0,0,1,823.4184709659437,576.0642750968979) translate(69.9 14.4)"/><path d="M986.2 616.6l-4.6 4.15-11.27 9.5-6.5 5-4.95 3.48-4.2 2.7-3.82 2.23-3.65 1.93-3.64 1.72-3.78 1.6-4.08 1.52-4.6 1.5-5.48 1.54-7.12 1.67-10.76 2.04-8.54 1.2-.3-1.97 8.5-1.2 10.7-2.04 7.03-1.66 5.4-1.5 4.5-1.48 4-1.5 3.7-1.57 3.58-1.7 3.6-1.9 3.74-2.18 4.13-2.65 4.86-3.43 6.45-4.96 11.2-9.44 4.6-4.12zM898.98 662.1l-14.77-2.56 13.47-6.6z"/><path d="M900.17 663.34L881 660l17.47-8.57zm-12.76-4.26l10.4 1.8-.92-6.44zM989.18 618.83l-6.2-6.9 13.7-6.1z"/><path d="M989.35 620.52l-8.03-8.95 17.78-7.9zm-4.7-8.24l4.35 4.85 5.3-9.12z"/><path d="M696.98 675.75l2.86.74 7.9 1.68 7.07 1.2 6.6.85 6.3.54 6.18.27h6.25l6.53-.26 7.03-.6 7.94-.98 9.57-1.62 11.6-2.46" stroke="#000" stroke-width="2" fill="none"/><path d="M695 680l-12.43-8.4 15-.5z"/><path d="M695.57 681.6l-16.1-10.9 19.43-.65zm-9.9-9.1l8.74 5.9 1.82-6.26zM797.35 671.5l-12.72 7.94-2.24-9z"/><path d="M800.5 670.7L784 681.03l-2.9-11.67zm-15.23 7.16l8.94-5.6-10.5-.72z"/><use xlink:href="#p" transform="matrix(1,0,0,1,688.0803155235893,685.0431710404646) translate(0 14.4)"/><use xlink:href="#o" transform="matrix(1,0,0,1,688.0803155235893,685.0431710404646) translate(61.900000000000006 14.4)"/><path d="M577.68 624.32l3 3.22 3.37 3.14 3.37 2.72-1.25 1.55-3.43-2.76-3.47-3.24-3.1-3.32-2.8-3.45-.2-.32h2.54zm-14.84-33.25l1.02 5.4 1 3.8h-2.07l-.9-3.36-1.04-5.53-.06-.5 2-.23zM599.65 641.84l-14.63-3.33 4.75-7.95z"/><path d="M602.43 643.5l-18.97-4.32 6.15-10.32zm-15.84-5.66l10.27 2.34-6.95-7.94zM566.4 589.82l-9.27.45 3.94-14.48z"/><path d="M567.8 590.75l-12 .58 5.1-18.77zm-9.34-1.55l6.5-.32-3.74-9.86z"/><g><use xlink:href="#p" transform="matrix(1,0,0,1,514.4158348339676,600.2846734371217) translate(0 14.4)"/><use xlink:href="#q" transform="matrix(1,0,0,1,514.4158348339676,600.2846734371217) translate(61.900000000000006 14.4)"/></g><defs><path d="M205 0l-28-72H64L36 0H1l101-248h38L239 0h-34zm-38-99l-47-123c-12 45-31 82-46 123h93" id="r"/><path d="M177-190C167-65 218 103 67 71c-23-6-38-20-44-43l32-5c15 47 100 32 89-28v-30C133-14 115 1 83 1 29 1 15-40 15-95c0-56 16-97 71-98 29-1 48 16 59 35 1-10 0-23 2-32h30zM94-22c36 0 50-32 50-73 0-42-14-75-50-75-39 0-46 34-46 75s6 73 46 73" id="s"/><path d="M100-194c63 0 86 42 84 106H49c0 40 14 67 53 68 26 1 43-12 49-29l28 8c-11 28-37 45-77 45C44 4 14-33 15-96c1-61 26-98 85-98zm52 81c6-60-76-77-97-28-3 7-6 17-6 28h103" id="t"/><path d="M117-194c89-4 53 116 60 194h-32v-121c0-31-8-49-39-48C34-167 62-67 57 0H25l-1-190h30c1 10-1 24 2 32 11-22 29-35 61-36" id="u"/><path d="M59-47c-2 24 18 29 38 22v24C64 9 27 4 27-40v-127H5v-23h24l9-43h21v43h35v23H59v120" id="v"/><g id="a"><use transform="matrix(0.05,0,0,0.05,0,0)" xlink:href="#r"/><use transform="matrix(0.05,0,0,0.05,12,0)" xlink:href="#s"/><use transform="matrix(0.05,0,0,0.05,22,0)" xlink:href="#t"/><use transform="matrix(0.05,0,0,0.05,32,0)" xlink:href="#u"/><use transform="matrix(0.05,0,0,0.05,42,0)" xlink:href="#v"/></g><path d="M140-251c81 0 123 46 123 126C263-46 219 4 140 4 59 4 17-45 17-125s42-126 123-126zm0 227c63 0 89-41 89-101s-29-99-89-99c-61 0-89 39-89 99S79-25 140-24" id="w"/><path d="M114-163C36-179 61-72 57 0H25l-1-190h30c1 12-1 29 2 39 6-27 23-49 58-41v29" id="x"/><path d="M24-231v-30h32v30H24zM24 0v-190h32V0H24" id="y"/><g id="b"><use transform="matrix(0.05,0,0,0.05,0,0)" xlink:href="#w"/><use transform="matrix(0.05,0,0,0.05,14,0)" xlink:href="#x"/><use transform="matrix(0.05,0,0,0.05,19.95,0)" xlink:href="#y"/><use transform="matrix(0.05,0,0,0.05,23.9,0)" xlink:href="#s"/><use transform="matrix(0.05,0,0,0.05,33.9,0)" xlink:href="#y"/><use transform="matrix(0.05,0,0,0.05,37.85,0)" xlink:href="#u"/></g><path d="M127-220V0H93v-220H8v-28h204v28h-85" id="z"/><path d="M141-36C126-15 110 5 73 4 37 3 15-17 15-53c-1-64 63-63 125-63 3-35-9-54-41-54-24 1-41 7-42 31l-33-3c5-37 33-52 76-52 45 0 72 20 72 64v82c-1 20 7 32 28 27v20c-31 9-61-2-59-35zM48-53c0 20 12 33 32 33 41-3 63-29 60-74-43 2-92-5-92 41" id="A"/><path d="M96-169c-40 0-48 33-48 73s9 75 48 75c24 0 41-14 43-38l32 2c-6 37-31 61-74 61-59 0-76-41-82-99-10-93 101-131 147-64 4 7 5 14 7 22l-32 3c-4-21-16-35-41-35" id="B"/><path d="M143 0L79-87 56-68V0H24v-261h32v163l83-92h37l-77 82L181 0h-38" id="C"/><g id="c"><use transform="matrix(0.05,0,0,0.05,0,0)" xlink:href="#z"/><use transform="matrix(0.05,0,0,0.05,10.3,0)" xlink:href="#x"/><use transform="matrix(0.05,0,0,0.05,16.25,0)" xlink:href="#A"/><use transform="matrix(0.05,0,0,0.05,26.25,0)" xlink:href="#B"/><use transform="matrix(0.05,0,0,0.05,35.25,0)" xlink:href="#C"/><use transform="matrix(0.05,0,0,0.05,44.25,0)" xlink:href="#t"/><use transform="matrix(0.05,0,0,0.05,54.25,0)" xlink:href="#x"/></g><path d="M185-189c-5-48-123-54-124 2 14 75 158 14 163 119 3 78-121 87-175 55-17-10-28-26-33-46l33-7c5 56 141 63 141-1 0-78-155-14-162-118-5-82 145-84 179-34 5 7 8 16 11 25" id="D"/><path d="M126-127c33 6 58 20 58 59 0 88-139 92-164 29-3-8-5-16-6-25l32-3c6 27 21 44 54 44 32 0 52-15 52-46 0-38-36-46-79-43v-28c39 1 72-4 72-42 0-27-17-43-46-43-28 0-47 15-49 41l-32-3c6-42 35-63 81-64 48-1 79 21 79 65 0 36-21 52-52 59" id="E"/><path d="M0 4l72-265h28L28 4H0" id="F"/><path d="M197 0v-115H63V0H30v-248h33v105h134v-105h34V0h-34" id="G"/><path d="M30-248c118-7 216 8 213 122C240-48 200 0 122 0H30v-248zM63-27c89 8 146-16 146-99s-60-101-146-95v194" id="H"/><path d="M63-220v92h138v28H63V0H30v-248h175v28H63" id="I"/><g id="d"><use transform="matrix(0.05,0,0,0.05,0,0)" xlink:href="#D"/><use transform="matrix(0.05,0,0,0.05,12,0)" xlink:href="#E"/><use transform="matrix(0.05,0,0,0.05,22,0)" xlink:href="#F"/><use transform="matrix(0.05,0,0,0.05,27,0)" xlink:href="#G"/><use transform="matrix(0.05,0,0,0.05,39.95,0)" xlink:href="#H"/><use transform="matrix(0.05,0,0,0.05,52.900000000000006,0)" xlink:href="#I"/><use transform="matrix(0.05,0,0,0.05,63.85,0)" xlink:href="#D"/></g><path d="M30-248c87 1 191-15 191 75 0 78-77 80-158 76V0H30v-248zm33 125c57 0 124 11 124-50 0-59-68-47-124-48v98" id="J"/><path d="M101-251c82-7 93 87 43 132L82-64C71-53 59-42 53-27h129V0H18c2-99 128-94 128-182 0-28-16-43-45-43s-46 15-49 41l-32-3c6-41 34-60 81-64" id="K"/><g id="e"><use transform="matrix(0.05,0,0,0.05,0,0)" xlink:href="#J"/><use transform="matrix(0.05,0,0,0.05,12,0)" xlink:href="#K"/><use transform="matrix(0.05,0,0,0.05,22,0)" xlink:href="#J"/></g><path d="M100-194c62-1 85 37 85 99 1 63-27 99-86 99S16-35 15-95c0-66 28-99 85-99zM99-20c44 1 53-31 53-75 0-43-8-75-51-75s-53 32-53 75 10 74 51 75" id="L"/><path d="M141 0L90-78 38 0H4l68-98-65-92h35l48 74 47-74h35l-64 92 68 98h-35" id="M"/><path d="M179-190L93 31C79 59 56 82 12 73V49c39 6 53-20 64-50L1-190h34L92-34l54-156h33" id="N"/><g id="f"><use transform="matrix(0.05,0,0,0.05,0,0)" xlink:href="#J"/><use transform="matrix(0.05,0,0,0.05,12,0)" xlink:href="#x"/><use transform="matrix(0.05,0,0,0.05,17.95,0)" xlink:href="#L"/><use transform="matrix(0.05,0,0,0.05,27.950000000000003,0)" xlink:href="#M"/><use transform="matrix(0.05,0,0,0.05,36.95,0)" xlink:href="#N"/></g><path d="M160-131c35 5 61 23 61 61C221 17 115-2 30 0v-248c76 3 177-17 177 60 0 33-19 50-47 57zm-97-11c50-1 110 9 110-42 0-47-63-36-110-37v79zm0 115c55-2 124 14 124-45 0-56-70-42-124-44v89" id="O"/><path d="M84 4C-5 8 30-112 23-190h32v120c0 31 7 50 39 49 72-2 45-101 50-169h31l1 190h-30c-1-10 1-25-2-33-11 22-28 36-60 37" id="P"/><path d="M24 0v-261h32V0H24" id="Q"/><path d="M85-194c31 0 48 13 60 33l-1-100h32l1 261h-30c-2-10 0-23-3-31C134-8 116 4 85 4 32 4 16-35 15-94c0-66 23-100 70-100zm9 24c-40 0-46 34-46 75 0 40 6 74 45 74 42 0 51-32 51-76 0-42-9-74-50-73" id="R"/><g id="g"><use transform="matrix(0.05,0,0,0.05,0,0)" xlink:href="#O"/><use transform="matrix(0.05,0,0,0.05,12,0)" xlink:href="#P"/><use transform="matrix(0.05,0,0,0.05,22,0)" xlink:href="#y"/><use transform="matrix(0.05,0,0,0.05,25.950000000000003,0)" xlink:href="#Q"/><use transform="matrix(0.05,0,0,0.05,29.899999999999995,0)" xlink:href="#R"/></g><path d="M33 0v-248h34V0H33" id="S"/><g id="h"><use transform="matrix(0.05,0,0,0.05,0,0)" xlink:href="#S"/><use transform="matrix(0.05,0,0,0.05,5,0)" xlink:href="#u"/><use transform="matrix(0.05,0,0,0.05,15,0)" xlink:href="#R"/><use transform="matrix(0.05,0,0,0.05,25,0)" xlink:href="#t"/><use transform="matrix(0.05,0,0,0.05,35,0)" xlink:href="#M"/></g><path fill="#3aa6dd" d="M85-194c31 0 48 13 60 33l-1-100h32l1 261h-30c-2-10 0-23-3-31C134-8 116 4 85 4 32 4 16-35 15-94c0-66 23-100 70-100zm9 24c-40 0-46 34-46 75 0 40 6 74 45 74 42 0 51-32 51-76 0-42-9-74-50-73" id="T"/><path fill="#3aa6dd" d="M100-194c62-1 85 37 85 99 1 63-27 99-86 99S16-35 15-95c0-66 28-99 85-99zM99-20c44 1 53-31 53-75 0-43-8-75-51-75s-53 32-53 75 10 74 51 75" id="U"/><path fill="#3aa6dd" d="M96-169c-40 0-48 33-48 73s9 75 48 75c24 0 41-14 43-38l32 2c-6 37-31 61-74 61-59 0-76-41-82-99-10-93 101-131 147-64 4 7 5 14 7 22l-32 3c-4-21-16-35-41-35" id="V"/><path fill="#3aa6dd" d="M143 0L79-87 56-68V0H24v-261h32v163l83-92h37l-77 82L181 0h-38" id="W"/><path fill="#3aa6dd" d="M100-194c63 0 86 42 84 106H49c0 40 14 67 53 68 26 1 43-12 49-29l28 8c-11 28-37 45-77 45C44 4 14-33 15-96c1-61 26-98 85-98zm52 81c6-60-76-77-97-28-3 7-6 17-6 28h103" id="X"/><path fill="#3aa6dd" d="M114-163C36-179 61-72 57 0H25l-1-190h30c1 12-1 29 2 39 6-27 23-49 58-41v29" id="Y"/><g id="i"><use transform="matrix(0.05,0,0,0.05,0,0)" xlink:href="#T"/><use transform="matrix(0.05,0,0,0.05,10,0)" xlink:href="#U"/><use transform="matrix(0.05,0,0,0.05,20,0)" xlink:href="#V"/><use transform="matrix(0.05,0,0,0.05,29,0)" xlink:href="#W"/><use transform="matrix(0.05,0,0,0.05,38,0)" xlink:href="#X"/><use transform="matrix(0.05,0,0,0.05,48,0)" xlink:href="#Y"/></g><path fill="#3aa6dd" d="M115-194c55 1 70 41 70 98S169 2 115 4C84 4 66-9 55-30l1 105H24l-1-265h31l2 30c10-21 28-34 59-34zm-8 174c40 0 45-34 45-75s-6-73-45-74c-42 0-51 32-51 76 0 43 10 73 51 73" id="Z"/><path fill="#3aa6dd" d="M84 4C-5 8 30-112 23-190h32v120c0 31 7 50 39 49 72-2 45-101 50-169h31l1 190h-30c-1-10 1-25-2-33-11 22-28 36-60 37" id="aa"/><path fill="#3aa6dd" d="M135-143c-3-34-86-38-87 0 15 53 115 12 119 90S17 21 10-45l28-5c4 36 97 45 98 0-10-56-113-15-118-90-4-57 82-63 122-42 12 7 21 19 24 35" id="ab"/><path fill="#3aa6dd" d="M106-169C34-169 62-67 57 0H25v-261h32l-1 103c12-21 28-36 61-36 89 0 53 116 60 194h-32v-121c2-32-8-49-39-48" id="ac"/><g id="j"><use transform="matrix(0.05,0,0,0.05,0,0)" xlink:href="#Z"/><use transform="matrix(0.05,0,0,0.05,10,0)" xlink:href="#aa"/><use transform="matrix(0.05,0,0,0.05,20,0)" xlink:href="#ab"/><use transform="matrix(0.05,0,0,0.05,29,0)" xlink:href="#ac"/></g><path fill="#3aa6dd" d="M24 0v-261h32V0H24" id="ad"/><g id="k"><use transform="matrix(0.05,0,0,0.05,0,0)" xlink:href="#Z"/><use transform="matrix(0.05,0,0,0.05,10,0)" xlink:href="#aa"/><use transform="matrix(0.05,0,0,0.05,20,0)" xlink:href="#ad"/><use transform="matrix(0.05,0,0,0.05,23.95,0)" xlink:href="#ad"/></g><path d="M135-143c-3-34-86-38-87 0 15 53 115 12 119 90S17 21 10-45l28-5c4 36 97 45 98 0-10-56-113-15-118-90-4-57 82-63 122-42 12 7 21 19 24 35" id="ae"/><path d="M108 0H70L1-190h34L89-25l56-165h34" id="af"/><g id="l"><use transform="matrix(0.05,0,0,0.05,0,0)" xlink:href="#H"/><use transform="matrix(0.05,0,0,0.05,12.950000000000001,0)" xlink:href="#y"/><use transform="matrix(0.05,0,0,0.05,16.900000000000002,0)" xlink:href="#ae"/><use transform="matrix(0.05,0,0,0.05,25.900000000000002,0)" xlink:href="#B"/><use transform="matrix(0.05,0,0,0.05,34.900000000000006,0)" xlink:href="#L"/><use transform="matrix(0.05,0,0,0.05,44.900000000000006,0)" xlink:href="#af"/><use transform="matrix(0.05,0,0,0.05,53.900000000000006,0)" xlink:href="#t"/><use transform="matrix(0.05,0,0,0.05,63.900000000000006,0)" xlink:href="#x"/></g><g id="m"><use transform="matrix(0.05,0,0,0.05,0,0)" xlink:href="#J"/><use transform="matrix(0.05,0,0,0.05,12,0)" xlink:href="#t"/><use transform="matrix(0.05,0,0,0.05,22,0)" xlink:href="#t"/><use transform="matrix(0.05,0,0,0.05,32,0)" xlink:href="#x"/><use transform="matrix(0.05,0,0,0.05,37.95,0)" xlink:href="#ae"/></g><path d="M233-177c-1 41-23 64-60 70L243 0h-38l-65-103H63V0H30v-248c88 3 205-21 203 71zM63-129c60-2 137 13 137-47 0-61-80-42-137-45v92" id="ag"/><g id="n"><use transform="matrix(0.05,0,0,0.05,0,0)" xlink:href="#ag"/><use transform="matrix(0.05,0,0,0.05,12.950000000000001,0)" xlink:href="#t"/><use transform="matrix(0.05,0,0,0.05,22.950000000000003,0)" xlink:href="#ae"/><use transform="matrix(0.05,0,0,0.05,31.950000000000003,0)" xlink:href="#L"/><use transform="matrix(0.05,0,0,0.05,41.95,0)" xlink:href="#Q"/><use transform="matrix(0.05,0,0,0.05,45.900000000000006,0)" xlink:href="#af"/><use transform="matrix(0.05,0,0,0.05,54.900000000000006,0)" xlink:href="#t"/></g><g id="o"><use transform="matrix(0.05,0,0,0.05,0,0)" xlink:href="#z"/><use transform="matrix(0.05,0,0,0.05,8.950000000000001,0)" xlink:href="#A"/><use transform="matrix(0.05,0,0,0.05,18.950000000000003,0)" xlink:href="#s"/><use transform="matrix(0.05,0,0,0.05,28.950000000000003,0)" xlink:href="#ae"/></g><path d="M232-93c-1 65-40 97-104 97C67 4 28-28 28-90v-158h33c8 89-33 224 67 224 102 0 64-133 71-224h33v155" id="ah"/><path d="M115-194c55 1 70 41 70 98S169 2 115 4C84 4 66-9 55-30l1 105H24l-1-265h31l2 30c10-21 28-34 59-34zm-8 174c40 0 45-34 45-75s-6-73-45-74c-42 0-51 32-51 76 0 43 10 73 51 73" id="ai"/><g id="p"><use transform="matrix(0.05,0,0,0.05,0,0)" xlink:href="#ah"/><use transform="matrix(0.05,0,0,0.05,12.950000000000001,0)" xlink:href="#ai"/><use transform="matrix(0.05,0,0,0.05,22.950000000000003,0)" xlink:href="#Q"/><use transform="matrix(0.05,0,0,0.05,26.900000000000002,0)" xlink:href="#L"/><use transform="matrix(0.05,0,0,0.05,36.900000000000006,0)" xlink:href="#A"/><use transform="matrix(0.05,0,0,0.05,46.900000000000006,0)" xlink:href="#R"/></g><path d="M115-194c53 0 69 39 70 98 0 66-23 100-70 100C84 3 66-7 56-30L54 0H23l1-261h32v101c10-23 28-34 59-34zm-8 174c40 0 45-34 45-75 0-40-5-75-45-74-42 0-51 32-51 76 0 43 10 73 51 73" id="aj"/><g id="q"><use transform="matrix(0.05,0,0,0.05,0,0)" xlink:href="#O"/><use transform="matrix(0.05,0,0,0.05,12,0)" xlink:href="#Q"/><use transform="matrix(0.05,0,0,0.05,15.949999999999998,0)" xlink:href="#L"/><use transform="matrix(0.05,0,0,0.05,25.950000000000003,0)" xlink:href="#aj"/><use transform="matrix(0.05,0,0,0.05,35.95,0)" xlink:href="#ae"/></g></defs></g></svg>