<svg xmlns="http://www.w3.org/2000/svg" xmlns:xlink="http://www.w3.org/1999/xlink" xmlns:lucid="lucid" width="1011" height="980"><g transform="translate(-260 -179.99999999999997)" lucid:page-tab-id="0_0"><path d="M0 0h1760v1360H0z" fill="#fff"/><path d="M394.3 648c0 6.63-25.6 12-57.16 12-31.56 0-57.14-5.37-57.14-12v-96c0-6.63 25.58-12 57.14-12 31.56 0 57.15 5.37 57.15 12z" stroke="#000" stroke-width="2" fill="#fff"/><path d="M394.3 552c0 6.63-25.6 12-57.16 12-31.56 0-57.14-5.37-57.14-12" stroke="#000" stroke-width="2" fill="none"/><use xlink:href="#a" transform="matrix(1,0,0,1,285,569) translate(28.796296296296298 32.333333333333336)"/><use xlink:href="#b" transform="matrix(1,0,0,1,285,569) translate(68.7962962962963 32.333333333333336)"/><use xlink:href="#c" transform="matrix(1,0,0,1,285,569) translate(16.31481481481481 64.33333333333334)"/><path d="M622.86 600c0 31.56-25.6 57.14-57.15 57.14-31.54 0-57.13-25.58-57.13-57.14 0-31.56 25.6-57.14 57.14-57.14 31.57 0 57.16 25.58 57.16 57.14z" stroke="#000" stroke-width="2" fill="#fff"/><use xlink:href="#d" transform="matrix(1,0,0,1,513.5714285714287,547.8571428571429) translate(17.05555555555555 57.833333333333336)"/><path d="M965.7 428.57c0 31.56-25.57 57.14-57.13 57.14-31.56 0-57.14-25.57-57.14-57.13 0-31.56 25.58-57.14 57.14-57.14 31.56 0 57.14 25.58 57.14 57.14z" stroke="#000" stroke-width="2" fill="#fff"/><use xlink:href="#e" transform="matrix(1,0,0,1,856.4285714285713,376.42857142857133) translate(17.685185185185183 57.833333333333336)"/><path d="M851.43 600c0 31.56-25.6 57.14-57.14 57.14-31.57 0-57.16-25.58-57.16-57.14 0-31.56 25.6-57.14 57.15-57.14 31.54 0 57.13 25.58 57.13 57.14z" stroke="#000" stroke-width="2" fill="#fff"/><use xlink:href="#e" transform="matrix(1,0,0,1,742.1428571428572,547.8571428571429) translate(17.685185185185183 57.833333333333336)"/><path d="M1080 600c0 31.56-25.58 57.14-57.14 57.14-31.56 0-57.15-25.58-57.15-57.14 0-31.56 25.6-57.14 57.16-57.14 31.56 0 57.14 25.58 57.14 57.14z" stroke="#000" stroke-width="2" fill="#fff"/><use xlink:href="#e" transform="matrix(1,0,0,1,970.714285714286,547.8571428571429) translate(17.685185185185183 57.833333333333336)"/><path d="M507.57 600h-94.05" stroke="#000" stroke-width="2" fill="none"/><path d="M508.57 600l.04 1h-1.03v-2h1.05zM412.8 604.64L398.5 600l14.27-4.64z"/><path d="M413.8 606l-18.5-6 18.5-6zm-12.04-6l10.03 3.26v-6.52z"/><path d="M736.14 600H642.1" stroke="#000" stroke-width="2" fill="none"/><path d="M737.14 600l.04 1h-1.04v-2h1.05zM641.36 604.64L627.1 600l14.26-4.64z"/><path d="M642.36 606l-18.5-6 18.5-6zm-12.03-6l10.03 3.26v-6.52z"/><path d="M946.48 600h-75.8" stroke="#000" stroke-width="2" fill="none"/><path d="M961.48 600l-14.27 4.64v-9.28z"/><path d="M964.7 600l-18.5 6v-12zm-16.5 3.26l10.04-3.26-10.03-3.26zM869.93 604.64L855.67 600l14.26-4.64z"/><path d="M870.93 606l-18.5-6 18.5-6zm-12.03-6l10.03 3.26v-6.52z"/><path d="M984.14 433.24l3.6 2.28 3.83 3.02 4.1 4 4.46 5.3 4.84 7.15 5.15 9.6 5.07 12.33.13.4 2.94 9.53 2.05 9.1 1.44 10.08.94 15.23.02 2.35" stroke="#000" stroke-width="2" fill="none"/><path d="M982.42 437.58l-12.58-8.17 14.98-.78z"/><path d="M983.03 439.16l-16.3-10.6 19.4-1zm-10.06-8.9l8.84 5.73 1.7-6.3zM1022.83 538.62l-4.74-14.23 9.26-.08z"/><path d="M1022.86 541.86l-6.16-18.46 12.03-.1zm-3.4-16.48l3.35 10 3.2-10.05z"/><path d="M832.57 431.72l-.98.4-1.68.73-1.62.8-1.58.9-1.54.94-1.5 1.02-1.5 1.1-1.47 1.2-1.44 1.3-1.45 1.4-1.42 1.54-1.44 1.66-1.43 1.83-1.42 2-1.44 2.2-1.45 2.47-1.47 2.73-1.46 3.08-1.48 3.47-1.5 3.97-1.46 4.57-1.46 5.32-1.43 6.28-1.38 7.56-1.27 9.3-1.08 11.86-.57 12.27" stroke="#000" stroke-width="2" fill="none"/><path d="M847.24 429.13L834 436.18l-1.6-9.13z"/><path d="M850.43 428.57l-17.18 9.14-2.1-11.83zm-15.7 6.08l9.32-4.95-10.44-1.47zM799.27 524.45l-4.92 14.17-4.35-14.35z"/><path d="M800.66 523.48l-6.37 18.38-5.66-18.62zm-6.25 11.9l3.47-9.96-6.52-.13z"/><path d="M508.57 200h114.3v114.3h-114.3z" stroke="#000" stroke-width="2" fill="#fff"/><use xlink:href="#f" transform="matrix(1,0,0,1,513.5714285714287,204.99999999999997) translate(7.907407407407405 57.833333333333336)"/><path d="M909.57 370.43h-2v-98.7h2zM642.1 256.73v-2h115.46v2zM909.57 371.47l-1-.04-1 .04v-1.04h2zM641.36 260.36l-14.27-4.64 14.26-4.63z"/><path d="M642.36 261.74l-18.5-6.02 18.5-6zm-12.03-6.02l10.03 3.26v-6.52z"/><use xlink:href="#g" transform="matrix(1,0,0,1,757.5588740059511,239.72385391442936) translate(0 21.333333333333336)"/><use xlink:href="#h" transform="matrix(1,0,0,1,757.5588740059511,239.72385391442936) translate(124.22222222222224 21.333333333333336)"/><path d="M566.7 523.62h-2v-93.95h2zm0-125.95h-2V315.3h2zM566.7 315.3h-2v-1h2zM565.7 538.62l-4.62-14.27h9.27z"/><path d="M565.7 541.86l-6-18.5h12.03zm-3.24-16.5l3.25 10.02 3.27-10.03z"/><use xlink:href="#i" transform="matrix(1,0,0,1,456.23280423280426,397.67227856790055) translate(0 21.333333333333336)"/><use xlink:href="#j" transform="matrix(1,0,0,1,456.23280423280426,397.67227856790055) translate(124.22222222222224 21.333333333333336)"/><path d="M965.7 800H1080v114.3H965.7z" stroke="#000" stroke-width="2" fill="#fff"/><use xlink:href="#k" transform="matrix(1,0,0,1,970.7142857142857,805) translate(22.94444444444444 41.833333333333336)"/><use xlink:href="#l" transform="matrix(1,0,0,1,970.7142857142857,805) translate(19.907407407407405 73.83333333333334)"/><path d="M1080 1128c0 6.63-25.58 12-57.14 12-31.56 0-57.15-5.37-57.15-12v-96c0-6.63 25.6-12 57.16-12 31.56 0 57.14 5.37 57.14 12z" stroke="#000" stroke-width="2" fill="#fff"/><path d="M1080 1032c0 6.63-25.58 12-57.14 12-31.56 0-57.15-5.37-57.15-12" stroke="#000" stroke-width="2" fill="none"/><use xlink:href="#m" transform="matrix(1,0,0,1,970.714285714286,1049) translate(28.796296296296298 32.333333333333336)"/><use xlink:href="#n" transform="matrix(1,0,0,1,970.714285714286,1049) translate(68.7962962962963 32.333333333333336)"/><use xlink:href="#o" transform="matrix(1,0,0,1,970.714285714286,1049) translate(16.31481481481481 64.33333333333334)"/><path d="M1097.4 591.98l-.97-1.75 53.7-30h4.1zm163.1-91.1l-48.98 27.35h-4.1l52.1-29.1zM1098.54 595.5l-14.7 2.92 10.18-11z" fill="#0c7cba"/><path d="M1100.1 596.22L1081 600l13.22-14.27zm-13.45.62l10.35-2.04-3.18-5.7z" fill="#0c7cba"/><use xlink:href="#p" transform="matrix(1,0,0,1,1116.5010009769169,528.2268420746078) translate(0 21.333333333333336)"/><use xlink:href="#q" transform="matrix(1,0,0,1,1116.5010009769169,528.2268420746078) translate(87.33333333333333 21.333333333333336)"/><path d="M1022.86 915.3v85.46" stroke="#000" stroke-width="2" fill="none"/><path d="M1023.86 915.3h-2v-1h2zM1022.86 1015.76l-4.64-14.26h9.27z"/><path d="M1022.86 1019l-6-18.5h12zm-3.26-16.5l3.26 10.03 3.26-10.03z"/><path d="M508.57 800h114.3v114.3h-114.3z" stroke="#000" stroke-width="2" fill="#fff"/><use xlink:href="#r" transform="matrix(1,0,0,1,513.5714285714287,805) translate(18.462962962962962 57.833333333333336)"/><path d="M566.7 799h-2v-55.76h2zm0-85.1h-2V676.4h2zM566.7 800h-2v-1h2zM570.35 675.65h-9.27l4.63-14.27z"/><path d="M571.73 676.65H559.7l6-18.5zm-9.27-2h6.5l-3.25-10.03z"/><use xlink:href="#s" transform="matrix(1,0,0,1,488.40873015873024,713.9051933379516) translate(0 19.555555555555557)"/><use xlink:href="#t" transform="matrix(1,0,0,1,488.40873015873024,713.9051933379516) translate(96.28395061728396 19.555555555555557)"/><path d="M723.06 858.14h-99.2v-2h99.2zm223.42 0H865.5v-2h80.98z"/><path d="M623.86 858.14h-1v-2h1zM961.48 857.14l-14.27 4.64v-9.27z"/><path d="M964.7 857.14l-18.5 6v-12zm-16.5 3.26l10.04-3.26-10.03-3.26z"/><use xlink:href="#s" transform="matrix(1,0,0,1,723.0573190811288,842.4761904761905) translate(0 19.555555555555557)"/><use xlink:href="#u" transform="matrix(1,0,0,1,723.0573190811288,842.4761904761905) translate(96.28395061728396 19.555555555555557)"/><path d="M566.7 1100h-2v-62.35h2zm0-91.68h-2v-74.8h2zM570.35 932.8h-9.27l4.63-14.28z" fill="#0c7cba"/><path d="M571.73 933.8H559.7l6-18.5zm-9.27-2h6.5l-3.25-10.04z" fill="#0c7cba"/><g><use xlink:href="#v" transform="matrix(1,0,0,1,499.20502645502654,1008.3161512600623) translate(0 19.555555555555557)"/><use xlink:href="#w" transform="matrix(1,0,0,1,499.20502645502654,1008.3161512600623) translate(80.05555555555557 19.555555555555557)"/></g><path d="M1023.86 780.76h-2v-37.52h2zm0-66.85h-2v-55.76h2zM1022.86 657.14l1-.04v1.04h-2v-1.04zM1022.86 795.76l-4.64-14.26h9.27z"/><path d="M1022.86 799l-6-18.5h12zm-3.26-16.5l3.26 10.03 3.26-10.03z"/><g><use xlink:href="#x" transform="matrix(1,0,0,1,946.1966490299826,713.9051933379516) translate(0 19.555555555555557)"/><use xlink:href="#u" transform="matrix(1,0,0,1,946.1966490299826,713.9051933379516) translate(107.14814814814817 19.555555555555557)"/></g><defs><path d="M185-189c-5-48-123-54-124 2 14 75 158 14 163 119 3 78-121 87-175 55-17-10-28-26-33-46l33-7c5 56 141 63 141-1 0-78-155-14-162-118-5-82 145-84 179-34 5 7 8 16 11 25" id="y"/><path d="M126-127c33 6 58 20 58 59 0 88-139 92-164 29-3-8-5-16-6-25l32-3c6 27 21 44 54 44 32 0 52-15 52-46 0-38-36-46-79-43v-28c39 1 72-4 72-42 0-27-17-43-46-43-28 0-47 15-49 41l-32-3c6-42 35-63 81-64 48-1 79 21 79 65 0 36-21 52-52 59" id="z"/><g id="a"><use transform="matrix(0.07407407407407408,0,0,0.07407407407407408,0,0)" xlink:href="#y"/><use transform="matrix(0.07407407407407408,0,0,0.07407407407407408,17.77777777777778,0)" xlink:href="#z"/></g><path d="M0 4l72-265h28L28 4H0" id="A"/><use transform="matrix(0.07407407407407408,0,0,0.07407407407407408,0,0)" xlink:href="#A" id="b"/><path d="M197 0v-115H63V0H30v-248h33v105h134v-105h34V0h-34" id="B"/><path d="M30-248c118-7 216 8 213 122C240-48 200 0 122 0H30v-248zM63-27c89 8 146-16 146-99s-60-101-146-95v194" id="C"/><path d="M63-220v92h138v28H63V0H30v-248h175v28H63" id="D"/><g id="c"><use transform="matrix(0.07407407407407408,0,0,0.07407407407407408,0,0)" xlink:href="#B"/><use transform="matrix(0.07407407407407408,0,0,0.07407407407407408,19.185185185185187,0)" xlink:href="#C"/><use transform="matrix(0.07407407407407408,0,0,0.07407407407407408,38.370370370370374,0)" xlink:href="#D"/><use transform="matrix(0.07407407407407408,0,0,0.07407407407407408,54.59259259259259,0)" xlink:href="#y"/></g><path d="M140-251c81 0 123 46 123 126C263-46 219 4 140 4 59 4 17-45 17-125s42-126 123-126zm0 227c63 0 89-41 89-101s-29-99-89-99c-61 0-89 39-89 99S79-25 140-24" id="E"/><path d="M114-163C36-179 61-72 57 0H25l-1-190h30c1 12-1 29 2 39 6-27 23-49 58-41v29" id="F"/><path d="M24-231v-30h32v30H24zM24 0v-190h32V0H24" id="G"/><path d="M177-190C167-65 218 103 67 71c-23-6-38-20-44-43l32-5c15 47 100 32 89-28v-30C133-14 115 1 83 1 29 1 15-40 15-95c0-56 16-97 71-98 29-1 48 16 59 35 1-10 0-23 2-32h30zM94-22c36 0 50-32 50-73 0-42-14-75-50-75-39 0-46 34-46 75s6 73 46 73" id="H"/><path d="M117-194c89-4 53 116 60 194h-32v-121c0-31-8-49-39-48C34-167 62-67 57 0H25l-1-190h30c1 10-1 24 2 32 11-22 29-35 61-36" id="I"/><g id="d"><use transform="matrix(0.07407407407407408,0,0,0.07407407407407408,0,0)" xlink:href="#E"/><use transform="matrix(0.07407407407407408,0,0,0.07407407407407408,20.740740740740744,0)" xlink:href="#F"/><use transform="matrix(0.07407407407407408,0,0,0.07407407407407408,29.55555555555556,0)" xlink:href="#G"/><use transform="matrix(0.07407407407407408,0,0,0.07407407407407408,35.40740740740741,0)" xlink:href="#H"/><use transform="matrix(0.07407407407407408,0,0,0.07407407407407408,50.22222222222223,0)" xlink:href="#G"/><use transform="matrix(0.07407407407407408,0,0,0.07407407407407408,56.07407407407408,0)" xlink:href="#I"/></g><path d="M205 0l-28-72H64L36 0H1l101-248h38L239 0h-34zm-38-99l-47-123c-12 45-31 82-46 123h93" id="J"/><path d="M100-194c63 0 86 42 84 106H49c0 40 14 67 53 68 26 1 43-12 49-29l28 8c-11 28-37 45-77 45C44 4 14-33 15-96c1-61 26-98 85-98zm52 81c6-60-76-77-97-28-3 7-6 17-6 28h103" id="K"/><path d="M59-47c-2 24 18 29 38 22v24C64 9 27 4 27-40v-127H5v-23h24l9-43h21v43h35v23H59v120" id="L"/><g id="e"><use transform="matrix(0.07407407407407408,0,0,0.07407407407407408,0,0)" xlink:href="#J"/><use transform="matrix(0.07407407407407408,0,0,0.07407407407407408,17.77777777777778,0)" xlink:href="#H"/><use transform="matrix(0.07407407407407408,0,0,0.07407407407407408,32.592592592592595,0)" xlink:href="#K"/><use transform="matrix(0.07407407407407408,0,0,0.07407407407407408,47.40740740740741,0)" xlink:href="#I"/><use transform="matrix(0.07407407407407408,0,0,0.07407407407407408,62.22222222222223,0)" xlink:href="#L"/></g><path d="M127-220V0H93v-220H8v-28h204v28h-85" id="M"/><path d="M141-36C126-15 110 5 73 4 37 3 15-17 15-53c-1-64 63-63 125-63 3-35-9-54-41-54-24 1-41 7-42 31l-33-3c5-37 33-52 76-52 45 0 72 20 72 64v82c-1 20 7 32 28 27v20c-31 9-61-2-59-35zM48-53c0 20 12 33 32 33 41-3 63-29 60-74-43 2-92-5-92 41" id="N"/><path d="M96-169c-40 0-48 33-48 73s9 75 48 75c24 0 41-14 43-38l32 2c-6 37-31 61-74 61-59 0-76-41-82-99-10-93 101-131 147-64 4 7 5 14 7 22l-32 3c-4-21-16-35-41-35" id="O"/><path d="M143 0L79-87 56-68V0H24v-261h32v163l83-92h37l-77 82L181 0h-38" id="P"/><g id="f"><use transform="matrix(0.07407407407407408,0,0,0.07407407407407408,0,0)" xlink:href="#M"/><use transform="matrix(0.07407407407407408,0,0,0.07407407407407408,15.259259259259261,0)" xlink:href="#F"/><use transform="matrix(0.07407407407407408,0,0,0.07407407407407408,24.074074074074076,0)" xlink:href="#N"/><use transform="matrix(0.07407407407407408,0,0,0.07407407407407408,38.88888888888889,0)" xlink:href="#O"/><use transform="matrix(0.07407407407407408,0,0,0.07407407407407408,52.22222222222223,0)" xlink:href="#P"/><use transform="matrix(0.07407407407407408,0,0,0.07407407407407408,65.55555555555557,0)" xlink:href="#K"/><use transform="matrix(0.07407407407407408,0,0,0.07407407407407408,80.37037037037038,0)" xlink:href="#F"/></g><path d="M135-143c-3-34-86-38-87 0 15 53 115 12 119 90S17 21 10-45l28-5c4 36 97 45 98 0-10-56-113-15-118-90-4-57 82-63 122-42 12 7 21 19 24 35" id="Q"/><path d="M100-194c62-1 85 37 85 99 1 63-27 99-86 99S16-35 15-95c0-66 28-99 85-99zM99-20c44 1 53-31 53-75 0-43-8-75-51-75s-53 32-53 75 10 74 51 75" id="R"/><path d="M108 0H70L1-190h34L89-25l56-165h34" id="S"/><g id="g"><use transform="matrix(0.07407407407407408,0,0,0.07407407407407408,0,0)" xlink:href="#C"/><use transform="matrix(0.07407407407407408,0,0,0.07407407407407408,19.185185185185187,0)" xlink:href="#G"/><use transform="matrix(0.07407407407407408,0,0,0.07407407407407408,25.037037037037035,0)" xlink:href="#Q"/><use transform="matrix(0.07407407407407408,0,0,0.07407407407407408,38.370370370370374,0)" xlink:href="#O"/><use transform="matrix(0.07407407407407408,0,0,0.07407407407407408,51.70370370370371,0)" xlink:href="#R"/><use transform="matrix(0.07407407407407408,0,0,0.07407407407407408,66.51851851851853,0)" xlink:href="#S"/><use transform="matrix(0.07407407407407408,0,0,0.07407407407407408,79.85185185185188,0)" xlink:href="#K"/><use transform="matrix(0.07407407407407408,0,0,0.07407407407407408,94.66666666666669,0)" xlink:href="#F"/><use transform="matrix(0.07407407407407408,0,0,0.07407407407407408,103.4814814814815,0)" xlink:href="#Q"/></g><path d="M115-194c55 1 70 41 70 98S169 2 115 4C84 4 66-9 55-30l1 105H24l-1-265h31l2 30c10-21 28-34 59-34zm-8 174c40 0 45-34 45-75s-6-73-45-74c-42 0-51 32-51 76 0 43 10 73 51 73" id="T"/><g id="h"><use transform="matrix(0.07407407407407408,0,0,0.07407407407407408,0,0)" xlink:href="#T"/><use transform="matrix(0.07407407407407408,0,0,0.07407407407407408,14.814814814814817,0)" xlink:href="#K"/><use transform="matrix(0.07407407407407408,0,0,0.07407407407407408,29.629629629629633,0)" xlink:href="#K"/><use transform="matrix(0.07407407407407408,0,0,0.07407407407407408,44.44444444444445,0)" xlink:href="#F"/><use transform="matrix(0.07407407407407408,0,0,0.07407407407407408,53.25925925925927,0)" xlink:href="#Q"/></g><g id="i"><use transform="matrix(0.07407407407407408,0,0,0.07407407407407408,0,0)" xlink:href="#C"/><use transform="matrix(0.07407407407407408,0,0,0.07407407407407408,19.185185185185187,0)" xlink:href="#G"/><use transform="matrix(0.07407407407407408,0,0,0.07407407407407408,25.037037037037035,0)" xlink:href="#Q"/><use transform="matrix(0.07407407407407408,0,0,0.07407407407407408,38.370370370370374,0)" xlink:href="#O"/><use transform="matrix(0.07407407407407408,0,0,0.07407407407407408,51.70370370370371,0)" xlink:href="#R"/><use transform="matrix(0.07407407407407408,0,0,0.07407407407407408,66.51851851851853,0)" xlink:href="#S"/><use transform="matrix(0.07407407407407408,0,0,0.07407407407407408,79.85185185185188,0)" xlink:href="#K"/><use transform="matrix(0.07407407407407408,0,0,0.07407407407407408,94.66666666666669,0)" xlink:href="#F"/><use transform="matrix(0.07407407407407408,0,0,0.07407407407407408,103.4814814814815,0)" xlink:href="#Q"/></g><path d="M85-194c31 0 48 13 60 33l-1-100h32l1 261h-30c-2-10 0-23-3-31C134-8 116 4 85 4 32 4 16-35 15-94c0-66 23-100 70-100zm9 24c-40 0-46 34-46 75 0 40 6 74 45 74 42 0 51-32 51-76 0-42-9-74-50-73" id="U"/><g id="j"><use transform="matrix(0.07407407407407408,0,0,0.07407407407407408,0,0)" xlink:href="#Q"/><use transform="matrix(0.07407407407407408,0,0,0.07407407407407408,13.333333333333336,0)" xlink:href="#K"/><use transform="matrix(0.07407407407407408,0,0,0.07407407407407408,28.148148148148152,0)" xlink:href="#K"/><use transform="matrix(0.07407407407407408,0,0,0.07407407407407408,42.96296296296297,0)" xlink:href="#U"/><use transform="matrix(0.07407407407407408,0,0,0.07407407407407408,57.777777777777786,0)" xlink:href="#K"/><use transform="matrix(0.07407407407407408,0,0,0.07407407407407408,72.59259259259261,0)" xlink:href="#F"/><use transform="matrix(0.07407407407407408,0,0,0.07407407407407408,81.40740740740742,0)" xlink:href="#Q"/></g><path d="M160-131c35 5 61 23 61 61C221 17 115-2 30 0v-248c76 3 177-17 177 60 0 33-19 50-47 57zm-97-11c50-1 110 9 110-42 0-47-63-36-110-37v79zm0 115c55-2 124 14 124-45 0-56-70-42-124-44v89" id="V"/><path d="M84 4C-5 8 30-112 23-190h32v120c0 31 7 50 39 49 72-2 45-101 50-169h31l1 190h-30c-1-10 1-25-2-33-11 22-28 36-60 37" id="W"/><path d="M24 0v-261h32V0H24" id="X"/><g id="k"><use transform="matrix(0.07407407407407408,0,0,0.07407407407407408,0,0)" xlink:href="#V"/><use transform="matrix(0.07407407407407408,0,0,0.07407407407407408,17.77777777777778,0)" xlink:href="#W"/><use transform="matrix(0.07407407407407408,0,0,0.07407407407407408,32.592592592592595,0)" xlink:href="#G"/><use transform="matrix(0.07407407407407408,0,0,0.07407407407407408,38.44444444444445,0)" xlink:href="#X"/><use transform="matrix(0.07407407407407408,0,0,0.07407407407407408,44.296296296296305,0)" xlink:href="#U"/></g><path d="M33 0v-248h34V0H33" id="Y"/><path d="M141 0L90-78 38 0H4l68-98-65-92h35l48 74 47-74h35l-64 92 68 98h-35" id="Z"/><g id="l"><use transform="matrix(0.07407407407407408,0,0,0.07407407407407408,0,0)" xlink:href="#Y"/><use transform="matrix(0.07407407407407408,0,0,0.07407407407407408,7.407407407407408,0)" xlink:href="#I"/><use transform="matrix(0.07407407407407408,0,0,0.07407407407407408,22.222222222222225,0)" xlink:href="#U"/><use transform="matrix(0.07407407407407408,0,0,0.07407407407407408,37.03703703703704,0)" xlink:href="#K"/><use transform="matrix(0.07407407407407408,0,0,0.07407407407407408,51.85185185185186,0)" xlink:href="#Z"/></g><g id="m"><use transform="matrix(0.07407407407407408,0,0,0.07407407407407408,0,0)" xlink:href="#y"/><use transform="matrix(0.07407407407407408,0,0,0.07407407407407408,17.77777777777778,0)" xlink:href="#z"/></g><use transform="matrix(0.07407407407407408,0,0,0.07407407407407408,0,0)" xlink:href="#A" id="n"/><g id="o"><use transform="matrix(0.07407407407407408,0,0,0.07407407407407408,0,0)" xlink:href="#B"/><use transform="matrix(0.07407407407407408,0,0,0.07407407407407408,19.185185185185187,0)" xlink:href="#C"/><use transform="matrix(0.07407407407407408,0,0,0.07407407407407408,38.370370370370374,0)" xlink:href="#D"/><use transform="matrix(0.07407407407407408,0,0,0.07407407407407408,54.59259259259259,0)" xlink:href="#y"/></g><path fill="#0c7cba" d="M85-194c31 0 48 13 60 33l-1-100h32l1 261h-30c-2-10 0-23-3-31C134-8 116 4 85 4 32 4 16-35 15-94c0-66 23-100 70-100zm9 24c-40 0-46 34-46 75 0 40 6 74 45 74 42 0 51-32 51-76 0-42-9-74-50-73" id="aa"/><path fill="#0c7cba" d="M100-194c62-1 85 37 85 99 1 63-27 99-86 99S16-35 15-95c0-66 28-99 85-99zM99-20c44 1 53-31 53-75 0-43-8-75-51-75s-53 32-53 75 10 74 51 75" id="ab"/><path fill="#0c7cba" d="M96-169c-40 0-48 33-48 73s9 75 48 75c24 0 41-14 43-38l32 2c-6 37-31 61-74 61-59 0-76-41-82-99-10-93 101-131 147-64 4 7 5 14 7 22l-32 3c-4-21-16-35-41-35" id="ac"/><path fill="#0c7cba" d="M143 0L79-87 56-68V0H24v-261h32v163l83-92h37l-77 82L181 0h-38" id="ad"/><path fill="#0c7cba" d="M100-194c63 0 86 42 84 106H49c0 40 14 67 53 68 26 1 43-12 49-29l28 8c-11 28-37 45-77 45C44 4 14-33 15-96c1-61 26-98 85-98zm52 81c6-60-76-77-97-28-3 7-6 17-6 28h103" id="ae"/><path fill="#0c7cba" d="M114-163C36-179 61-72 57 0H25l-1-190h30c1 12-1 29 2 39 6-27 23-49 58-41v29" id="af"/><g id="p"><use transform="matrix(0.07407407407407408,0,0,0.07407407407407408,0,0)" xlink:href="#aa"/><use transform="matrix(0.07407407407407408,0,0,0.07407407407407408,14.814814814814817,0)" xlink:href="#ab"/><use transform="matrix(0.07407407407407408,0,0,0.07407407407407408,29.629629629629633,0)" xlink:href="#ac"/><use transform="matrix(0.07407407407407408,0,0,0.07407407407407408,42.96296296296297,0)" xlink:href="#ad"/><use transform="matrix(0.07407407407407408,0,0,0.07407407407407408,56.296296296296305,0)" xlink:href="#ae"/><use transform="matrix(0.07407407407407408,0,0,0.07407407407407408,71.11111111111111,0)" xlink:href="#af"/></g><path fill="#0c7cba" d="M115-194c55 1 70 41 70 98S169 2 115 4C84 4 66-9 55-30l1 105H24l-1-265h31l2 30c10-21 28-34 59-34zm-8 174c40 0 45-34 45-75s-6-73-45-74c-42 0-51 32-51 76 0 43 10 73 51 73" id="ag"/><path fill="#0c7cba" d="M84 4C-5 8 30-112 23-190h32v120c0 31 7 50 39 49 72-2 45-101 50-169h31l1 190h-30c-1-10 1-25-2-33-11 22-28 36-60 37" id="ah"/><path fill="#0c7cba" d="M24 0v-261h32V0H24" id="ai"/><g id="q"><use transform="matrix(0.07407407407407408,0,0,0.07407407407407408,0,0)" xlink:href="#ag"/><use transform="matrix(0.07407407407407408,0,0,0.07407407407407408,14.814814814814817,0)" xlink:href="#ah"/><use transform="matrix(0.07407407407407408,0,0,0.07407407407407408,29.629629629629633,0)" xlink:href="#ai"/><use transform="matrix(0.07407407407407408,0,0,0.07407407407407408,35.48148148148149,0)" xlink:href="#ai"/></g><path d="M30-248c87 1 191-15 191 75 0 78-77 80-158 76V0H30v-248zm33 125c57 0 124 11 124-50 0-59-68-47-124-48v98" id="aj"/><path d="M179-190L93 31C79 59 56 82 12 73V49c39 6 53-20 64-50L1-190h34L92-34l54-156h33" id="ak"/><g id="r"><use transform="matrix(0.07407407407407408,0,0,0.07407407407407408,0,0)" xlink:href="#aj"/><use transform="matrix(0.07407407407407408,0,0,0.07407407407407408,17.77777777777778,0)" xlink:href="#F"/><use transform="matrix(0.07407407407407408,0,0,0.07407407407407408,26.592592592592595,0)" xlink:href="#R"/><use transform="matrix(0.07407407407407408,0,0,0.07407407407407408,41.40740740740741,0)" xlink:href="#Z"/><use transform="matrix(0.07407407407407408,0,0,0.07407407407407408,54.74074074074075,0)" xlink:href="#ak"/></g><path d="M232-93c-1 65-40 97-104 97C67 4 28-28 28-90v-158h33c8 89-33 224 67 224 102 0 64-133 71-224h33v155" id="al"/><g id="s"><use transform="matrix(0.06790123456790124,0,0,0.06790123456790124,0,0)" xlink:href="#al"/><use transform="matrix(0.06790123456790124,0,0,0.06790123456790124,17.58641975308642,0)" xlink:href="#T"/><use transform="matrix(0.06790123456790124,0,0,0.06790123456790124,31.16666666666667,0)" xlink:href="#X"/><use transform="matrix(0.06790123456790124,0,0,0.06790123456790124,36.53086419753087,0)" xlink:href="#R"/><use transform="matrix(0.06790123456790124,0,0,0.06790123456790124,50.111111111111114,0)" xlink:href="#N"/><use transform="matrix(0.06790123456790124,0,0,0.06790123456790124,63.69135802469136,0)" xlink:href="#U"/><use transform="matrix(0.06790123456790124,0,0,0.06790123456790124,77.27160493827161,0)" xlink:href="#Q"/></g><path d="M115-194c53 0 69 39 70 98 0 66-23 100-70 100C84 3 66-7 56-30L54 0H23l1-261h32v101c10-23 28-34 59-34zm-8 174c40 0 45-34 45-75 0-40-5-75-45-74-42 0-51 32-51 76 0 43 10 73 51 73" id="am"/><g id="t"><use transform="matrix(0.06790123456790124,0,0,0.06790123456790124,0,0)" xlink:href="#am"/><use transform="matrix(0.06790123456790124,0,0,0.06790123456790124,13.580246913580249,0)" xlink:href="#X"/><use transform="matrix(0.06790123456790124,0,0,0.06790123456790124,18.944444444444446,0)" xlink:href="#R"/><use transform="matrix(0.06790123456790124,0,0,0.06790123456790124,32.5246913580247,0)" xlink:href="#am"/><use transform="matrix(0.06790123456790124,0,0,0.06790123456790124,46.104938271604944,0)" xlink:href="#Q"/></g><g id="u"><use transform="matrix(0.06790123456790124,0,0,0.06790123456790124,0,0)" xlink:href="#L"/><use transform="matrix(0.06790123456790124,0,0,0.06790123456790124,6.790123456790124,0)" xlink:href="#N"/><use transform="matrix(0.06790123456790124,0,0,0.06790123456790124,20.370370370370374,0)" xlink:href="#H"/><use transform="matrix(0.06790123456790124,0,0,0.06790123456790124,33.95061728395062,0)" xlink:href="#Q"/></g><g id="v"><use transform="matrix(0.06790123456790124,0,0,0.06790123456790124,0,0)" xlink:href="#aa"/><use transform="matrix(0.06790123456790124,0,0,0.06790123456790124,13.580246913580249,0)" xlink:href="#ab"/><use transform="matrix(0.06790123456790124,0,0,0.06790123456790124,27.160493827160497,0)" xlink:href="#ac"/><use transform="matrix(0.06790123456790124,0,0,0.06790123456790124,39.38271604938272,0)" xlink:href="#ad"/><use transform="matrix(0.06790123456790124,0,0,0.06790123456790124,51.604938271604944,0)" xlink:href="#ae"/><use transform="matrix(0.06790123456790124,0,0,0.06790123456790124,65.18518518518519,0)" xlink:href="#af"/></g><path fill="#0c7cba" d="M135-143c-3-34-86-38-87 0 15 53 115 12 119 90S17 21 10-45l28-5c4 36 97 45 98 0-10-56-113-15-118-90-4-57 82-63 122-42 12 7 21 19 24 35" id="an"/><path fill="#0c7cba" d="M106-169C34-169 62-67 57 0H25v-261h32l-1 103c12-21 28-36 61-36 89 0 53 116 60 194h-32v-121c2-32-8-49-39-48" id="ao"/><g id="w"><use transform="matrix(0.06790123456790124,0,0,0.06790123456790124,0,0)" xlink:href="#ag"/><use transform="matrix(0.06790123456790124,0,0,0.06790123456790124,13.580246913580249,0)" xlink:href="#ah"/><use transform="matrix(0.06790123456790124,0,0,0.06790123456790124,27.160493827160497,0)" xlink:href="#an"/><use transform="matrix(0.06790123456790124,0,0,0.06790123456790124,39.38271604938272,0)" xlink:href="#ao"/></g><path d="M233-177c-1 41-23 64-60 70L243 0h-38l-65-103H63V0H30v-248c88 3 205-21 203 71zM63-129c60-2 137 13 137-47 0-61-80-42-137-45v92" id="ap"/><g id="x"><use transform="matrix(0.06790123456790124,0,0,0.06790123456790124,0,0)" xlink:href="#ap"/><use transform="matrix(0.06790123456790124,0,0,0.06790123456790124,17.58641975308642,0)" xlink:href="#K"/><use transform="matrix(0.06790123456790124,0,0,0.06790123456790124,31.16666666666667,0)" xlink:href="#Q"/><use transform="matrix(0.06790123456790124,0,0,0.06790123456790124,43.38888888888889,0)" xlink:href="#R"/><use transform="matrix(0.06790123456790124,0,0,0.06790123456790124,56.96913580246914,0)" xlink:href="#X"/><use transform="matrix(0.06790123456790124,0,0,0.06790123456790124,62.333333333333336,0)" xlink:href="#S"/><use transform="matrix(0.06790123456790124,0,0,0.06790123456790124,74.55555555555556,0)" xlink:href="#K"/><use transform="matrix(0.06790123456790124,0,0,0.06790123456790124,88.13580246913581,0)" xlink:href="#Q"/></g></defs></g></svg>