<svg xmlns="http://www.w3.org/2000/svg" xmlns:xlink="http://www.w3.org/1999/xlink" xmlns:lucid="lucid" width="871" height="510"><g transform="translate(-380 -200)" lucid:page-tab-id="LIRKWd5~aUbs"><path d="M880 320c0 22.1-17.9 40-40 40s-40-17.9-40-40 17.9-40 40-40 40 17.9 40 40z" stroke="#000" stroke-width="2" fill="#fff"/><use xlink:href="#a" transform="matrix(1,0,0,1,805,285) translate(11.5 38.6)"/><path d="M1060 320c0 22.1-17.9 40-40 40s-40-17.9-40-40 17.9-40 40-40 40 17.9 40 40z" stroke="#000" stroke-width="2" fill="#fff"/><use xlink:href="#a" transform="matrix(1,0,0,1,985,285) translate(11.5 38.6)"/><path d="M880 480c0 22.1-17.9 40-40 40s-40-17.9-40-40 17.9-40 40-40 40 17.9 40 40z" stroke="#000" stroke-width="2" fill="#fff"/><use xlink:href="#a" transform="matrix(1,0,0,1,805,445) translate(11.5 38.6)"/><path d="M500 520c0 5.52-22.4 10-50 10s-50-4.48-50-10v-80c0-5.52 22.4-10 50-10s50 4.48 50 10z" stroke="#000" stroke-width="2" fill="#fff"/><path d="M500 440c0 5.52-22.4 10-50 10s-50-4.48-50-10" stroke="#000" stroke-width="2" fill="none"/><use xlink:href="#b" transform="matrix(1,0,0,1,405,455) translate(7.074999999999996 38.6)"/><path d="M440.52 641H400v-2h40.52zm119.98 0h-22.02v-2h22.02zM575.76 640l-14.26 4.64v-9.28z" fill="#3aa6dd"/><path d="M579 640l-18.5 6v-12zm-16.5 3.26l10.03-3.26-10.03-3.26z" fill="#3aa6dd"/><use xlink:href="#c" transform="matrix(1,0,0,1,440.525,629.2) translate(0 14.4)"/><use xlink:href="#d" transform="matrix(1,0,0,1,440.525,629.2) translate(58.95 14.4)"/><path d="M1085.9 321H1061v-2h24.9zm115.6 0h-28.76v-2h28.76zM1061 321h-1.06l.06-1-.04-1h1.04zM1216.76 320l-14.26 4.64v-9.28z" fill="#3aa6dd"/><path d="M1220 320l-18.5 6v-12zm-16.5 3.26l10.03-3.26-10.03-3.26z" fill="#3aa6dd"/><use xlink:href="#c" transform="matrix(1,0,0,1,1085.8917742237438,309.2) translate(0 14.4)"/><use xlink:href="#e" transform="matrix(1,0,0,1,1085.8917742237438,309.2) translate(58.95 14.4)"/><path d="M1080 680c0 5.52-22.4 10-50 10s-50-4.48-50-10v-80c0-5.52 22.4-10 50-10s50 4.48 50 10z" stroke="#000" stroke-width="2" fill="#fff"/><path d="M1080 600c0 5.52-22.4 10-50 10s-50-4.48-50-10" stroke="#000" stroke-width="2" fill="none"/><use xlink:href="#b" transform="matrix(1,0,0,1,985,615) translate(7.074999999999996 38.6)"/><path d="M580 280h80v80h-80z" stroke="#000" stroke-width="2" fill="#fff"/><use xlink:href="#f" transform="matrix(1,0,0,1,585,285) translate(4.899999999999999 38.6)"/><path d="M800 600h80v80h-80z" stroke="#000" stroke-width="2" fill="#fff"/><use xlink:href="#g" transform="matrix(1,0,0,1,805,605) translate(15.05 27.799999999999997)"/><use xlink:href="#h" transform="matrix(1,0,0,1,805,605) translate(13 49.4)"/><path d="M700 480c0 22.1-17.9 40-40 40s-40-17.9-40-40 17.9-40 40-40 40 17.9 40 40z" stroke="#000" stroke-width="2" fill="#fff"/><path d="M680 480c0 22.1-17.9 40-40 40s-40-17.9-40-40 17.9-40 40-40 40 17.9 40 40z" stroke="#000" stroke-width="2" fill="#fff"/><path d="M660 480c0 22.1-17.9 40-40 40s-40-17.9-40-40 17.9-40 40-40 40 17.9 40 40z" stroke="#000" stroke-width="2" fill="#fff"/><use xlink:href="#i" transform="matrix(1,0,0,1,585,445) translate(11.075 38.6)"/><path d="M580 600h80v80h-80z" stroke="#000" stroke-width="2" fill="#fff"/><use xlink:href="#j" transform="matrix(1,0,0,1,585,605) translate(12.024999999999999 38.6)"/><path d="M560.5 480h-41" stroke="#000" stroke-width="2" fill="none"/><path d="M575.76 480l-14.26 4.64v-9.28z"/><path d="M579 480l-18.5 6v-12zm-16.5 3.26l10.03-3.26-10.03-3.26zM518.5 484.64L504.24 480l14.26-4.64z"/><path d="M519.5 486l-18.5-6 18.5-6zm-12.03-6l10.03 3.26v-6.52zM621 420.5h-2v-9.7h2zm0-31.3h-2v-9.7h2zM624.64 378.5h-9.28l4.64-14.26z"/><path d="M626 379.5h-12l6-18.5zm-9.26-2h6.52L620 367.47zM620 435.76l-4.64-14.26h9.28z"/><path d="M620 439l-6-18.5h12zm-3.26-16.5l3.26 10.03 3.26-10.03z"/><use xlink:href="#k" transform="matrix(1,0,0,1,571.025,389.19968804845206) translate(0 14.4)"/><use xlink:href="#l" transform="matrix(1,0,0,1,571.025,389.19968804845206) translate(34 14.4)"/><path d="M899.5 640h61" stroke="#000" stroke-width="2" fill="none"/><path d="M898.5 644.64L884.24 640l14.26-4.64z"/><path d="M899.5 646l-18.5-6 18.5-6zm-12.03-6l10.03 3.26v-6.52zM975.76 640l-14.26 4.64v-9.28z"/><path d="M979 640l-18.5 6v-12zm-16.5 3.26l10.03-3.26-10.03-3.26zM689.43 641H661v-2h28.43zm91.07 0h-25.07v-2h25.07zM661 641h-1v-2h1zM795.76 640l-14.26 4.64v-9.28z"/><path d="M799 640l-18.5 6v-12zm-16.5 3.26l10.03-3.26-10.03-3.26z"/><use xlink:href="#m" transform="matrix(1,0,0,1,689.4303797468356,629.2000000000002) translate(0 14.4)"/><use xlink:href="#n" transform="matrix(1,0,0,1,689.4303797468356,629.2000000000002) translate(32 14.4)"/><path d="M621 599h-2v-23.27h2zm0-44.87h-2V539.5h2zM621 600h-2v-1h2zM624.64 538.5h-9.28l4.64-14.26z"/><path d="M626 539.5h-12l6-18.5zm-9.26-2h6.52L620 527.47z"/><use xlink:href="#m" transform="matrix(1,0,0,1,582.525,554.1281731152918) translate(0 14.4)"/><use xlink:href="#o" transform="matrix(1,0,0,1,582.525,554.1281731152918) translate(32 14.4)"/><path d="M1060 480c0 22.1-17.9 40-40 40s-40-17.9-40-40 17.9-40 40-40 40 17.9 40 40z" stroke="#000" stroke-width="2" fill="#fff"/><use xlink:href="#a" transform="matrix(1,0,0,1,985,445) translate(11.5 38.6)"/><path d="M1020 420.5v-41" stroke="#000" stroke-width="2" fill="none"/><path d="M1020 435.76l-4.64-14.26h9.28z"/><path d="M1020 439l-6-18.5h12zm-3.26-16.5l3.26 10.03 3.26-10.03zM1024.64 378.5h-9.28l4.64-14.26z"/><path d="M1026 379.5h-12l6-18.5zm-9.26-2h6.52l-3.26-10.03z"/><path d="M899.5 320h61" stroke="#000" stroke-width="2" fill="none"/><path d="M898.5 324.64L884.24 320l14.26-4.64z"/><path d="M899.5 326l-18.5-6 18.5-6zm-12.03-6l10.03 3.26v-6.52zM975.76 320l-14.26 4.64v-9.28z"/><path d="M979 320l-18.5 6v-12zm-16.5 3.26l10.03-3.26-10.03-3.26z"/><path d="M840 379.5v41" stroke="#000" stroke-width="2" fill="none"/><path d="M844.64 378.5h-9.28l4.64-14.26z"/><path d="M846 379.5h-12l6-18.5zm-9.26-2h6.52L840 367.47zM840 435.76l-4.64-14.26h9.28z"/><path d="M840 439l-6-18.5h12zm-3.26-16.5l3.26 10.03 3.26-10.03z"/><path d="M899.5 480h61" stroke="#000" stroke-width="2" fill="none"/><path d="M898.5 484.64L884.24 480l14.26-4.64z"/><path d="M899.5 486l-18.5-6 18.5-6zm-12.03-6l10.03 3.26v-6.52zM975.76 480l-14.26 4.64v-9.28z"/><path d="M979 480l-18.5 6v-12zm-16.5 3.26l10.03-3.26-10.03-3.26zM841 580.5h-2v-9.7h2zm0-31.3h-2v-9.7h2zM844.64 538.5h-9.28l4.64-14.26z"/><path d="M846 539.5h-12l6-18.5zm-9.26-2h6.52L840 527.47zM840 595.76l-4.64-14.26h9.28z"/><path d="M840 599l-6-18.5h12zm-3.26-16.5l3.26 10.03 3.26-10.03z"/><use xlink:href="#k" transform="matrix(1,0,0,1,806,549.200311951548) translate(0 14.4)"/><use xlink:href="#n" transform="matrix(1,0,0,1,806,549.200311951548) translate(34 14.4)"/><path d="M717 481h-16v-2h16zm63.5 0H759v-2h21.5zM795.76 480l-14.26 4.64v-9.28z"/><path d="M799 480l-18.5 6v-12zm-16.5 3.26l10.03-3.26-10.03-3.26zM701 481h-1.06l.06-1-.04-1H701z"/><use xlink:href="#p" transform="matrix(1,0,0,1,717,469.2) translate(0 14.4)"/><path d="M690.52 321H679.5v-2h11.02zm89.98 0h-11.03v-2h11.03zM795.76 320l-14.26 4.64v-9.28z"/><path d="M799 320l-18.5 6v-12zm-16.5 3.26l10.03-3.26-10.03-3.26zM678.5 324.64L664.24 320l14.26-4.64z"/><path d="M679.5 326l-18.5-6 18.5-6zm-12.03-6l10.03 3.26v-6.52z"/><use xlink:href="#k" transform="matrix(1,0,0,1,690.524688048452,309.2) translate(0 14.4)"/><use xlink:href="#q" transform="matrix(1,0,0,1,690.524688048452,309.2) translate(34 14.4)"/><path d="M820 370h220v60H820z" stroke="#000" stroke-opacity="0" stroke-width="2" fill="#fff" fill-opacity="0"/><g><use xlink:href="#r" transform="matrix(1,0,0,1,825,375) translate(88 28.6)"/></g><path d="M780 220h300v320H780z" fill-opacity="0"/><path d="M787 220h6m4 0h6m4 0h6m4 0h6m4 0h6m4 0h6m4 0h6m4 0h6m4 0h6m4 0h6m4 0h6m4 0h6m4 0h6m4 0h6m4 0h6m4 0h6m4 0h6m4 0h6m4 0h6m4 0h6m4 0h6m4 0h6m4 0h6m4 0h6m4 0h6m4 0h6m4 0h6m4 0h6m4 0h6m4 0h3v3m0 4v6m0 4v6m0 4v6m0 4v6m0 4v6m0 4v6m0 4v6m0 4v6m0 4v6m0 4v6m0 4v6m0 4v6m0 4v6m0 4v6m0 4v6m0 4v6m0 4v6m0 4v6m0 4v6m0 4v6m0 4v6m0 4v6m0 4v6m0 4v6m0 4v6m0 4v6m0 4v6m0 4v6m0 4v6m0 4v6m0 4v6m0 4v3h-3m-4 0h-6m-4 0h-6m-4 0h-6m-4 0h-6m-4 0h-6m-4 0h-6m-4 0h-6m-4 0h-6m-4 0h-6m-4 0h-6m-4 0h-6m-4 0h-6m-4 0h-6m-4 0h-6m-4 0h-6m-4 0h-6m-4 0h-6m-4 0h-6m-4 0h-6m-4 0h-6m-4 0h-6m-4 0h-6m-4 0h-6m-4 0h-6m-4 0h-6m-4 0h-6m-4 0h-6m-4 0h-6m-4 0h-6m-4 0h-3v-3m0-4v-6m0-4v-6m0-4v-6m0-4v-6m0-4v-6m0-4v-6m0-4v-6m0-4v-6m0-4v-6m0-4v-6m0-4v-6m0-4v-6m0-4v-6m0-4v-6m0-4v-6m0-4v-6m0-4v-6m0-4v-6m0-4v-6m0-4v-6m0-4v-6m0-4v-6m0-4v-6m0-4v-6m0-4v-6m0-4v-6m0-4v-6m0-4v-6m0-4v-6m0-4v-6m0-4v-6m0-4v-3h3" stroke="#666" stroke-width="2" fill="none"/><path d="M830 230h200v40H830z" stroke="#000" stroke-opacity="0" stroke-width="2" fill="#fff" fill-opacity="0"/><g><use xlink:href="#s" transform="matrix(1,0,0,1,835,235) translate(27.625 18.6)"/><use xlink:href="#t" transform="matrix(1,0,0,1,835,235) translate(105.525 18.6)"/></g><defs><path d="M205 0l-28-72H64L36 0H1l101-248h38L239 0h-34zm-38-99l-47-123c-12 45-31 82-46 123h93" id="u"/><path d="M177-190C167-65 218 103 67 71c-23-6-38-20-44-43l32-5c15 47 100 32 89-28v-30C133-14 115 1 83 1 29 1 15-40 15-95c0-56 16-97 71-98 29-1 48 16 59 35 1-10 0-23 2-32h30zM94-22c36 0 50-32 50-73 0-42-14-75-50-75-39 0-46 34-46 75s6 73 46 73" id="v"/><path d="M100-194c63 0 86 42 84 106H49c0 40 14 67 53 68 26 1 43-12 49-29l28 8c-11 28-37 45-77 45C44 4 14-33 15-96c1-61 26-98 85-98zm52 81c6-60-76-77-97-28-3 7-6 17-6 28h103" id="w"/><path d="M117-194c89-4 53 116 60 194h-32v-121c0-31-8-49-39-48C34-167 62-67 57 0H25l-1-190h30c1 10-1 24 2 32 11-22 29-35 61-36" id="x"/><path d="M59-47c-2 24 18 29 38 22v24C64 9 27 4 27-40v-127H5v-23h24l9-43h21v43h35v23H59v120" id="y"/><g id="a"><use transform="matrix(0.05,0,0,0.05,0,0)" xlink:href="#u"/><use transform="matrix(0.05,0,0,0.05,12,0)" xlink:href="#v"/><use transform="matrix(0.05,0,0,0.05,22,0)" xlink:href="#w"/><use transform="matrix(0.05,0,0,0.05,32,0)" xlink:href="#x"/><use transform="matrix(0.05,0,0,0.05,42,0)" xlink:href="#y"/></g><path d="M185-189c-5-48-123-54-124 2 14 75 158 14 163 119 3 78-121 87-175 55-17-10-28-26-33-46l33-7c5 56 141 63 141-1 0-78-155-14-162-118-5-82 145-84 179-34 5 7 8 16 11 25" id="z"/><path d="M126-127c33 6 58 20 58 59 0 88-139 92-164 29-3-8-5-16-6-25l32-3c6 27 21 44 54 44 32 0 52-15 52-46 0-38-36-46-79-43v-28c39 1 72-4 72-42 0-27-17-43-46-43-28 0-47 15-49 41l-32-3c6-42 35-63 81-64 48-1 79 21 79 65 0 36-21 52-52 59" id="A"/><path d="M0 4l72-265h28L28 4H0" id="B"/><path d="M197 0v-115H63V0H30v-248h33v105h134v-105h34V0h-34" id="C"/><path d="M30-248c118-7 216 8 213 122C240-48 200 0 122 0H30v-248zM63-27c89 8 146-16 146-99s-60-101-146-95v194" id="D"/><path d="M63-220v92h138v28H63V0H30v-248h175v28H63" id="E"/><g id="b"><use transform="matrix(0.05,0,0,0.05,0,0)" xlink:href="#z"/><use transform="matrix(0.05,0,0,0.05,12,0)" xlink:href="#A"/><use transform="matrix(0.05,0,0,0.05,22,0)" xlink:href="#B"/><use transform="matrix(0.05,0,0,0.05,27,0)" xlink:href="#C"/><use transform="matrix(0.05,0,0,0.05,39.95,0)" xlink:href="#D"/><use transform="matrix(0.05,0,0,0.05,52.900000000000006,0)" xlink:href="#E"/><use transform="matrix(0.05,0,0,0.05,63.85,0)" xlink:href="#z"/></g><path fill="#3aa6dd" d="M85-194c31 0 48 13 60 33l-1-100h32l1 261h-30c-2-10 0-23-3-31C134-8 116 4 85 4 32 4 16-35 15-94c0-66 23-100 70-100zm9 24c-40 0-46 34-46 75 0 40 6 74 45 74 42 0 51-32 51-76 0-42-9-74-50-73" id="F"/><path fill="#3aa6dd" d="M100-194c62-1 85 37 85 99 1 63-27 99-86 99S16-35 15-95c0-66 28-99 85-99zM99-20c44 1 53-31 53-75 0-43-8-75-51-75s-53 32-53 75 10 74 51 75" id="G"/><path fill="#3aa6dd" d="M96-169c-40 0-48 33-48 73s9 75 48 75c24 0 41-14 43-38l32 2c-6 37-31 61-74 61-59 0-76-41-82-99-10-93 101-131 147-64 4 7 5 14 7 22l-32 3c-4-21-16-35-41-35" id="H"/><path fill="#3aa6dd" d="M143 0L79-87 56-68V0H24v-261h32v163l83-92h37l-77 82L181 0h-38" id="I"/><path fill="#3aa6dd" d="M100-194c63 0 86 42 84 106H49c0 40 14 67 53 68 26 1 43-12 49-29l28 8c-11 28-37 45-77 45C44 4 14-33 15-96c1-61 26-98 85-98zm52 81c6-60-76-77-97-28-3 7-6 17-6 28h103" id="J"/><path fill="#3aa6dd" d="M114-163C36-179 61-72 57 0H25l-1-190h30c1 12-1 29 2 39 6-27 23-49 58-41v29" id="K"/><g id="c"><use transform="matrix(0.05,0,0,0.05,0,0)" xlink:href="#F"/><use transform="matrix(0.05,0,0,0.05,10,0)" xlink:href="#G"/><use transform="matrix(0.05,0,0,0.05,20,0)" xlink:href="#H"/><use transform="matrix(0.05,0,0,0.05,29,0)" xlink:href="#I"/><use transform="matrix(0.05,0,0,0.05,38,0)" xlink:href="#J"/><use transform="matrix(0.05,0,0,0.05,48,0)" xlink:href="#K"/></g><path fill="#3aa6dd" d="M115-194c55 1 70 41 70 98S169 2 115 4C84 4 66-9 55-30l1 105H24l-1-265h31l2 30c10-21 28-34 59-34zm-8 174c40 0 45-34 45-75s-6-73-45-74c-42 0-51 32-51 76 0 43 10 73 51 73" id="L"/><path fill="#3aa6dd" d="M84 4C-5 8 30-112 23-190h32v120c0 31 7 50 39 49 72-2 45-101 50-169h31l1 190h-30c-1-10 1-25-2-33-11 22-28 36-60 37" id="M"/><path fill="#3aa6dd" d="M135-143c-3-34-86-38-87 0 15 53 115 12 119 90S17 21 10-45l28-5c4 36 97 45 98 0-10-56-113-15-118-90-4-57 82-63 122-42 12 7 21 19 24 35" id="N"/><path fill="#3aa6dd" d="M106-169C34-169 62-67 57 0H25v-261h32l-1 103c12-21 28-36 61-36 89 0 53 116 60 194h-32v-121c2-32-8-49-39-48" id="O"/><g id="d"><use transform="matrix(0.05,0,0,0.05,0,0)" xlink:href="#L"/><use transform="matrix(0.05,0,0,0.05,10,0)" xlink:href="#M"/><use transform="matrix(0.05,0,0,0.05,20,0)" xlink:href="#N"/><use transform="matrix(0.05,0,0,0.05,29,0)" xlink:href="#O"/></g><path fill="#3aa6dd" d="M24 0v-261h32V0H24" id="P"/><g id="e"><use transform="matrix(0.05,0,0,0.05,0,0)" xlink:href="#L"/><use transform="matrix(0.05,0,0,0.05,10,0)" xlink:href="#M"/><use transform="matrix(0.05,0,0,0.05,20,0)" xlink:href="#P"/><use transform="matrix(0.05,0,0,0.05,23.95,0)" xlink:href="#P"/></g><path d="M127-220V0H93v-220H8v-28h204v28h-85" id="Q"/><path d="M114-163C36-179 61-72 57 0H25l-1-190h30c1 12-1 29 2 39 6-27 23-49 58-41v29" id="R"/><path d="M141-36C126-15 110 5 73 4 37 3 15-17 15-53c-1-64 63-63 125-63 3-35-9-54-41-54-24 1-41 7-42 31l-33-3c5-37 33-52 76-52 45 0 72 20 72 64v82c-1 20 7 32 28 27v20c-31 9-61-2-59-35zM48-53c0 20 12 33 32 33 41-3 63-29 60-74-43 2-92-5-92 41" id="S"/><path d="M96-169c-40 0-48 33-48 73s9 75 48 75c24 0 41-14 43-38l32 2c-6 37-31 61-74 61-59 0-76-41-82-99-10-93 101-131 147-64 4 7 5 14 7 22l-32 3c-4-21-16-35-41-35" id="T"/><path d="M143 0L79-87 56-68V0H24v-261h32v163l83-92h37l-77 82L181 0h-38" id="U"/><g id="f"><use transform="matrix(0.05,0,0,0.05,0,0)" xlink:href="#Q"/><use transform="matrix(0.05,0,0,0.05,10.3,0)" xlink:href="#R"/><use transform="matrix(0.05,0,0,0.05,16.25,0)" xlink:href="#S"/><use transform="matrix(0.05,0,0,0.05,26.25,0)" xlink:href="#T"/><use transform="matrix(0.05,0,0,0.05,35.25,0)" xlink:href="#U"/><use transform="matrix(0.05,0,0,0.05,44.25,0)" xlink:href="#w"/><use transform="matrix(0.05,0,0,0.05,54.25,0)" xlink:href="#R"/></g><path d="M160-131c35 5 61 23 61 61C221 17 115-2 30 0v-248c76 3 177-17 177 60 0 33-19 50-47 57zm-97-11c50-1 110 9 110-42 0-47-63-36-110-37v79zm0 115c55-2 124 14 124-45 0-56-70-42-124-44v89" id="V"/><path d="M84 4C-5 8 30-112 23-190h32v120c0 31 7 50 39 49 72-2 45-101 50-169h31l1 190h-30c-1-10 1-25-2-33-11 22-28 36-60 37" id="W"/><path d="M24-231v-30h32v30H24zM24 0v-190h32V0H24" id="X"/><path d="M24 0v-261h32V0H24" id="Y"/><path d="M85-194c31 0 48 13 60 33l-1-100h32l1 261h-30c-2-10 0-23-3-31C134-8 116 4 85 4 32 4 16-35 15-94c0-66 23-100 70-100zm9 24c-40 0-46 34-46 75 0 40 6 74 45 74 42 0 51-32 51-76 0-42-9-74-50-73" id="Z"/><g id="g"><use transform="matrix(0.05,0,0,0.05,0,0)" xlink:href="#V"/><use transform="matrix(0.05,0,0,0.05,12,0)" xlink:href="#W"/><use transform="matrix(0.05,0,0,0.05,22,0)" xlink:href="#X"/><use transform="matrix(0.05,0,0,0.05,25.950000000000003,0)" xlink:href="#Y"/><use transform="matrix(0.05,0,0,0.05,29.899999999999995,0)" xlink:href="#Z"/></g><path d="M33 0v-248h34V0H33" id="aa"/><path d="M141 0L90-78 38 0H4l68-98-65-92h35l48 74 47-74h35l-64 92 68 98h-35" id="ab"/><g id="h"><use transform="matrix(0.05,0,0,0.05,0,0)" xlink:href="#aa"/><use transform="matrix(0.05,0,0,0.05,5,0)" xlink:href="#x"/><use transform="matrix(0.05,0,0,0.05,15,0)" xlink:href="#Z"/><use transform="matrix(0.05,0,0,0.05,25,0)" xlink:href="#w"/><use transform="matrix(0.05,0,0,0.05,35,0)" xlink:href="#ab"/></g><path d="M140-251c81 0 123 46 123 126C263-46 219 4 140 4 59 4 17-45 17-125s42-126 123-126zm0 227c63 0 89-41 89-101s-29-99-89-99c-61 0-89 39-89 99S79-25 140-24" id="ac"/><g id="i"><use transform="matrix(0.05,0,0,0.05,0,0)" xlink:href="#ac"/><use transform="matrix(0.05,0,0,0.05,14,0)" xlink:href="#R"/><use transform="matrix(0.05,0,0,0.05,19.95,0)" xlink:href="#X"/><use transform="matrix(0.05,0,0,0.05,23.9,0)" xlink:href="#v"/><use transform="matrix(0.05,0,0,0.05,33.9,0)" xlink:href="#X"/><use transform="matrix(0.05,0,0,0.05,37.85,0)" xlink:href="#x"/></g><path d="M30-248c87 1 191-15 191 75 0 78-77 80-158 76V0H30v-248zm33 125c57 0 124 11 124-50 0-59-68-47-124-48v98" id="ad"/><path d="M100-194c62-1 85 37 85 99 1 63-27 99-86 99S16-35 15-95c0-66 28-99 85-99zM99-20c44 1 53-31 53-75 0-43-8-75-51-75s-53 32-53 75 10 74 51 75" id="ae"/><path d="M179-190L93 31C79 59 56 82 12 73V49c39 6 53-20 64-50L1-190h34L92-34l54-156h33" id="af"/><g id="j"><use transform="matrix(0.05,0,0,0.05,0,0)" xlink:href="#ad"/><use transform="matrix(0.05,0,0,0.05,12,0)" xlink:href="#R"/><use transform="matrix(0.05,0,0,0.05,17.95,0)" xlink:href="#ae"/><use transform="matrix(0.05,0,0,0.05,27.950000000000003,0)" xlink:href="#ab"/><use transform="matrix(0.05,0,0,0.05,36.95,0)" xlink:href="#af"/></g><path d="M143 4C61 4 22-44 18-125c-5-107 100-154 193-111 17 8 29 25 37 43l-32 9c-13-25-37-40-76-40-61 0-88 39-88 99 0 61 29 100 91 101 35 0 62-11 79-27v-45h-74v-28h105v86C228-13 192 4 143 4" id="ag"/><g id="k"><use transform="matrix(0.05,0,0,0.05,0,0)" xlink:href="#ag"/><use transform="matrix(0.05,0,0,0.05,14,0)" xlink:href="#w"/><use transform="matrix(0.05,0,0,0.05,24,0)" xlink:href="#y"/></g><path d="M135-143c-3-34-86-38-87 0 15 53 115 12 119 90S17 21 10-45l28-5c4 36 97 45 98 0-10-56-113-15-118-90-4-57 82-63 122-42 12 7 21 19 24 35" id="ah"/><g id="l"><use transform="matrix(0.05,0,0,0.05,0,0)" xlink:href="#ah"/><use transform="matrix(0.05,0,0,0.05,9,0)" xlink:href="#w"/><use transform="matrix(0.05,0,0,0.05,19,0)" xlink:href="#w"/><use transform="matrix(0.05,0,0,0.05,29,0)" xlink:href="#Z"/><use transform="matrix(0.05,0,0,0.05,39,0)" xlink:href="#w"/><use transform="matrix(0.05,0,0,0.05,49,0)" xlink:href="#R"/><use transform="matrix(0.05,0,0,0.05,54.95,0)" xlink:href="#ah"/></g><g id="m"><use transform="matrix(0.05,0,0,0.05,0,0)" xlink:href="#ad"/><use transform="matrix(0.05,0,0,0.05,12,0)" xlink:href="#W"/><use transform="matrix(0.05,0,0,0.05,22,0)" xlink:href="#y"/></g><g id="n"><use transform="matrix(0.05,0,0,0.05,0,0)" xlink:href="#y"/><use transform="matrix(0.05,0,0,0.05,5,0)" xlink:href="#S"/><use transform="matrix(0.05,0,0,0.05,15,0)" xlink:href="#v"/><use transform="matrix(0.05,0,0,0.05,25,0)" xlink:href="#ah"/></g><path d="M115-194c53 0 69 39 70 98 0 66-23 100-70 100C84 3 66-7 56-30L54 0H23l1-261h32v101c10-23 28-34 59-34zm-8 174c40 0 45-34 45-75 0-40-5-75-45-74-42 0-51 32-51 76 0 43 10 73 51 73" id="ai"/><g id="o"><use transform="matrix(0.05,0,0,0.05,0,0)" xlink:href="#ai"/><use transform="matrix(0.05,0,0,0.05,10,0)" xlink:href="#Y"/><use transform="matrix(0.05,0,0,0.05,13.949999999999998,0)" xlink:href="#ae"/><use transform="matrix(0.05,0,0,0.05,23.95,0)" xlink:href="#ai"/><use transform="matrix(0.05,0,0,0.05,33.95,0)" xlink:href="#ah"/></g><g id="p"><use transform="matrix(0.05,0,0,0.05,0,0)" xlink:href="#z"/><use transform="matrix(0.05,0,0,0.05,12,0)" xlink:href="#w"/><use transform="matrix(0.05,0,0,0.05,22,0)" xlink:href="#w"/><use transform="matrix(0.05,0,0,0.05,32,0)" xlink:href="#Z"/></g><path d="M115-194c55 1 70 41 70 98S169 2 115 4C84 4 66-9 55-30l1 105H24l-1-265h31l2 30c10-21 28-34 59-34zm-8 174c40 0 45-34 45-75s-6-73-45-74c-42 0-51 32-51 76 0 43 10 73 51 73" id="aj"/><g id="q"><use transform="matrix(0.05,0,0,0.05,0,0)" xlink:href="#aj"/><use transform="matrix(0.05,0,0,0.05,10,0)" xlink:href="#w"/><use transform="matrix(0.05,0,0,0.05,20,0)" xlink:href="#w"/><use transform="matrix(0.05,0,0,0.05,30,0)" xlink:href="#R"/><use transform="matrix(0.05,0,0,0.05,35.95,0)" xlink:href="#ah"/></g><path d="M101-251c82-7 93 87 43 132L82-64C71-53 59-42 53-27h129V0H18c2-99 128-94 128-182 0-28-16-43-45-43s-46 15-49 41l-32-3c6-41 34-60 81-64" id="ak"/><g id="r"><use transform="matrix(0.05,0,0,0.05,0,0)" xlink:href="#ad"/><use transform="matrix(0.05,0,0,0.05,12,0)" xlink:href="#ak"/><use transform="matrix(0.05,0,0,0.05,22,0)" xlink:href="#ad"/></g><path d="M212-179c-10-28-35-45-73-45-59 0-87 40-87 99 0 60 29 101 89 101 43 0 62-24 78-52l27 14C228-24 195 4 139 4 59 4 22-46 18-125c-6-104 99-153 187-111 19 9 31 26 39 46" id="al"/><path d="M210-169c-67 3-38 105-44 169h-31v-121c0-29-5-50-35-48C34-165 62-65 56 0H25l-1-190h30c1 10-1 24 2 32 10-44 99-50 107 0 11-21 27-35 58-36 85-2 47 119 55 194h-31v-121c0-29-5-49-35-48" id="am"/><g id="s"><use transform="matrix(0.05,0,0,0.05,0,0)" xlink:href="#al"/><use transform="matrix(0.05,0,0,0.05,12.950000000000001,0)" xlink:href="#ae"/><use transform="matrix(0.05,0,0,0.05,22.950000000000003,0)" xlink:href="#am"/><use transform="matrix(0.05,0,0,0.05,37.900000000000006,0)" xlink:href="#aj"/><use transform="matrix(0.05,0,0,0.05,47.900000000000006,0)" xlink:href="#W"/><use transform="matrix(0.05,0,0,0.05,57.900000000000006,0)" xlink:href="#y"/><use transform="matrix(0.05,0,0,0.05,62.900000000000006,0)" xlink:href="#w"/></g><g id="t"><use transform="matrix(0.05,0,0,0.05,0,0)" xlink:href="#al"/><use transform="matrix(0.05,0,0,0.05,12.950000000000001,0)" xlink:href="#Y"/><use transform="matrix(0.05,0,0,0.05,16.900000000000002,0)" xlink:href="#W"/><use transform="matrix(0.05,0,0,0.05,26.900000000000002,0)" xlink:href="#ah"/><use transform="matrix(0.05,0,0,0.05,35.900000000000006,0)" xlink:href="#y"/><use transform="matrix(0.05,0,0,0.05,40.900000000000006,0)" xlink:href="#w"/><use transform="matrix(0.05,0,0,0.05,50.900000000000006,0)" xlink:href="#R"/></g></defs></g></svg>