<svg xmlns="http://www.w3.org/2000/svg" xmlns:xlink="http://www.w3.org/1999/xlink" xmlns:lucid="lucid" width="840" height="551"><g transform="translate(-300 -240)" lucid:page-tab-id="LIRKWd5~aUbs"><path d="M860 400c0 22.1-17.9 40-40 40s-40-17.9-40-40 17.9-40 40-40 40 17.9 40 40z" stroke="#000" stroke-width="2" fill="#fff"/><use xlink:href="#a" transform="matrix(1,0,0,1,785,365) translate(11.5 38.6)"/><path d="M679.9 520.32c0 6.62-26.86 12-60 12s-60-5.38-60-12v-96c0-6.63 26.86-12 60-12s60 5.37 60 12z" stroke="#000" stroke-width="2" fill="#fff"/><path d="M679.9 424.32c0 6.62-26.86 12-60 12s-60-5.38-60-12" stroke="#000" stroke-width="2" fill="none"/><use xlink:href="#b" transform="matrix(1,0,0,1,564.898514707136,441.31740238899033) translate(31.075 46.6)"/><path d="M659.9 540.32c0 6.62-26.86 12-60 12s-60-5.38-60-12v-96c0-6.63 26.86-12 60-12s60 5.37 60 12z" stroke="#000" stroke-width="2" fill="#fff"/><path d="M659.9 444.32c0 6.62-26.86 12-60 12s-60-5.38-60-12" stroke="#000" stroke-width="2" fill="none"/><use xlink:href="#b" transform="matrix(1,0,0,1,544.898514707136,461.31740238899033) translate(31.075 46.6)"/><path d="M639.9 560.32c0 6.62-26.86 12-60 12s-60-5.38-60-12v-96c0-6.63 26.86-12 60-12s60 5.37 60 12z" stroke="#000" stroke-width="2" fill="#fff"/><path d="M639.9 464.32c0 6.62-26.86 12-60 12s-60-5.38-60-12" stroke="#000" stroke-width="2" fill="none"/><use xlink:href="#b" transform="matrix(1,0,0,1,524.898514707136,481.31740238899033) translate(31.075 46.6)"/><path d="M700 300c0 22.1-17.9 40-40 40s-40-17.9-40-40 17.9-40 40-40 40 17.9 40 40z" stroke="#000" stroke-width="2" fill="#fff"/><use xlink:href="#c" transform="matrix(1,0,0,1,625,265) translate(4.899999999999999 38.6)"/><path d="M1020 400c0 22.1-17.9 40-40 40s-40-17.9-40-40 17.9-40 40-40 40 17.9 40 40z" stroke="#000" stroke-width="2" fill="#fff"/><use xlink:href="#a" transform="matrix(1,0,0,1,945,365) translate(11.5 38.6)"/><path d="M940 520c0 22.1-17.9 40-40 40s-40-17.9-40-40 17.9-40 40-40 40 17.9 40 40z" stroke="#000" stroke-width="2" fill="#fff"/><use xlink:href="#a" transform="matrix(1,0,0,1,865,485) translate(11.5 38.6)"/><path d="M925.63 376.74l-2.83-.83-5.2-1.2-4.9-.83-4.72-.52-4.66-.24-4.73.04-4.93.33-5.28.66-5.87 1.1-6.82 1.68-1.1.35" stroke="#000" stroke-width="2" fill="none"/><path d="M939.64 382.06l-14.98-.73 3.3-8.67z"/><path d="M942.67 383.2l-19.43-.94 4.26-11.24zm-16.6-2.8l10.55.5-8.23-6.6zM875.42 381.87l-15 .28 11.97-9.04z"/><path d="M876.8 382.85l-19.44.36 15.53-11.72zm-13.32-1.76l10.54-.2-2.12-6.16z"/><path d="M440 448c0 6.63-26.86 12-60 12s-60-5.37-60-12v-96c0-6.63 26.86-12 60-12s60 5.37 60 12z" stroke="#000" stroke-width="2" fill="#fff"/><path d="M440 352c0 6.63-26.86 12-60 12s-60-5.37-60-12" stroke="#000" stroke-width="2" fill="none"/><use xlink:href="#d" transform="matrix(1,0,0,1,325,369) translate(17.074999999999996 46.6)"/><path d="M820 420h160v40H820z" stroke="#000" stroke-opacity="0" stroke-width="2" fill="#fff" fill-opacity="0"/><use xlink:href="#e" transform="matrix(1,0,0,1,825,425) translate(58 18.6)"/><path d="M660 700c0 22.1-17.9 40-40 40s-40-17.9-40-40 17.9-40 40-40 40 17.9 40 40z" stroke="#000" stroke-width="2" fill="#fff"/><use xlink:href="#f" transform="matrix(1,0,0,1,585,665) translate(12.024999999999999 38.6)"/><path d="M880 660c0 22.1-17.9 40-40 40s-40-17.9-40-40 17.9-40 40-40 40 17.9 40 40z" stroke="#000" stroke-width="2" fill="#fff"/><use xlink:href="#g" transform="matrix(1,0,0,1,805,625) translate(15.05 27.799999999999997)"/><use xlink:href="#h" transform="matrix(1,0,0,1,805,625) translate(13 49.4)"/><path d="M573.6 639l1.97 4 2.28 4.13 2.7 4.32 3.23 4.64 4 5.12 5.12 5.9 1.08 1.18-1.47 1.36-1.1-1.2-5.16-5.97-4.07-5.23-3.3-4.72-2.74-4.4-2.34-4.2-2-4.13-1.76-4.12-.17-.45h2.15zm-8.52-48.05l-.04 2.16.37 10.3.67 7.4.4 2.85h-2.02l-.37-2.62-.67-7.5-.36-10.4.04-2.2zM568.73 590.3l-9.27-.2 4.9-14.16z"/><path d="M570.08 591.3l-12.02-.2 6.36-18.4zm-9.23-2.16l6.52.12-3.07-10.1zM594.64 669.1l-.26.18-1.22 1.16-.68-.82 1.53-1.28z"/><use xlink:href="#i" transform="matrix(1,0,0,1,515.1006448900399,613.6463353616565) translate(0 14.4)"/><use xlink:href="#j" transform="matrix(1,0,0,1,515.1006448900399,613.6463353616565) translate(61.900000000000006 14.4)"/><path d="M430.76 472.6l2.03 2.17 2.26 2.17 2.23 1.93 2.2 1.73 2.24 1.56 2.25 1.4 2.3 1.3 2.36 1.17 2.47 1.07 2.6.98 2.8.88 3.04.8 3.38.7 3.88.6 4.67.5 6.07.33h9.96l13.14-.4" stroke="#000" stroke-width="2" fill="none"/><path d="M434.1 469.33l-7.5 5.43-4.6-14.28z"/><path d="M435.8 469.34l-9.74 7.04-5.96-18.52zm-8.68 3.8l5.28-3.8-8.5-6.24zM515.66 491.08l-14.12 5.04-.27-9.26z"/><path d="M518.9 490.98l-18.32 6.55-.35-12.02zm-16.4 3.74l9.93-3.55-10.12-2.96z"/><path d="M502.7 772.02l-42.5 8.96-.4-1.96 42.03-8.86h8.02zm69.22-38.77l-4.73 4.48-6.44 5.62-5.6 4.5-.98.7h-3.38l3.15-2.3 5.53-4.43 6.37-5.57 4.7-4.45zM575.04 735.25l-6.6-6.5 13.32-6.9z" fill="#3aa6dd"/><path d="M575.32 736.93l-8.56-8.44 17.27-8.96zm-5.2-7.93l4.64 4.58 4.73-9.43z" fill="#3aa6dd"/><use xlink:href="#k" transform="matrix(1,0,0,1,486.3702329376032,748.5630560451) translate(0 14.4)"/><use xlink:href="#l" transform="matrix(1,0,0,1,486.3702329376032,748.5630560451) translate(58.95 14.4)"/><path d="M1046.3 340.36l-21.62 20.78-1.38-1.44 21.56-20.74 6.26-6.74h2.73zm54.58-79.88l-6.4 11.83-12.07 20.9-8.1 12.7-3.34 4.72h-2.45l4.13-5.84 8.07-12.62 12.03-20.82 6.4-11.82zM1026.68 364.27l-13.5 6.54 7.07-13.22z" fill="#3aa6dd"/><path d="M1028.35 364.57l-17.5 8.5 9.17-17.17zm-12.84 4l9.5-4.6-4.52-4.7z" fill="#3aa6dd"/><use xlink:href="#k" transform="matrix(1,0,0,1,1018.2370217415137,310.6244182163027) translate(0 14.4)"/><use xlink:href="#m" transform="matrix(1,0,0,1,1018.2370217415137,310.6244182163027) translate(58.95 14.4)"/><path d="M797.98 365.64l-1.82.85-13-28.06h2.2zM723 288.5l7.33 2.17 6.22 2.2 5.38 2.2 4.72 2.22 4.2 2.23 3.78 2.28 3.45 2.32 3.17 2.37 2.95 2.44 2.78 2.55 2.65 2.68 2.36 2.66h-2.68l-1.15-1.3-2.58-2.6-2.7-2.5-2.9-2.38-3.08-2.3-3.36-2.27-3.7-2.23-4.1-2.2-4.64-2.17-5.28-2.17-6.13-2.16-7.2-2.14-6.93-1.68.47-1.94z"/><path d="M798.32 366.4l-1.64 1.2-.52-1.1 1.82-.86zM714.25 292.2l-13.2-7.13 14.88-1.98z"/><path d="M715 293.74l-17.12-9.26 19.28-2.57zm-10.76-8.1l9.28 5.03 1.18-6.4z"/><use xlink:href="#n" transform="matrix(1,0,0,1,717.6962298606192,316.8393405816008) translate(0 14.4)"/><use xlink:href="#o" transform="matrix(1,0,0,1,717.6962298606192,316.8393405816008) translate(74.85000000000001 14.4)"/><path d="M593.35 381.36l1.53 11.24.3 1.54-1.98.37-.3-1.58-1.53-11.34-.2-2.15h2.02zm27.73-69.8l-3.64 2.6-3.12 2.47-2.72 2.38-2.4 2.3-2.1 2.27-1.9 2.24-1.7 2.23-1.55 2.22-1.4 2.26-1.28 2.3-1.16 2.36-1.05 2.44-.96 2.55-.87 2.7-.77 2.88-.67 3.1-.56 3.42-.4 3.58h-2.02l.44-3.86.57-3.5.7-3.2.78-2.98.9-2.8 1-2.65 1.1-2.53 1.2-2.45 1.32-2.38 1.45-2.34 1.6-2.3 1.77-2.3 1.96-2.32 2.2-2.33 2.45-2.37 2.8-2.44 3.2-2.54 3.67-2.63z"/><path d="M621.63 311.1l-.5.42-1.26-1.55 1.2-.98zM596.93 409.07l-7.17-13.18 9.12-1.7z"/><path d="M597.52 412.25l-9.3-17.1 11.83-2.2zm-6.22-15.62l5.03 9.26 1.38-10.47z"/><use xlink:href="#n" transform="matrix(1,0,0,1,530.6087637901031,357.825166155705) translate(0 14.4)"/><use xlink:href="#o" transform="matrix(1,0,0,1,530.6087637901031,357.825166155705) translate(74.85000000000001 14.4)"/><path d="M847.64 492.43l-5.4-4-4.37-3.86-3.63-3.77-3.06-3.75-2.6-3.8-2.2-3.9-1.88-4.05-1.57-4.3-.55-1.98" stroke="#000" stroke-width="2" fill="none"/><path d="M860.73 499.73l-14.72-2.9 4.53-8.1z"/><path d="M863.55 501.3l-19.08-3.76 5.85-10.5zm-16-5.2l10.35 2.05-7.17-7.73zM826.9 457.74l-9.2 1.22 2.72-14.75z"/><path d="M828.4 458.55l-11.93 1.58L820 441zm-9.47-.76l6.47-.87-4.55-9.5z"/><path d="M952.2 492.2l3.78-2.78 5.3-4.6 4.1-4.2 3.26-3.97 2.68-3.86 2.24-3.87 1.87-3.93 1.55-4.1.55-1.9" stroke="#000" stroke-width="2" fill="none"/><path d="M954.1 496.5l-14.52 3.8 9.5-11.6z"/><path d="M955.67 497.12l-18.82 4.93L949.18 487zm-13.37 1.43l10.2-2.67-3.52-5.5zM982.2 458.97l-9.17-1.26 6.53-13.5z"/><path d="M983.44 460.15l-11.9-1.64L980 441zm-8.92-3.24l6.46.9-1.86-10.4z"/><path d="M1120 728c0 6.63-26.86 12-60 12s-60-5.37-60-12v-96c0-6.63 26.86-12 60-12s60 5.37 60 12z" stroke="#000" stroke-width="2" fill="#fff"/><path d="M1120 632c0 6.63-26.86 12-60 12s-60-5.37-60-12" stroke="#000" stroke-width="2" fill="none"/><use xlink:href="#d" transform="matrix(1,0,0,1,1005,649) translate(17.074999999999996 46.6)"/><path d="M773.63 436.8l-15.92 11.33-8.93 5.63-6.83 3.85-5.88 2.98-5.38 2.4-5.13 2.02-5.04 1.72-5.07 1.46-5.23 1.25-5.5 1.04-5.6.8" stroke="#000" stroke-width="2" fill="none"/><path d="M776.9 440.15l-5.37-7.55 14.3-4.5z"/><path d="M776.9 441.85l-6.98-9.8 18.56-5.83zm-3.75-8.7l3.78 5.3 6.28-8.47zM698.64 475.94l-14.5-3.8 13.97-5.46z"/><path d="M699.72 477.26l-18.82-4.94 18.12-7.07zm-12.36-5.3l10.2 2.66-.37-6.5zM872.6 605.58l-1.75 3.85-1.82-.83 1.7-3.73 2.23-7.2h2.1zm14.45-46.76l-5.32 17.24h-2.1l5.5-17.83z"/><path d="M887.34 557.88l-.3.94-1.9-.6.3-.96zM873.7 611.83l-10.8 10.4 2.6-14.76z"/><path d="M875.38 611.6l-14 13.5 3.4-19.16zm-10.96 7.78l7.6-7.32-5.76-3.06z"/><use xlink:href="#p" transform="matrix(1,0,0,1,823.4184709659437,576.0642750968979) translate(0 14.4)"/><use xlink:href="#q" transform="matrix(1,0,0,1,823.4184709659437,576.0642750968979) translate(69.9 14.4)"/><path d="M661.7 716.96l3.6 1.88 3.77 1.78 3.98 1.67 4.2 1.55 4.43 1.44 4.67 1.3 4.26 1v2.05l-4.75-1.12-4.75-1.32-4.5-1.46-4.28-1.6-4.07-1.7-3.85-1.8-3.66-1.92-3.46-2 1-1.73zm141.38-10.63l-.26.2-2.93 2.24-3.26 2.25-3.6 2.28-3.94 2.28-4.32 2.26-3.12 1.47h-4.98l2.6-1.08 4.6-2.17 4.26-2.22 3.88-2.24 3.52-2.24 3.18-2.2 2.86-2.18.23-.2z"/><path d="M658.22 714.96l-.9 1.8-.86-.45.77-1.65.06-.16zM806.24 708.3l-6.64-6.46 13.26-7z"/><path d="M806.53 709.98l-8.62-8.38 17.22-9.08zm-5.25-7.9l4.67 4.55 4.66-9.47z"/><g><use xlink:href="#r" transform="matrix(1,0,0,1,690.611456133587,719.3063361171372) translate(0 14.4)"/><use xlink:href="#q" transform="matrix(1,0,0,1,690.611456133587,719.3063361171372) translate(61.900000000000006 14.4)"/></g><path d="M890.17 691.32l1.05.56 5.85 2.85 5.02 2.2 4.45 1.72 4.06 1.38 3.8 1.1 3.57.9 3.42.7 3.3.53 3.25.4 3.2.23 3.22.1 3.23-.02 3.3-.17 3.37-.3 3.5-.47 3.67-.65 3.88-.86 4.15-1.1 4.5-1.4 4.95-1.77 5.53-2.24 6.3-2.87 2.26-1.14" stroke="#000" stroke-width="2" fill="none"/><path d="M891.85 686.94l-4.62 8.03-10.06-11.13z"/><path d="M893.4 686.24l-6 10.43-13.03-14.44zm-6.35 7.04l3.25-5.65-10.32-2.17zM985.88 694.7l-4.46-8.13 14.74-2.78z"/><path d="M985.66 696.4l-5.77-10.55 19.1-3.62zm-2.7-9.1l3.13 5.72 7.22-7.68z"/><defs><path d="M205 0l-28-72H64L36 0H1l101-248h38L239 0h-34zm-38-99l-47-123c-12 45-31 82-46 123h93" id="s"/><path d="M177-190C167-65 218 103 67 71c-23-6-38-20-44-43l32-5c15 47 100 32 89-28v-30C133-14 115 1 83 1 29 1 15-40 15-95c0-56 16-97 71-98 29-1 48 16 59 35 1-10 0-23 2-32h30zM94-22c36 0 50-32 50-73 0-42-14-75-50-75-39 0-46 34-46 75s6 73 46 73" id="t"/><path d="M100-194c63 0 86 42 84 106H49c0 40 14 67 53 68 26 1 43-12 49-29l28 8c-11 28-37 45-77 45C44 4 14-33 15-96c1-61 26-98 85-98zm52 81c6-60-76-77-97-28-3 7-6 17-6 28h103" id="u"/><path d="M117-194c89-4 53 116 60 194h-32v-121c0-31-8-49-39-48C34-167 62-67 57 0H25l-1-190h30c1 10-1 24 2 32 11-22 29-35 61-36" id="v"/><path d="M59-47c-2 24 18 29 38 22v24C64 9 27 4 27-40v-127H5v-23h24l9-43h21v43h35v23H59v120" id="w"/><g id="a"><use transform="matrix(0.05,0,0,0.05,0,0)" xlink:href="#s"/><use transform="matrix(0.05,0,0,0.05,12,0)" xlink:href="#t"/><use transform="matrix(0.05,0,0,0.05,22,0)" xlink:href="#u"/><use transform="matrix(0.05,0,0,0.05,32,0)" xlink:href="#v"/><use transform="matrix(0.05,0,0,0.05,42,0)" xlink:href="#w"/></g><path d="M140-251c81 0 123 46 123 126C263-46 219 4 140 4 59 4 17-45 17-125s42-126 123-126zm0 227c63 0 89-41 89-101s-29-99-89-99c-61 0-89 39-89 99S79-25 140-24" id="x"/><path d="M114-163C36-179 61-72 57 0H25l-1-190h30c1 12-1 29 2 39 6-27 23-49 58-41v29" id="y"/><path d="M24-231v-30h32v30H24zM24 0v-190h32V0H24" id="z"/><g id="b"><use transform="matrix(0.05,0,0,0.05,0,0)" xlink:href="#x"/><use transform="matrix(0.05,0,0,0.05,14,0)" xlink:href="#y"/><use transform="matrix(0.05,0,0,0.05,19.95,0)" xlink:href="#z"/><use transform="matrix(0.05,0,0,0.05,23.9,0)" xlink:href="#t"/><use transform="matrix(0.05,0,0,0.05,33.9,0)" xlink:href="#z"/><use transform="matrix(0.05,0,0,0.05,37.85,0)" xlink:href="#v"/></g><path d="M127-220V0H93v-220H8v-28h204v28h-85" id="A"/><path d="M141-36C126-15 110 5 73 4 37 3 15-17 15-53c-1-64 63-63 125-63 3-35-9-54-41-54-24 1-41 7-42 31l-33-3c5-37 33-52 76-52 45 0 72 20 72 64v82c-1 20 7 32 28 27v20c-31 9-61-2-59-35zM48-53c0 20 12 33 32 33 41-3 63-29 60-74-43 2-92-5-92 41" id="B"/><path d="M96-169c-40 0-48 33-48 73s9 75 48 75c24 0 41-14 43-38l32 2c-6 37-31 61-74 61-59 0-76-41-82-99-10-93 101-131 147-64 4 7 5 14 7 22l-32 3c-4-21-16-35-41-35" id="C"/><path d="M143 0L79-87 56-68V0H24v-261h32v163l83-92h37l-77 82L181 0h-38" id="D"/><g id="c"><use transform="matrix(0.05,0,0,0.05,0,0)" xlink:href="#A"/><use transform="matrix(0.05,0,0,0.05,10.3,0)" xlink:href="#y"/><use transform="matrix(0.05,0,0,0.05,16.25,0)" xlink:href="#B"/><use transform="matrix(0.05,0,0,0.05,26.25,0)" xlink:href="#C"/><use transform="matrix(0.05,0,0,0.05,35.25,0)" xlink:href="#D"/><use transform="matrix(0.05,0,0,0.05,44.25,0)" xlink:href="#u"/><use transform="matrix(0.05,0,0,0.05,54.25,0)" xlink:href="#y"/></g><path d="M185-189c-5-48-123-54-124 2 14 75 158 14 163 119 3 78-121 87-175 55-17-10-28-26-33-46l33-7c5 56 141 63 141-1 0-78-155-14-162-118-5-82 145-84 179-34 5 7 8 16 11 25" id="E"/><path d="M126-127c33 6 58 20 58 59 0 88-139 92-164 29-3-8-5-16-6-25l32-3c6 27 21 44 54 44 32 0 52-15 52-46 0-38-36-46-79-43v-28c39 1 72-4 72-42 0-27-17-43-46-43-28 0-47 15-49 41l-32-3c6-42 35-63 81-64 48-1 79 21 79 65 0 36-21 52-52 59" id="F"/><path d="M0 4l72-265h28L28 4H0" id="G"/><path d="M197 0v-115H63V0H30v-248h33v105h134v-105h34V0h-34" id="H"/><path d="M30-248c118-7 216 8 213 122C240-48 200 0 122 0H30v-248zM63-27c89 8 146-16 146-99s-60-101-146-95v194" id="I"/><path d="M63-220v92h138v28H63V0H30v-248h175v28H63" id="J"/><g id="d"><use transform="matrix(0.05,0,0,0.05,0,0)" xlink:href="#E"/><use transform="matrix(0.05,0,0,0.05,12,0)" xlink:href="#F"/><use transform="matrix(0.05,0,0,0.05,22,0)" xlink:href="#G"/><use transform="matrix(0.05,0,0,0.05,27,0)" xlink:href="#H"/><use transform="matrix(0.05,0,0,0.05,39.95,0)" xlink:href="#I"/><use transform="matrix(0.05,0,0,0.05,52.900000000000006,0)" xlink:href="#J"/><use transform="matrix(0.05,0,0,0.05,63.85,0)" xlink:href="#E"/></g><path d="M30-248c87 1 191-15 191 75 0 78-77 80-158 76V0H30v-248zm33 125c57 0 124 11 124-50 0-59-68-47-124-48v98" id="K"/><path d="M101-251c82-7 93 87 43 132L82-64C71-53 59-42 53-27h129V0H18c2-99 128-94 128-182 0-28-16-43-45-43s-46 15-49 41l-32-3c6-41 34-60 81-64" id="L"/><g id="e"><use transform="matrix(0.05,0,0,0.05,0,0)" xlink:href="#K"/><use transform="matrix(0.05,0,0,0.05,12,0)" xlink:href="#L"/><use transform="matrix(0.05,0,0,0.05,22,0)" xlink:href="#K"/></g><path d="M100-194c62-1 85 37 85 99 1 63-27 99-86 99S16-35 15-95c0-66 28-99 85-99zM99-20c44 1 53-31 53-75 0-43-8-75-51-75s-53 32-53 75 10 74 51 75" id="M"/><path d="M141 0L90-78 38 0H4l68-98-65-92h35l48 74 47-74h35l-64 92 68 98h-35" id="N"/><path d="M179-190L93 31C79 59 56 82 12 73V49c39 6 53-20 64-50L1-190h34L92-34l54-156h33" id="O"/><g id="f"><use transform="matrix(0.05,0,0,0.05,0,0)" xlink:href="#K"/><use transform="matrix(0.05,0,0,0.05,12,0)" xlink:href="#y"/><use transform="matrix(0.05,0,0,0.05,17.95,0)" xlink:href="#M"/><use transform="matrix(0.05,0,0,0.05,27.950000000000003,0)" xlink:href="#N"/><use transform="matrix(0.05,0,0,0.05,36.95,0)" xlink:href="#O"/></g><path d="M160-131c35 5 61 23 61 61C221 17 115-2 30 0v-248c76 3 177-17 177 60 0 33-19 50-47 57zm-97-11c50-1 110 9 110-42 0-47-63-36-110-37v79zm0 115c55-2 124 14 124-45 0-56-70-42-124-44v89" id="P"/><path d="M84 4C-5 8 30-112 23-190h32v120c0 31 7 50 39 49 72-2 45-101 50-169h31l1 190h-30c-1-10 1-25-2-33-11 22-28 36-60 37" id="Q"/><path d="M24 0v-261h32V0H24" id="R"/><path d="M85-194c31 0 48 13 60 33l-1-100h32l1 261h-30c-2-10 0-23-3-31C134-8 116 4 85 4 32 4 16-35 15-94c0-66 23-100 70-100zm9 24c-40 0-46 34-46 75 0 40 6 74 45 74 42 0 51-32 51-76 0-42-9-74-50-73" id="S"/><g id="g"><use transform="matrix(0.05,0,0,0.05,0,0)" xlink:href="#P"/><use transform="matrix(0.05,0,0,0.05,12,0)" xlink:href="#Q"/><use transform="matrix(0.05,0,0,0.05,22,0)" xlink:href="#z"/><use transform="matrix(0.05,0,0,0.05,25.950000000000003,0)" xlink:href="#R"/><use transform="matrix(0.05,0,0,0.05,29.899999999999995,0)" xlink:href="#S"/></g><path d="M33 0v-248h34V0H33" id="T"/><g id="h"><use transform="matrix(0.05,0,0,0.05,0,0)" xlink:href="#T"/><use transform="matrix(0.05,0,0,0.05,5,0)" xlink:href="#v"/><use transform="matrix(0.05,0,0,0.05,15,0)" xlink:href="#S"/><use transform="matrix(0.05,0,0,0.05,25,0)" xlink:href="#u"/><use transform="matrix(0.05,0,0,0.05,35,0)" xlink:href="#N"/></g><path d="M232-93c-1 65-40 97-104 97C67 4 28-28 28-90v-158h33c8 89-33 224 67 224 102 0 64-133 71-224h33v155" id="U"/><path d="M115-194c55 1 70 41 70 98S169 2 115 4C84 4 66-9 55-30l1 105H24l-1-265h31l2 30c10-21 28-34 59-34zm-8 174c40 0 45-34 45-75s-6-73-45-74c-42 0-51 32-51 76 0 43 10 73 51 73" id="V"/><g id="i"><use transform="matrix(0.05,0,0,0.05,0,0)" xlink:href="#U"/><use transform="matrix(0.05,0,0,0.05,12.950000000000001,0)" xlink:href="#V"/><use transform="matrix(0.05,0,0,0.05,22.950000000000003,0)" xlink:href="#R"/><use transform="matrix(0.05,0,0,0.05,26.900000000000002,0)" xlink:href="#M"/><use transform="matrix(0.05,0,0,0.05,36.900000000000006,0)" xlink:href="#B"/><use transform="matrix(0.05,0,0,0.05,46.900000000000006,0)" xlink:href="#S"/></g><path d="M115-194c53 0 69 39 70 98 0 66-23 100-70 100C84 3 66-7 56-30L54 0H23l1-261h32v101c10-23 28-34 59-34zm-8 174c40 0 45-34 45-75 0-40-5-75-45-74-42 0-51 32-51 76 0 43 10 73 51 73" id="W"/><path d="M135-143c-3-34-86-38-87 0 15 53 115 12 119 90S17 21 10-45l28-5c4 36 97 45 98 0-10-56-113-15-118-90-4-57 82-63 122-42 12 7 21 19 24 35" id="X"/><g id="j"><use transform="matrix(0.05,0,0,0.05,0,0)" xlink:href="#W"/><use transform="matrix(0.05,0,0,0.05,10,0)" xlink:href="#R"/><use transform="matrix(0.05,0,0,0.05,13.949999999999998,0)" xlink:href="#M"/><use transform="matrix(0.05,0,0,0.05,23.95,0)" xlink:href="#W"/><use transform="matrix(0.05,0,0,0.05,33.95,0)" xlink:href="#X"/></g><path fill="#3aa6dd" d="M85-194c31 0 48 13 60 33l-1-100h32l1 261h-30c-2-10 0-23-3-31C134-8 116 4 85 4 32 4 16-35 15-94c0-66 23-100 70-100zm9 24c-40 0-46 34-46 75 0 40 6 74 45 74 42 0 51-32 51-76 0-42-9-74-50-73" id="Y"/><path fill="#3aa6dd" d="M100-194c62-1 85 37 85 99 1 63-27 99-86 99S16-35 15-95c0-66 28-99 85-99zM99-20c44 1 53-31 53-75 0-43-8-75-51-75s-53 32-53 75 10 74 51 75" id="Z"/><path fill="#3aa6dd" d="M96-169c-40 0-48 33-48 73s9 75 48 75c24 0 41-14 43-38l32 2c-6 37-31 61-74 61-59 0-76-41-82-99-10-93 101-131 147-64 4 7 5 14 7 22l-32 3c-4-21-16-35-41-35" id="aa"/><path fill="#3aa6dd" d="M143 0L79-87 56-68V0H24v-261h32v163l83-92h37l-77 82L181 0h-38" id="ab"/><path fill="#3aa6dd" d="M100-194c63 0 86 42 84 106H49c0 40 14 67 53 68 26 1 43-12 49-29l28 8c-11 28-37 45-77 45C44 4 14-33 15-96c1-61 26-98 85-98zm52 81c6-60-76-77-97-28-3 7-6 17-6 28h103" id="ac"/><path fill="#3aa6dd" d="M114-163C36-179 61-72 57 0H25l-1-190h30c1 12-1 29 2 39 6-27 23-49 58-41v29" id="ad"/><g id="k"><use transform="matrix(0.05,0,0,0.05,0,0)" xlink:href="#Y"/><use transform="matrix(0.05,0,0,0.05,10,0)" xlink:href="#Z"/><use transform="matrix(0.05,0,0,0.05,20,0)" xlink:href="#aa"/><use transform="matrix(0.05,0,0,0.05,29,0)" xlink:href="#ab"/><use transform="matrix(0.05,0,0,0.05,38,0)" xlink:href="#ac"/><use transform="matrix(0.05,0,0,0.05,48,0)" xlink:href="#ad"/></g><path fill="#3aa6dd" d="M115-194c55 1 70 41 70 98S169 2 115 4C84 4 66-9 55-30l1 105H24l-1-265h31l2 30c10-21 28-34 59-34zm-8 174c40 0 45-34 45-75s-6-73-45-74c-42 0-51 32-51 76 0 43 10 73 51 73" id="ae"/><path fill="#3aa6dd" d="M84 4C-5 8 30-112 23-190h32v120c0 31 7 50 39 49 72-2 45-101 50-169h31l1 190h-30c-1-10 1-25-2-33-11 22-28 36-60 37" id="af"/><path fill="#3aa6dd" d="M135-143c-3-34-86-38-87 0 15 53 115 12 119 90S17 21 10-45l28-5c4 36 97 45 98 0-10-56-113-15-118-90-4-57 82-63 122-42 12 7 21 19 24 35" id="ag"/><path fill="#3aa6dd" d="M106-169C34-169 62-67 57 0H25v-261h32l-1 103c12-21 28-36 61-36 89 0 53 116 60 194h-32v-121c2-32-8-49-39-48" id="ah"/><g id="l"><use transform="matrix(0.05,0,0,0.05,0,0)" xlink:href="#ae"/><use transform="matrix(0.05,0,0,0.05,10,0)" xlink:href="#af"/><use transform="matrix(0.05,0,0,0.05,20,0)" xlink:href="#ag"/><use transform="matrix(0.05,0,0,0.05,29,0)" xlink:href="#ah"/></g><path fill="#3aa6dd" d="M24 0v-261h32V0H24" id="ai"/><g id="m"><use transform="matrix(0.05,0,0,0.05,0,0)" xlink:href="#ae"/><use transform="matrix(0.05,0,0,0.05,10,0)" xlink:href="#af"/><use transform="matrix(0.05,0,0,0.05,20,0)" xlink:href="#ai"/><use transform="matrix(0.05,0,0,0.05,23.95,0)" xlink:href="#ai"/></g><path d="M108 0H70L1-190h34L89-25l56-165h34" id="aj"/><g id="n"><use transform="matrix(0.05,0,0,0.05,0,0)" xlink:href="#I"/><use transform="matrix(0.05,0,0,0.05,12.950000000000001,0)" xlink:href="#z"/><use transform="matrix(0.05,0,0,0.05,16.900000000000002,0)" xlink:href="#X"/><use transform="matrix(0.05,0,0,0.05,25.900000000000002,0)" xlink:href="#C"/><use transform="matrix(0.05,0,0,0.05,34.900000000000006,0)" xlink:href="#M"/><use transform="matrix(0.05,0,0,0.05,44.900000000000006,0)" xlink:href="#aj"/><use transform="matrix(0.05,0,0,0.05,53.900000000000006,0)" xlink:href="#u"/><use transform="matrix(0.05,0,0,0.05,63.900000000000006,0)" xlink:href="#y"/></g><g id="o"><use transform="matrix(0.05,0,0,0.05,0,0)" xlink:href="#K"/><use transform="matrix(0.05,0,0,0.05,12,0)" xlink:href="#u"/><use transform="matrix(0.05,0,0,0.05,22,0)" xlink:href="#u"/><use transform="matrix(0.05,0,0,0.05,32,0)" xlink:href="#y"/><use transform="matrix(0.05,0,0,0.05,37.95,0)" xlink:href="#X"/></g><path d="M233-177c-1 41-23 64-60 70L243 0h-38l-65-103H63V0H30v-248c88 3 205-21 203 71zM63-129c60-2 137 13 137-47 0-61-80-42-137-45v92" id="ak"/><g id="p"><use transform="matrix(0.05,0,0,0.05,0,0)" xlink:href="#ak"/><use transform="matrix(0.05,0,0,0.05,12.950000000000001,0)" xlink:href="#u"/><use transform="matrix(0.05,0,0,0.05,22.950000000000003,0)" xlink:href="#X"/><use transform="matrix(0.05,0,0,0.05,31.950000000000003,0)" xlink:href="#M"/><use transform="matrix(0.05,0,0,0.05,41.95,0)" xlink:href="#R"/><use transform="matrix(0.05,0,0,0.05,45.900000000000006,0)" xlink:href="#aj"/><use transform="matrix(0.05,0,0,0.05,54.900000000000006,0)" xlink:href="#u"/></g><g id="q"><use transform="matrix(0.05,0,0,0.05,0,0)" xlink:href="#A"/><use transform="matrix(0.05,0,0,0.05,8.950000000000001,0)" xlink:href="#B"/><use transform="matrix(0.05,0,0,0.05,18.950000000000003,0)" xlink:href="#t"/><use transform="matrix(0.05,0,0,0.05,28.950000000000003,0)" xlink:href="#X"/></g><g id="r"><use transform="matrix(0.05,0,0,0.05,0,0)" xlink:href="#U"/><use transform="matrix(0.05,0,0,0.05,12.950000000000001,0)" xlink:href="#V"/><use transform="matrix(0.05,0,0,0.05,22.950000000000003,0)" xlink:href="#R"/><use transform="matrix(0.05,0,0,0.05,26.900000000000002,0)" xlink:href="#M"/><use transform="matrix(0.05,0,0,0.05,36.900000000000006,0)" xlink:href="#B"/><use transform="matrix(0.05,0,0,0.05,46.900000000000006,0)" xlink:href="#S"/></g></defs></g></svg>