<svg xmlns="http://www.w3.org/2000/svg" xmlns:xlink="http://www.w3.org/1999/xlink" xmlns:lucid="lucid" width="1722" height="1318.67"><g transform="translate(-429.6666666667055 -32.33333332852623)" lucid:page-tab-id="0_0"><path d="M838.67 256.67a6 6 0 0 1 6-6h148a6 6 0 0 1 6 6v148a6 6 0 0 1-6 6h-148a6 6 0 0 1-6-6z" stroke="#3a414a" stroke-width="2" fill="#fff"/><use xlink:href="#a" transform="matrix(1,0,0,1,843.6666666666665,255.66666666666686) translate(37.8395061728395 78.71527777777777)"/><path d="M997.33 640c0 30.93-24.47 56-54.66 56-30.2 0-54.67-25.07-54.67-56s24.48-56 54.67-56c30.2 0 54.66 25.07 54.66 56z" stroke="#3a414a" stroke-width="2" fill="#fff"/><use xlink:href="#b" transform="matrix(1,0,0,1,893,589) translate(20.462962962962965 56.02777777777778)"/><path d="M974.67 640c0 30.93-24.48 56-54.67 56-30.2 0-54.67-25.07-54.67-56s24.48-56 54.67-56c30.2 0 54.67 25.07 54.67 56z" stroke="#3a414a" stroke-width="2" fill="#fff"/><use xlink:href="#b" transform="matrix(1,0,0,1,870.3333333333333,589) translate(20.462962962962965 56.02777777777778)"/><path d="M950.67 640c0 30.93-24.48 56-54.67 56-30.2 0-54.67-25.07-54.67-56s24.48-56 54.67-56c30.2 0 54.67 25.07 54.67 56z" stroke="#3a414a" stroke-width="2" fill="#fff"/><use xlink:href="#b" transform="matrix(1,0,0,1,846.3333333333335,589) translate(20.462962962962965 56.02777777777778)"/><path d="M609.33 712.53c0 10.02-40 18.14-89.33 18.14-49.34 0-89.33-8.12-89.33-18.14V567.47c0-10.02 40-18.14 89.33-18.14 49.34 0 89.33 8.12 89.33 18.14z" stroke="#3a414a" stroke-width="2" fill="#fff"/><path d="M609.33 567.47c0 10-40 18.13-89.33 18.13-49.34 0-89.33-8.12-89.33-18.13" stroke="#3a414a" stroke-width="2" fill="none"/><use xlink:href="#c" transform="matrix(1,0,0,1,435.6666666667055,590.5999999999999) translate(36.413580246913575 60.27777777777778)"/><use xlink:href="#d" transform="matrix(1,0,0,1,435.6666666667055,590.5999999999999) translate(3.2037037037037095 86.94444444444446)"/><path d="M624.82 640h201.02" stroke="#3a414a" fill="none"/><path d="M611.33 640l13-7.5v15zM839.33 640l-13 7.5v-15z" stroke="#3a414a" fill="#3a414a"/><path d="M919.14 573.47h-.95v-63h.94zm0-84.32h-.95v-63h.94z" stroke="#3a414a" stroke-width=".05" fill="#3a414a"/><path d="M926.17 425.66h-15l7.5-13z" fill="#3a414a"/><path d="M927 426.13h-16.66l8.33-14.4zm-15-.95h13.34l-6.67-11.56z" stroke="#3a414a" stroke-width=".05" fill="#3a414a"/><path d="M918.67 586.96l-7.5-13h15z" fill="#3a414a"/><path d="M918.67 587.9l-8.33-14.4H927zM912 574.46l6.67 11.56 6.67-11.55z" stroke="#3a414a" stroke-width=".05" fill="#3a414a"/><use xlink:href="#e" transform="matrix(1,0,0,1,867.8518518518517,489.14696800303057) translate(0 14.222222222222223)"/><use xlink:href="#f" transform="matrix(1,0,0,1,867.8518518518517,489.14696800303057) translate(34.51851851851852 14.222222222222223)"/><path d="M1139.3 640.48H998.82v-.96h140.46zm168.88 0H1181.7v-.96h126.48z" stroke="#3a414a" stroke-width=".05" fill="#3a414a"/><path d="M998.85 640.48h-.54l.03-.47v-.48h.52z" fill="#3a414a"/><path stroke="#3a414a" stroke-width=".05" fill="#3a414a"/><path d="M1321.67 640l-13 7.5v-15z" fill="#3a414a"/><path d="M1322.62 640l-14.42 8.32v-16.64zm-13.47 6.68l11.57-6.68-11.57-6.68z" stroke="#3a414a" stroke-width=".05" fill="#3a414a"/><use xlink:href="#g" transform="matrix(1,0,0,1,1139.2902977432857,629.3333333333571) translate(0 14.222222222222223)"/><path d="M1119.04 331.14h-104.88v-.95h104.88zm187.8 0h-104.88v-.95h104.88z" stroke="#3a414a" stroke-width=".05" fill="#3a414a"/><path d="M1013.66 338.17l-13-7.5 13-7.5z" fill="#3a414a"/><path d="M1014.13 339l-14.4-8.33 14.4-8.33zm-12.5-8.33l11.55 6.67V324z" stroke="#3a414a" stroke-width=".05" fill="#3a414a"/><path d="M1320.33 330.67l-13 7.5v-15z" fill="#3a414a"/><path d="M1321.28 330.67l-14.4 8.32v-16.66zm-13.46 6.67l11.56-6.67-11.56-6.68z" stroke="#3a414a" stroke-width=".05" fill="#3a414a"/><use xlink:href="#e" transform="matrix(1,0,0,1,1119.0431848765434,320.00000000000006) translate(0 14.222222222222223)"/><use xlink:href="#h" transform="matrix(1,0,0,1,1119.0431848765434,320.00000000000006) translate(34.51851851851852 14.222222222222223)"/><path d="M838.67 914a6 6 0 0 1 6-6h148a6 6 0 0 1 6 6v148a6 6 0 0 1-6 6h-148a6 6 0 0 1-6-6z" stroke="#3a414a" stroke-width="2" fill="#fff"/><use xlink:href="#i" transform="matrix(1,0,0,1,843.6666666666665,913.0000000000005) translate(46.635802469135804 78.71527777777777)"/><path d="M919.14 906.5h-.95v-93.86h.94zm0-115.2h-.95v-77.97h.94z" stroke="#3a414a" stroke-width=".05" fill="#3a414a"/><path d="M919.14 907h-.95v-.5h.94z" fill="#3a414a"/><path stroke="#3a414a" stroke-width=".05" fill="#3a414a"/><path d="M923.3 712.83h-9.27l4.64-14.27z" fill="#3a414a"/><path d="M923.96 713.3h-10.58l5.3-16.28zm-9.28-.95h7.97l-3.98-12.25z" stroke="#3a414a" stroke-width=".05" fill="#3a414a"/><use xlink:href="#j" transform="matrix(1,0,0,1,877.3086419753085,791.3041443521817) translate(0 14.222222222222223)"/><use xlink:href="#k" transform="matrix(1,0,0,1,877.3086419753085,791.3041443521817) translate(33.48148148148148 14.222222222222223)"/><path d="M635.56 990.14h-65.73v-.95h65.73zm187.62 0h-82.2v-.95h82.2z" stroke="#3a414a" stroke-width=".05" fill="#3a414a"/><path d="M569.85 990.14h-.52v-.95h.52z" stroke="#3a414a" stroke-width=".05" fill="#3a414a"/><path d="M836.67 989.67l-13 7.5v-15z" fill="#3a414a"/><path d="M837.62 989.67L823.2 998v-16.66zm-13.47 6.67l11.57-6.67-11.57-6.68z" stroke="#3a414a" stroke-width=".05" fill="#3a414a"/><use xlink:href="#l" transform="matrix(1,0,0,1,635.5580922251066,979.0000000000001) translate(0 14.222222222222223)"/><use xlink:href="#m" transform="matrix(1,0,0,1,635.5580922251066,979.0000000000001) translate(63.11111111111112 14.222222222222223)"/><path d="M1573.33 914a6 6 0 0 1 6-6h148a6 6 0 0 1 6 6v148a6 6 0 0 1-6 6h-148a6 6 0 0 1-6-6z" stroke="#3a414a" stroke-width="2" fill="#fff"/><use xlink:href="#n" transform="matrix(1,0,0,1,1578.333333333334,913.0000000000005) translate(20.123456790123456 78.71527777777777)"/><use xlink:href="#o" transform="matrix(1,0,0,1,1578.333333333334,913.0000000000005) translate(75.55555555555556 78.71527777777777)"/><path d="M1249.23 988.48h-249.06v-.96h249.06zm308.6 0h-235.06v-.96h235.07z" stroke="#3a414a" stroke-width=".05" fill="#3a414a"/><path d="M1000.18 988.48h-.5v-.96h.5z" fill="#3a414a"/><path stroke="#3a414a" stroke-width=".05" fill="#3a414a"/><path d="M1571.33 988l-13 7.5v-15z" fill="#3a414a"/><path d="M1572.28 988l-14.4 8.32v-16.64zm-13.46 6.68l11.56-6.68-11.56-6.68z" stroke="#3a414a" stroke-width=".05" fill="#3a414a"/><use xlink:href="#j" transform="matrix(1,0,0,1,1249.2345679012349,977.3333333333338) translate(0 14.222222222222223)"/><use xlink:href="#p" transform="matrix(1,0,0,1,1249.2345679012349,977.3333333333338) translate(33.48148148148148 14.222222222222223)"/><path d="M1653.33 1083.5v169.83a6 6 0 0 1-6 6h-230.5" stroke="#3a414a" fill="none"/><path d="M1653.33 1070l7.5 13h-15zM1403.33 1259.33l13-7.5v15z" stroke="#3a414a" fill="#3a414a"/><path d="M1321.33 39.33a6 6 0 0 1 6-6h817.34a6 6 0 0 1 6 6v725.34a6 6 0 0 1-6 6h-817.34a6 6 0 0 1-6-6z" fill="#fff"/><path d="M1324.6 34l.88-.37.9-.22.95-.07h3m3.98 0h6m3.98 0h5.98m4 0h5.97m3.98 0h6m3.98 0h5.98m4 0h5.97m3.98 0h6m3.98 0h5.98m4 0h5.97m4 0h5.97m3.98 0h6m3.97 0h5.98m4 0h5.97m4 0h5.97m4 0h5.97m3.98 0h5.98m4 0h5.97m4 0h5.97m3.98 0h6m3.97 0h5.97m4 0h5.97m4 0h5.97m4 0h5.98m3.98 0h5.98m4 0h5.97m4 0h5.98m3.98 0h6m3.97 0h5.98m4 0h5.98m4 0h5.97m4 0h5.97m3.98 0h5.98m4 0h5.97m4 0h5.97m3.98 0h5.98m4 0h5.97m4 0h5.97m4 0h5.97m3.98 0h5.98m3.98 0h5.98m4 0h5.97m3.98 0h5.98m3.98 0h5.98m4 0h5.97m3.98 0h5.98m4 0h5.97m4 0h5.97m3.98 0h5.98m4 0h5.97m4 0h5.97m3.98 0h5.98m4 0h5.97m4 0h5.97m4 0h5.97m3.98 0h6m3.97 0h5.98m4 0h5.97m4 0h5.97m3.98 0h5.98m4 0h5.97m4 0h5.97m4 0h5.97m4 0h5.98m3.98 0h5.98m4 0h5.97m4 0h5.98m3.98 0h5.98m4 0h5.97m4 0h5.98m4 0h5.97m3.98 0h6m3.97 0h5.98m4 0h5.97m4 0h5.97m3.98 0h6m3.97 0h5.98m4 0h5.97m4 0h5.97m3.97 0h5.98m4 0h5.97m4 0h5.97m3.98 0h3l.93.08.92.23.87.36m2.6 2.6l.37.88.22.92.07.93v2.98m0 4v5.95m0 3.98v5.96m0 3.96v5.96m0 3.98v5.96m0 3.97V92m0 3.97v5.96m0 3.97v5.97m0 3.97v5.96m0 3.98v5.96m0 3.97v5.98m0 3.97v5.96m0 4v5.95m0 3.97v5.96m0 3.98v5.96m0 3.97v5.95m0 3.98v5.96m0 3.97v5.96m0 3.97v5.96m0 3.98v5.96m0 3.97v5.97m0 3.97v5.97m0 3.98v5.96m0 3.98v5.96m0 3.98v5.96m0 3.97v5.97m0 3.97v5.95m0 3.98v5.96m0 3.96v5.96m0 3.98v5.96m0 3.98v5.96m0 3.97v5.96m0 3.98v5.97m0 3.97v5.96m0 3.98v5.96m0 3.98v5.96m0 3.97V400m0 4v5.95m0 3.97v5.96m0 3.98v5.96m0 3.98v5.96m0 3.97v5.96m0 3.97v5.96m0 3.97v5.96m0 3.98v5.96m0 3.98v5.96m0 3.97v5.97m0 3.98v5.96m0 3.98v5.97m0 3.97v5.96m0 3.98v5.96m0 3.97v5.95m0 3.98V559m0 3.96v5.97m0 3.97v5.96m0 3.98v5.96m0 3.97v5.96m0 3.98v5.97m0 3.98v5.96m0 3.98v5.96m0 3.98v5.96m0 3.97v5.96m0 4v5.95m0 3.98v5.96m0 3.96v5.96m0 3.98v5.96m0 3.97v5.97m0 3.97v5.96m0 3.98v5.97m0 3.97v5.96m0 3.98v5.96m0 3.97v5.98m0 3.97v5.96m0 4v2.97l-.08.94-.23.92-.36.87m-2.6 2.6l-.88.37-.9.22-.95.07h-3m-3.98 0h-6m-3.98 0h-5.98m-4 0h-5.97m-3.98 0h-6m-3.98 0h-5.98m-4 0h-5.97m-3.98 0h-6m-3.98 0h-5.98m-4 0h-5.97m-4 0H2042m-3.98 0h-6m-3.97 0h-5.98m-4 0h-5.97m-4 0h-5.97m-4 0h-5.97m-3.98 0h-5.98m-4 0h-5.97m-4 0h-5.97m-3.98 0h-6m-3.97 0h-5.97m-4 0h-5.97m-4 0h-5.97m-4 0h-5.98m-3.98 0h-5.98m-4 0h-5.97m-4 0h-5.98m-3.98 0h-6m-3.97 0h-5.98m-4 0h-5.98m-4 0h-5.97m-4 0h-5.97m-3.98 0h-5.98m-4 0h-5.97m-4 0h-5.97m-3.98 0h-5.98m-4 0h-5.97m-4 0h-5.97m-4 0h-5.97m-3.98 0h-5.98m-3.98 0h-5.98m-4 0h-5.97m-3.98 0h-5.98m-3.98 0h-5.98m-4 0h-5.97m-3.98 0h-5.98m-4 0h-5.97m-4 0h-5.97m-3.98 0h-5.98m-4 0h-5.97m-4 0h-5.97m-3.98 0h-5.98m-4 0h-5.97m-4 0h-5.97m-4 0h-5.97m-3.98 0h-6m-3.97 0h-5.98m-4 0h-5.97m-4 0h-5.97m-3.98 0h-5.98m-4 0h-5.97m-4 0h-5.97m-4 0h-5.97m-4 0h-5.98m-3.98 0h-5.98m-4 0h-5.97m-4 0h-5.98m-3.98 0h-5.98m-4 0h-5.97m-4 0h-5.98m-4 0h-5.97m-3.98 0h-6m-3.97 0h-5.98m-4 0h-5.97m-4 0h-5.97m-3.98 0h-5.98m-4 0h-5.97m-4 0h-5.97m-4 0h-5.97m-3.97 0h-5.98m-4 0h-5.97m-4 0h-5.97m-3.98 0h-3l-.92-.08-.92-.23-.87-.36m-2.6-2.6l-.37-.88-.22-.9-.07-.95v-2.98m0-4v-5.95m0-3.98v-5.96m0-3.96v-5.96m0-3.98v-5.96m0-3.97V712m0-3.97v-5.96m0-3.98v-5.97m0-3.97v-5.96m0-3.98v-5.96m0-3.97v-5.97m0-3.98v-5.96m0-4v-5.95m0-3.97v-5.96m0-3.98v-5.96m0-3.97v-5.96m0-3.97v-5.96m0-3.97v-5.96m0-3.97v-5.96m0-3.98v-5.96m0-3.97v-5.97m0-3.97v-5.97m0-3.98v-5.96m0-3.98v-5.96m0-3.98v-5.96m0-3.97v-5.97m0-3.97v-5.95m0-3.98v-5.96m0-3.96v-5.96m0-3.98v-5.96m0-3.98v-5.96m0-3.97v-5.96m0-3.98v-5.97m0-3.97v-5.96m0-3.98v-5.96m0-3.98v-5.96m0-3.97V404m0-4v-5.95m0-3.97v-5.96m0-3.98v-5.96m0-3.98v-5.96m0-3.97v-5.96m0-3.97v-5.96m0-3.97v-5.96m0-3.98v-5.96m0-3.98v-5.96m0-3.97v-5.97m0-3.98v-5.96m0-3.98v-5.97m0-3.97v-5.96m0-3.98v-5.96m0-3.97v-5.95m0-3.98V245m0-3.96v-5.97m0-3.97v-5.96m0-3.98v-5.96m0-3.97v-5.96m0-3.98v-5.97m0-3.98v-5.96m0-3.98v-5.96m0-3.98v-5.96m0-3.97v-5.97m0-3.97v-5.95m0-3.97v-5.97m0-3.96v-5.96m0-3.98v-5.96m0-3.97v-5.97m0-3.97v-5.96m0-3.97v-5.97m0-3.97V76.1m0-3.98v-5.96m0-3.97V56.2m0-3.97V46.3m0-4v-2.97l.08-.93.23-.92.36-.87" stroke="#3a414a" stroke-width="2" fill="none"/><path d="M1653.8 906.5h-.94v-46.9h.95zm0-68.24h-.94v-52.1h.95z" stroke="#3a414a" stroke-width=".05" fill="#3a414a"/><path d="M1653.8 907h-.94v-.5h.95z" fill="#3a414a"/><path stroke="#3a414a" stroke-width=".05" fill="#3a414a"/><path d="M1660.83 785.66h-15l7.5-13z" fill="#3a414a"/><path d="M1661.66 786.13H1645l8.33-14.4zm-15-.95H1660l-6.67-11.56z" stroke="#3a414a" stroke-width=".05" fill="#3a414a"/><use xlink:href="#e" transform="matrix(1,0,0,1,1616.0493827160499,838.2647704497813) translate(0 14.222222222222223)"/><use xlink:href="#p" transform="matrix(1,0,0,1,1616.0493827160499,838.2647704497813) translate(34.51851851851852 14.222222222222223)"/><path d="M1629.33 222c0 20.25-17 36.67-38 36.67-20.98 0-38-16.42-38-36.67s17.02-36.67 38-36.67c21 0 38 16.42 38 36.67z" stroke="#3a414a" stroke-width="2" fill="#fff"/><use xlink:href="#q" transform="matrix(1,0,0,1,1558.3333333333721,190.33333333333331) translate(3.987654320987655 37.77777777777778)"/><path d="M1868.67 545.33c0 20.25-17.02 36.67-38 36.67-21 0-38-16.42-38-36.67s17-36.66 38-36.66c20.98 0 38 16.4 38 36.66z" stroke="#3a414a" stroke-width="2" fill="#fff"/><use xlink:href="#q" transform="matrix(1,0,0,1,1797.6666666666865,513.6666666666669) translate(3.987654320987655 37.77777777777778)"/><path d="M1629.33 545.33c0 20.25-17 36.67-38 36.67-20.98 0-38-16.42-38-36.67s17.02-36.66 38-36.66c21 0 38 16.4 38 36.66z" stroke="#3a414a" stroke-width="2" fill="#fff"/><use xlink:href="#q" transform="matrix(1,0,0,1,1558.3333333333721,513.6666666666669) translate(3.987654320987655 37.77777777777778)"/><path d="M1978 370.67c0 20.25-17 36.66-38 36.66s-38-16.4-38-36.66c0-20.25 17-36.67 38-36.67s38 16.42 38 36.67z" stroke="#3a414a" stroke-width="2" fill="#fff"/><use xlink:href="#q" transform="matrix(1,0,0,1,1907.00000000002,339.0000000000001) translate(3.987654320987655 37.77777777777778)"/><path d="M1868.67 222c0 20.25-17.02 36.67-38 36.67-21 0-38-16.42-38-36.67s17-36.67 38-36.67c20.98 0 38 16.42 38 36.67z" stroke="#3a414a" stroke-width="2" fill="#fff"/><use xlink:href="#q" transform="matrix(1,0,0,1,1797.6666666666865,190.33333333333337) translate(3.987654320987655 37.77777777777778)"/><path d="M1514 370.67c0 20.25-17 36.66-38 36.66s-38-16.4-38-36.66c0-20.25 17-36.67 38-36.67s38 16.42 38 36.67z" stroke="#3a414a" stroke-width="2" fill="#fff"/><use xlink:href="#q" transform="matrix(1,0,0,1,1443.0000000000198,339.0000000000001) translate(3.987654320987655 37.77777777777778)"/><path d="M1644.46 217h133.06" stroke="#3a414a" fill="none"/><path d="M1630.97 217l13-7.5v15zM1791.02 217l-13 7.5v-15z" stroke="#3a414a" fill="#3a414a"/><path d="M1644.74 546.67h132.52" stroke="#3a414a" fill="none"/><path d="M1631.25 546.67l13-7.5v15zM1790.75 546.67l-13 7.5v-15z" stroke="#3a414a" fill="#3a414a"/><path d="M1529.5 370.67h357" stroke="#3a414a" fill="none"/><path d="M1516 370.67l13-7.5v15zM1900 370.67l-13 7.5v-15z" stroke="#3a414a" fill="#3a414a"/><path d="M1476 318.5V228a6 6 0 0 1 6-6h55.84" stroke="#3a414a" fill="none"/><path d="M1476 332l-7.5-13h15zM1551.33 222l-13 7.5v-15z" stroke="#3a414a" fill="#3a414a"/><path d="M1476 422.83v116.5a6 6 0 0 0 6 6h55.84" stroke="#3a414a" fill="none"/><path d="M1476 409.33l7.5 13h-15zM1551.33 545.33l-13 7.5v-15z" stroke="#3a414a" fill="#3a414a"/><path d="M1940 422.83V539.8a6 6 0 0 1-6 6h-49.87" stroke="#3a414a" fill="none"/><path d="M1940 409.33l7.5 13h-15zM1870.64 545.8l13-7.5v15z" stroke="#3a414a" fill="#3a414a"/><path d="M1884.16 222H1934a6 6 0 0 1 6 6v90.5" stroke="#3a414a" fill="none"/><path d="M1870.67 222l13-7.5v15zM1940 332l-7.5-13h15z" stroke="#3a414a" fill="#3a414a"/><path d="M1591.33 507.17v-130.5a6 6 0 0 1 6-6h227.34a6 6 0 0 0 6-6v-88.62" stroke="#3a414a" fill="none"/><path d="M1591.8 507.7l-.46-.03-.48.02v-.55h.95z" stroke="#3a414a" stroke-width=".05" fill="#3a414a"/><path d="M1830.67 261.3l4.63 14.25h-9.27z" stroke="#3a414a" fill="#3a414a"/><path d="M1591.33 260.17v104.5a6 6 0 0 0 6 6h227.34a6 6 0 0 1 6 6v114.6" stroke="#3a414a" fill="none"/><path d="M1591.33 259.67l.48-.03v.54h-.94v-.54z" stroke="#3a414a" stroke-width=".05" fill="#3a414a"/><path d="M1830.67 506.05l-4.64-14.27h9.27z" stroke="#3a414a" fill="#3a414a"/><g><use xlink:href="#r" transform="matrix(1,0,0,1,1688.543209876545,345.3333332222626) translate(0 14.222222222222223)"/></g><path d="M1401.33 1331.87c0 10-40 18.13-89.33 18.13-49.34 0-89.33-8.12-89.33-18.13V1186.8c0-10 40-18.13 89.33-18.13 49.34 0 89.33 8.12 89.33 18.13z" stroke="#3a414a" stroke-width="2" fill="#fff"/><path d="M1401.33 1186.8c0 10.02-40 18.13-89.33 18.13-49.34 0-89.33-8.12-89.33-18.13" stroke="#3a414a" stroke-width="2" fill="none"/><g><use xlink:href="#c" transform="matrix(1,0,0,1,1227.6666666666667,1209.9333333333332) translate(36.413580246913575 60.27777777777778)"/><use xlink:href="#d" transform="matrix(1,0,0,1,1227.6666666666667,1209.9333333333332) translate(3.2037037037037095 86.94444444444446)"/></g><defs><path d="M127-220V0H93v-220H8v-28h204v28h-85" id="s"/><path d="M114-163C36-179 61-72 57 0H25l-1-190h30c1 12-1 29 2 39 6-27 23-49 58-41v29" id="t"/><path d="M141-36C126-15 110 5 73 4 37 3 15-17 15-53c-1-64 63-63 125-63 3-35-9-54-41-54-24 1-41 7-42 31l-33-3c5-37 33-52 76-52 45 0 72 20 72 64v82c-1 20 7 32 28 27v20c-31 9-61-2-59-35zM48-53c0 20 12 33 32 33 41-3 63-29 60-74-43 2-92-5-92 41" id="u"/><path d="M96-169c-40 0-48 33-48 73s9 75 48 75c24 0 41-14 43-38l32 2c-6 37-31 61-74 61-59 0-76-41-82-99-10-93 101-131 147-64 4 7 5 14 7 22l-32 3c-4-21-16-35-41-35" id="v"/><path d="M143 0L79-87 56-68V0H24v-261h32v163l83-92h37l-77 82L181 0h-38" id="w"/><path d="M100-194c63 0 86 42 84 106H49c0 40 14 67 53 68 26 1 43-12 49-29l28 8c-11 28-37 45-77 45C44 4 14-33 15-96c1-61 26-98 85-98zm52 81c6-60-76-77-97-28-3 7-6 17-6 28h103" id="x"/><g id="a"><use transform="matrix(0.06172839506172839,0,0,0.06172839506172839,0,0)" xlink:href="#s"/><use transform="matrix(0.06172839506172839,0,0,0.06172839506172839,12.716049382716047,0)" xlink:href="#t"/><use transform="matrix(0.06172839506172839,0,0,0.06172839506172839,20.061728395061728,0)" xlink:href="#u"/><use transform="matrix(0.06172839506172839,0,0,0.06172839506172839,32.407407407407405,0)" xlink:href="#v"/><use transform="matrix(0.06172839506172839,0,0,0.06172839506172839,43.51851851851852,0)" xlink:href="#w"/><use transform="matrix(0.06172839506172839,0,0,0.06172839506172839,54.62962962962963,0)" xlink:href="#x"/><use transform="matrix(0.06172839506172839,0,0,0.06172839506172839,66.97530864197532,0)" xlink:href="#t"/></g><path d="M140-251c81 0 123 46 123 126C263-46 219 4 140 4 59 4 17-45 17-125s42-126 123-126zm0 227c63 0 89-41 89-101s-29-99-89-99c-61 0-89 39-89 99S79-25 140-24" id="y"/><path d="M24-231v-30h32v30H24zM24 0v-190h32V0H24" id="z"/><path d="M177-190C167-65 218 103 67 71c-23-6-38-20-44-43l32-5c15 47 100 32 89-28v-30C133-14 115 1 83 1 29 1 15-40 15-95c0-56 16-97 71-98 29-1 48 16 59 35 1-10 0-23 2-32h30zM94-22c36 0 50-32 50-73 0-42-14-75-50-75-39 0-46 34-46 75s6 73 46 73" id="A"/><path d="M117-194c89-4 53 116 60 194h-32v-121c0-31-8-49-39-48C34-167 62-67 57 0H25l-1-190h30c1 10-1 24 2 32 11-22 29-35 61-36" id="B"/><g id="b"><use transform="matrix(0.06172839506172839,0,0,0.06172839506172839,0,0)" xlink:href="#y"/><use transform="matrix(0.06172839506172839,0,0,0.06172839506172839,17.28395061728395,0)" xlink:href="#t"/><use transform="matrix(0.06172839506172839,0,0,0.06172839506172839,24.629629629629626,0)" xlink:href="#z"/><use transform="matrix(0.06172839506172839,0,0,0.06172839506172839,29.50617283950617,0)" xlink:href="#A"/><use transform="matrix(0.06172839506172839,0,0,0.06172839506172839,41.85185185185185,0)" xlink:href="#z"/><use transform="matrix(0.06172839506172839,0,0,0.06172839506172839,46.72839506172839,0)" xlink:href="#B"/></g><path d="M30-248c118-7 216 8 213 122C240-48 200 0 122 0H30v-248zM63-27c89 8 146-16 146-99s-60-101-146-95v194" id="C"/><path d="M59-47c-2 24 18 29 38 22v24C64 9 27 4 27-40v-127H5v-23h24l9-43h21v43h35v23H59v120" id="D"/><path d="M135-143c-3-34-86-38-87 0 15 53 115 12 119 90S17 21 10-45l28-5c4 36 97 45 98 0-10-56-113-15-118-90-4-57 82-63 122-42 12 7 21 19 24 35" id="E"/><path d="M100-194c62-1 85 37 85 99 1 63-27 99-86 99S16-35 15-95c0-66 28-99 85-99zM99-20c44 1 53-31 53-75 0-43-8-75-51-75s-53 32-53 75 10 74 51 75" id="F"/><g id="c"><use transform="matrix(0.06172839506172839,0,0,0.06172839506172839,0,0)" xlink:href="#C"/><use transform="matrix(0.06172839506172839,0,0,0.06172839506172839,15.987654320987653,0)" xlink:href="#u"/><use transform="matrix(0.06172839506172839,0,0,0.06172839506172839,28.333333333333332,0)" xlink:href="#D"/><use transform="matrix(0.06172839506172839,0,0,0.06172839506172839,34.50617283950617,0)" xlink:href="#u"/><use transform="matrix(0.06172839506172839,0,0,0.06172839506172839,46.85185185185185,0)" xlink:href="#E"/><use transform="matrix(0.06172839506172839,0,0,0.06172839506172839,57.96296296296296,0)" xlink:href="#D"/><use transform="matrix(0.06172839506172839,0,0,0.06172839506172839,64.1358024691358,0)" xlink:href="#F"/><use transform="matrix(0.06172839506172839,0,0,0.06172839506172839,76.48148148148148,0)" xlink:href="#t"/><use transform="matrix(0.06172839506172839,0,0,0.06172839506172839,83.82716049382717,0)" xlink:href="#x"/></g><path d="M87 75C49 33 22-17 22-94c0-76 28-126 65-167h31c-38 41-64 92-64 168S80 34 118 75H87" id="G"/><path d="M143 4C61 4 22-44 18-125c-5-107 100-154 193-111 17 8 29 25 37 43l-32 9c-13-25-37-40-76-40-61 0-88 39-88 99 0 61 29 100 91 101 35 0 62-11 79-27v-45h-74v-28h105v86C228-13 192 4 143 4" id="H"/><path d="M212-179c-10-28-35-45-73-45-59 0-87 40-87 99 0 60 29 101 89 101 43 0 62-24 78-52l27 14C228-24 195 4 139 4 59 4 22-46 18-125c-6-104 99-153 187-111 19 9 31 26 39 46" id="I"/><path d="M185-189c-5-48-123-54-124 2 14 75 158 14 163 119 3 78-121 87-175 55-17-10-28-26-33-46l33-7c5 56 141 63 141-1 0-78-155-14-162-118-5-82 145-84 179-34 5 7 8 16 11 25" id="J"/><path d="M0 4l72-265h28L28 4H0" id="K"/><path d="M126-127c33 6 58 20 58 59 0 88-139 92-164 29-3-8-5-16-6-25l32-3c6 27 21 44 54 44 32 0 52-15 52-46 0-38-36-46-79-43v-28c39 1 72-4 72-42 0-27-17-43-46-43-28 0-47 15-49 41l-32-3c6-42 35-63 81-64 48-1 79 21 79 65 0 36-21 52-52 59" id="L"/><path d="M197 0v-115H63V0H30v-248h33v105h134v-105h34V0h-34" id="M"/><path d="M63-220v92h138v28H63V0H30v-248h175v28H63" id="N"/><path d="M33-261c38 41 65 92 65 168S71 34 33 75H2C39 34 66-17 66-93S39-220 2-261h31" id="O"/><g id="d"><use transform="matrix(0.06172839506172839,0,0,0.06172839506172839,0,0)" xlink:href="#G"/><use transform="matrix(0.06172839506172839,0,0,0.06172839506172839,7.345679012345679,0)" xlink:href="#H"/><use transform="matrix(0.06172839506172839,0,0,0.06172839506172839,24.629629629629626,0)" xlink:href="#I"/><use transform="matrix(0.06172839506172839,0,0,0.06172839506172839,40.61728395061728,0)" xlink:href="#J"/><use transform="matrix(0.06172839506172839,0,0,0.06172839506172839,55.43209876543209,0)" xlink:href="#K"/><use transform="matrix(0.06172839506172839,0,0,0.06172839506172839,61.60493827160493,0)" xlink:href="#J"/><use transform="matrix(0.06172839506172839,0,0,0.06172839506172839,76.41975308641975,0)" xlink:href="#L"/><use transform="matrix(0.06172839506172839,0,0,0.06172839506172839,88.76543209876543,0)" xlink:href="#K"/><use transform="matrix(0.06172839506172839,0,0,0.06172839506172839,94.93827160493827,0)" xlink:href="#M"/><use transform="matrix(0.06172839506172839,0,0,0.06172839506172839,110.92592592592592,0)" xlink:href="#C"/><use transform="matrix(0.06172839506172839,0,0,0.06172839506172839,126.91358024691357,0)" xlink:href="#N"/><use transform="matrix(0.06172839506172839,0,0,0.06172839506172839,140.4320987654321,0)" xlink:href="#J"/><use transform="matrix(0.06172839506172839,0,0,0.06172839506172839,155.2469135802469,0)" xlink:href="#O"/></g><path fill="#333" d="M67-125c0 54 23 88 75 88 28 0 53-7 68-21v-34h-60v-39h108v91C232-14 192 4 140 4 58 4 20-42 15-125 8-236 126-280 215-234c19 10 29 26 37 47l-47 15c-11-23-29-39-63-39-53 1-75 33-75 86" id="P"/><path fill="#333" d="M185-48c-13 30-37 53-82 52C43 2 14-33 14-96s30-98 90-98c62 0 83 45 84 108H66c0 31 8 55 39 56 18 0 30-7 34-22zm-45-69c5-46-57-63-70-21-2 6-4 13-4 21h74" id="Q"/><path fill="#333" d="M115-3C79 11 28 4 28-45v-112H4v-33h27l15-45h31v45h36v33H77v99c-1 23 16 31 38 25v30" id="R"/><g id="e"><use transform="matrix(0.04938271604938272,0,0,0.04938271604938272,0,0)" xlink:href="#P"/><use transform="matrix(0.04938271604938272,0,0,0.04938271604938272,13.827160493827162,0)" xlink:href="#Q"/><use transform="matrix(0.04938271604938272,0,0,0.04938271604938272,23.703703703703706,0)" xlink:href="#R"/></g><path fill="#333" d="M137-138c1-29-70-34-71-4 15 46 118 7 119 86 1 83-164 76-172 9l43-7c4 19 20 25 44 25 33 8 57-30 24-41C81-84 22-81 20-136c-2-80 154-74 161-7" id="S"/><path fill="#333" d="M88-194c31-1 46 15 58 34l-1-101h50l1 261h-48c-2-10 0-23-3-31C134-8 116 4 84 4 32 4 16-41 15-95c0-56 19-97 73-99zm17 164c33 0 40-30 41-66 1-37-9-64-41-64s-38 30-39 65c0 43 13 65 39 65" id="T"/><path fill="#333" d="M135-150c-39-12-60 13-60 57V0H25l-1-190h47c2 13-1 29 3 40 6-28 27-53 61-41v41" id="U"/><g id="f"><use transform="matrix(0.04938271604938272,0,0,0.04938271604938272,0,0)" xlink:href="#S"/><use transform="matrix(0.04938271604938272,0,0,0.04938271604938272,9.876543209876544,0)" xlink:href="#Q"/><use transform="matrix(0.04938271604938272,0,0,0.04938271604938272,19.75308641975309,0)" xlink:href="#Q"/><use transform="matrix(0.04938271604938272,0,0,0.04938271604938272,29.629629629629633,0)" xlink:href="#T"/><use transform="matrix(0.04938271604938272,0,0,0.04938271604938272,40.44444444444445,0)" xlink:href="#Q"/><use transform="matrix(0.04938271604938272,0,0,0.04938271604938272,50.320987654320994,0)" xlink:href="#U"/><use transform="matrix(0.04938271604938272,0,0,0.04938271604938272,57.23456790123457,0)" xlink:href="#S"/></g><path fill="#333" d="M169-182c-1-43-94-46-97-3 18 66 151 10 154 114 3 95-165 93-204 36-6-8-10-19-12-30l50-8c3 46 112 56 116 5-17-69-150-10-154-114-4-87 153-88 188-35 5 8 8 18 10 28" id="V"/><g id="g"><use transform="matrix(0.04938271604938272,0,0,0.04938271604938272,0,0)" xlink:href="#V"/><use transform="matrix(0.04938271604938272,0,0,0.04938271604938272,11.851851851851853,0)" xlink:href="#Q"/><use transform="matrix(0.04938271604938272,0,0,0.04938271604938272,21.7283950617284,0)" xlink:href="#Q"/><use transform="matrix(0.04938271604938272,0,0,0.04938271604938272,31.60493827160494,0)" xlink:href="#T"/></g><path fill="#333" d="M24-248c93 1 206-16 204 79-1 75-69 88-152 82V0H24v-248zm52 121c47 0 100 7 100-41 0-47-54-39-100-39v80" id="W"/><g id="h"><use transform="matrix(0.04938271604938272,0,0,0.04938271604938272,0,0)" xlink:href="#W"/><use transform="matrix(0.04938271604938272,0,0,0.04938271604938272,11.851851851851853,0)" xlink:href="#Q"/><use transform="matrix(0.04938271604938272,0,0,0.04938271604938272,21.7283950617284,0)" xlink:href="#Q"/><use transform="matrix(0.04938271604938272,0,0,0.04938271604938272,31.60493827160494,0)" xlink:href="#U"/><use transform="matrix(0.04938271604938272,0,0,0.04938271604938272,38.518518518518526,0)" xlink:href="#S"/></g><path d="M30-248c87 1 191-15 191 75 0 78-77 80-158 76V0H30v-248zm33 125c57 0 124 11 124-50 0-59-68-47-124-48v98" id="X"/><path d="M141 0L90-78 38 0H4l68-98-65-92h35l48 74 47-74h35l-64 92 68 98h-35" id="Y"/><path d="M179-190L93 31C79 59 56 82 12 73V49c39 6 53-20 64-50L1-190h34L92-34l54-156h33" id="Z"/><g id="i"><use transform="matrix(0.06172839506172839,0,0,0.06172839506172839,0,0)" xlink:href="#X"/><use transform="matrix(0.06172839506172839,0,0,0.06172839506172839,14.814814814814813,0)" xlink:href="#t"/><use transform="matrix(0.06172839506172839,0,0,0.06172839506172839,22.160493827160494,0)" xlink:href="#F"/><use transform="matrix(0.06172839506172839,0,0,0.06172839506172839,34.50617283950617,0)" xlink:href="#Y"/><use transform="matrix(0.06172839506172839,0,0,0.06172839506172839,45.61728395061728,0)" xlink:href="#Z"/></g><path fill="#333" d="M85 4C-2 5 27-109 22-190h50c7 57-23 150 33 157 60-5 35-97 40-157h50l1 190h-47c-2-12 1-28-3-38-12 25-28 42-61 42" id="aa"/><g id="j"><use transform="matrix(0.04938271604938272,0,0,0.04938271604938272,0,0)" xlink:href="#W"/><use transform="matrix(0.04938271604938272,0,0,0.04938271604938272,11.851851851851853,0)" xlink:href="#aa"/><use transform="matrix(0.04938271604938272,0,0,0.04938271604938272,22.666666666666668,0)" xlink:href="#R"/></g><path fill="#333" d="M182-130c37 4 62 22 62 59C244 23 116-4 24 0v-248c84 5 203-23 205 63 0 31-19 50-47 55zM76-148c40-3 101 13 101-30 0-44-60-28-101-31v61zm0 110c48-3 116 14 116-37 0-48-69-32-116-35v72" id="ab"/><path fill="#333" d="M25 0v-261h50V0H25" id="ac"/><path fill="#333" d="M110-194c64 0 96 36 96 99 0 64-35 99-97 99-61 0-95-36-95-99 0-62 34-99 96-99zm-1 164c35 0 45-28 45-65 0-40-10-65-43-65-34 0-45 26-45 65 0 36 10 65 43 65" id="ad"/><path fill="#333" d="M135-194c52 0 70 43 70 98 0 56-19 99-73 100-30 1-46-15-58-35L72 0H24l1-261h50v104c11-23 29-37 60-37zM114-30c31 0 40-27 40-66 0-37-7-63-39-63s-41 28-41 65c0 36 8 64 40 64" id="ae"/><g id="k"><use transform="matrix(0.04938271604938272,0,0,0.04938271604938272,0,0)" xlink:href="#ab"/><use transform="matrix(0.04938271604938272,0,0,0.04938271604938272,12.790123456790125,0)" xlink:href="#ac"/><use transform="matrix(0.04938271604938272,0,0,0.04938271604938272,17.7283950617284,0)" xlink:href="#ad"/><use transform="matrix(0.04938271604938272,0,0,0.04938271604938272,28.54320987654322,0)" xlink:href="#ae"/><use transform="matrix(0.04938271604938272,0,0,0.04938271604938272,39.35802469135803,0)" xlink:href="#S"/></g><path fill="#333" d="M190-63c-7 42-38 67-86 67-59 0-84-38-90-98-12-110 154-137 174-36l-49 2c-2-19-15-32-35-32-30 0-35 28-38 64-6 74 65 87 74 30" id="af"/><path fill="#333" d="M147 0L96-86 75-71V0H25v-261h50v150l67-79h53l-66 74L201 0h-54" id="ag"/><g id="l"><use transform="matrix(0.04938271604938272,0,0,0.04938271604938272,0,0)" xlink:href="#T"/><use transform="matrix(0.04938271604938272,0,0,0.04938271604938272,10.814814814814815,0)" xlink:href="#ad"/><use transform="matrix(0.04938271604938272,0,0,0.04938271604938272,21.62962962962963,0)" xlink:href="#af"/><use transform="matrix(0.04938271604938272,0,0,0.04938271604938272,31.506172839506174,0)" xlink:href="#ag"/><use transform="matrix(0.04938271604938272,0,0,0.04938271604938272,41.38271604938272,0)" xlink:href="#Q"/><use transform="matrix(0.04938271604938272,0,0,0.04938271604938272,51.25925925925927,0)" xlink:href="#U"/></g><path fill="#333" d="M135-194c53 0 70 44 70 98 0 56-19 98-73 100-31 1-45-17-59-34 3 33 2 69 2 105H25l-1-265h48c2 10 0 23 3 31 11-24 29-35 60-35zM114-30c33 0 39-31 40-66 0-38-9-64-40-64-56 0-55 130 0 130" id="ah"/><path fill="#333" d="M114-157C55-157 80-60 75 0H25v-261h50l-1 109c12-26 28-41 61-42 86-1 58 113 63 194h-50c-7-57 23-157-34-157" id="ai"/><g id="m"><use transform="matrix(0.04938271604938272,0,0,0.04938271604938272,0,0)" xlink:href="#ah"/><use transform="matrix(0.04938271604938272,0,0,0.04938271604938272,10.814814814814815,0)" xlink:href="#aa"/><use transform="matrix(0.04938271604938272,0,0,0.04938271604938272,21.62962962962963,0)" xlink:href="#S"/><use transform="matrix(0.04938271604938272,0,0,0.04938271604938272,31.506172839506174,0)" xlink:href="#ai"/></g><path d="M160-131c35 5 61 23 61 61C221 17 115-2 30 0v-248c76 3 177-17 177 60 0 33-19 50-47 57zm-97-11c50-1 110 9 110-42 0-47-63-36-110-37v79zm0 115c55-2 124 14 124-45 0-56-70-42-124-44v89" id="aj"/><path d="M84 4C-5 8 30-112 23-190h32v120c0 31 7 50 39 49 72-2 45-101 50-169h31l1 190h-30c-1-10 1-25-2-33-11 22-28 36-60 37" id="ak"/><path d="M24 0v-261h32V0H24" id="al"/><path d="M85-194c31 0 48 13 60 33l-1-100h32l1 261h-30c-2-10 0-23-3-31C134-8 116 4 85 4 32 4 16-35 15-94c0-66 23-100 70-100zm9 24c-40 0-46 34-46 75 0 40 6 74 45 74 42 0 51-32 51-76 0-42-9-74-50-73" id="am"/><g id="n"><use transform="matrix(0.06172839506172839,0,0,0.06172839506172839,0,0)" xlink:href="#aj"/><use transform="matrix(0.06172839506172839,0,0,0.06172839506172839,14.814814814814813,0)" xlink:href="#ak"/><use transform="matrix(0.06172839506172839,0,0,0.06172839506172839,27.160493827160494,0)" xlink:href="#z"/><use transform="matrix(0.06172839506172839,0,0,0.06172839506172839,32.03703703703704,0)" xlink:href="#al"/><use transform="matrix(0.06172839506172839,0,0,0.06172839506172839,36.91358024691358,0)" xlink:href="#am"/></g><path d="M33 0v-248h34V0H33" id="an"/><g id="o"><use transform="matrix(0.06172839506172839,0,0,0.06172839506172839,0,0)" xlink:href="#an"/><use transform="matrix(0.06172839506172839,0,0,0.06172839506172839,6.172839506172839,0)" xlink:href="#B"/><use transform="matrix(0.06172839506172839,0,0,0.06172839506172839,18.51851851851852,0)" xlink:href="#am"/><use transform="matrix(0.06172839506172839,0,0,0.06172839506172839,30.864197530864196,0)" xlink:href="#x"/><use transform="matrix(0.06172839506172839,0,0,0.06172839506172839,43.20987654320987,0)" xlink:href="#Y"/></g><path fill="#333" d="M136-208V0H84v-208H4v-40h212v40h-80" id="ao"/><path fill="#333" d="M133-34C117-15 103 5 69 4 32 3 11-16 11-54c-1-60 55-63 116-61 1-26-3-47-28-47-18 1-26 9-28 27l-52-2c7-38 36-58 82-57s74 22 75 68l1 82c-1 14 12 18 25 15v27c-30 8-71 5-69-32zm-48 3c29 0 43-24 42-57-32 0-66-3-65 30 0 17 8 27 23 27" id="ap"/><path fill="#333" d="M195-6C206 82 75 100 31 46c-4-6-6-13-8-21l49-6c3 16 16 24 34 25 40 0 42-37 40-79-11 22-30 35-61 35-53 0-70-43-70-97 0-56 18-96 73-97 30 0 46 14 59 34l2-30h47zm-90-29c32 0 41-27 41-63 0-35-9-62-40-62-32 0-39 29-40 63 0 36 9 62 39 62" id="aq"/><g id="p"><use transform="matrix(0.04938271604938272,0,0,0.04938271604938272,0,0)" xlink:href="#ao"/><use transform="matrix(0.04938271604938272,0,0,0.04938271604938272,9.481481481481481,0)" xlink:href="#ap"/><use transform="matrix(0.04938271604938272,0,0,0.04938271604938272,19.358024691358025,0)" xlink:href="#aq"/><use transform="matrix(0.04938271604938272,0,0,0.04938271604938272,30.172839506172842,0)" xlink:href="#S"/></g><path d="M205 0l-28-72H64L36 0H1l101-248h38L239 0h-34zm-38-99l-47-123c-12 45-31 82-46 123h93" id="ar"/><g id="q"><use transform="matrix(0.06172839506172839,0,0,0.06172839506172839,0,0)" xlink:href="#ar"/><use transform="matrix(0.06172839506172839,0,0,0.06172839506172839,14.814814814814813,0)" xlink:href="#A"/><use transform="matrix(0.06172839506172839,0,0,0.06172839506172839,27.160493827160494,0)" xlink:href="#x"/><use transform="matrix(0.06172839506172839,0,0,0.06172839506172839,39.50617283950617,0)" xlink:href="#B"/><use transform="matrix(0.06172839506172839,0,0,0.06172839506172839,51.85185185185185,0)" xlink:href="#D"/></g><path fill="#333" d="M182-182c0 78-84 86-111 141h115V0H12c-6-101 99-100 120-180 1-22-12-31-33-32-23 0-32 14-35 34l-49-3c5-45 32-70 84-70 51 0 83 22 83 69" id="as"/><g id="r"><use transform="matrix(0.04938271604938272,0,0,0.04938271604938272,0,0)" xlink:href="#W"/><use transform="matrix(0.04938271604938272,0,0,0.04938271604938272,11.851851851851853,0)" xlink:href="#as"/><use transform="matrix(0.04938271604938272,0,0,0.04938271604938272,21.7283950617284,0)" xlink:href="#W"/></g></defs></g></svg>