<svg xmlns="http://www.w3.org/2000/svg" xmlns:xlink="http://www.w3.org/1999/xlink" xmlns:lucid="lucid" width="890" height="519"><g transform="translate(-380 -200.00000000000003)" lucid:page-tab-id="LIRKWd5~aUbs"><path d="M899 320c0 22.1-17.9 40-40 40s-40-17.9-40-40 17.9-40 40-40 40 17.9 40 40z" stroke="#000" stroke-width="2" fill="#fff"/><use xlink:href="#a" transform="matrix(1,0,0,1,824,285) translate(11.5 38.6)"/><path d="M1079 320c0 22.1-17.9 40-40 40s-40-17.9-40-40 17.9-40 40-40 40 17.9 40 40z" stroke="#000" stroke-width="2" fill="#fff"/><use xlink:href="#a" transform="matrix(1,0,0,1,1004,285) translate(11.5 38.6)"/><path d="M899 480c0 22.1-17.9 40-40 40s-40-17.9-40-40 17.9-40 40-40 40 17.9 40 40z" stroke="#000" stroke-width="2" fill="#fff"/><use xlink:href="#a" transform="matrix(1,0,0,1,824,445) translate(11.5 38.6)"/><path d="M500 520c0 5.52-22.4 10-50 10s-50-4.48-50-10v-80c0-5.52 22.4-10 50-10s50 4.48 50 10z" stroke="#000" stroke-width="2" fill="#fff"/><path d="M500 440c0 5.52-22.4 10-50 10s-50-4.48-50-10" stroke="#000" stroke-width="2" fill="none"/><use xlink:href="#b" transform="matrix(1,0,0,1,405,455) translate(7.074999999999996 38.6)"/><path d="M440.52 650H400v-2h40.52zm119.98 0h-22.02v-2h22.02zM575.76 649l-14.26 4.63v-9.27z" fill="#3aa6dd"/><path d="M579 649l-18.5 6v-12zm-16.5 3.26l10.03-3.26-10.03-3.26z" fill="#3aa6dd"/><use xlink:href="#c" transform="matrix(1,0,0,1,440.525,638.1993760969042) translate(0 14.4)"/><use xlink:href="#d" transform="matrix(1,0,0,1,440.525,638.1993760969042) translate(58.95 14.4)"/><path d="M1104.9 321H1080v-2h24.9zm115.6 0h-28.76v-2h28.76zM1080 321h-1.06l.06-1-.04-1h1.04zM1235.76 320l-14.26 4.64v-9.28z" fill="#3aa6dd"/><path d="M1239 320l-18.5 6v-12zm-16.5 3.26l10.03-3.26-10.03-3.26z" fill="#3aa6dd"/><use xlink:href="#c" transform="matrix(1,0,0,1,1104.8917742237438,309.2) translate(0 14.4)"/><use xlink:href="#e" transform="matrix(1,0,0,1,1104.8917742237438,309.2) translate(58.95 14.4)"/><path d="M1080 689c0 5.52-22.4 10-50 10s-50-4.48-50-10v-80c0-5.52 22.4-10 50-10s50 4.48 50 10z" stroke="#000" stroke-width="2" fill="#fff"/><path d="M1080 609c0 5.52-22.4 10-50 10s-50-4.48-50-10" stroke="#000" stroke-width="2" fill="none"/><use xlink:href="#b" transform="matrix(1,0,0,1,985,623.9993760969041) translate(7.074999999999996 38.6)"/><path d="M580 280h80v80h-80z" stroke="#000" stroke-width="2" fill="#fff"/><use xlink:href="#f" transform="matrix(1,0,0,1,585,285) translate(4.899999999999999 38.6)"/><path d="M819 609h80v80h-80z" stroke="#000" stroke-width="2" fill="#fff"/><use xlink:href="#g" transform="matrix(1,0,0,1,824,613.9993760969041) translate(15.05 27.799999999999997)"/><use xlink:href="#h" transform="matrix(1,0,0,1,824,613.9993760969041) translate(13 49.4)"/><path d="M700 480c0 22.1-17.9 40-40 40s-40-17.9-40-40 17.9-40 40-40 40 17.9 40 40z" stroke="#000" stroke-width="2" fill="#fff"/><path d="M680 480c0 22.1-17.9 40-40 40s-40-17.9-40-40 17.9-40 40-40 40 17.9 40 40z" stroke="#000" stroke-width="2" fill="#fff"/><path d="M660 480c0 22.1-17.9 40-40 40s-40-17.9-40-40 17.9-40 40-40 40 17.9 40 40z" stroke="#000" stroke-width="2" fill="#fff"/><use xlink:href="#i" transform="matrix(1,0,0,1,585,445) translate(11.075 38.6)"/><path d="M580 609h80v80h-80z" stroke="#000" stroke-width="2" fill="#fff"/><use xlink:href="#j" transform="matrix(1,0,0,1,585,613.9993760969041) translate(12.024999999999999 38.6)"/><path d="M560.5 480h-41" stroke="#000" stroke-width="2" fill="none"/><path d="M575.76 480l-14.26 4.64v-9.28z"/><path d="M579 480l-18.5 6v-12zm-16.5 3.26l10.03-3.26-10.03-3.26zM518.5 484.64L504.24 480l14.26-4.64z"/><path d="M519.5 486l-18.5-6 18.5-6zm-12.03-6l10.03 3.26v-6.52zM621 420.5h-2v-9.7h2zm0-31.3h-2v-9.7h2zM624.64 378.5h-9.28l4.64-14.26z"/><path d="M626 379.5h-12l6-18.5zm-9.26-2h6.52L620 367.47zM620 435.76l-4.64-14.26h9.28z"/><path d="M620 439l-6-18.5h12zm-3.26-16.5l3.26 10.03 3.26-10.03z"/><use xlink:href="#k" transform="matrix(1,0,0,1,571.025,389.19968804845206) translate(0 14.4)"/><use xlink:href="#l" transform="matrix(1,0,0,1,571.025,389.19968804845206) translate(34 14.4)"/><path d="M918.5 649h42" stroke="#000" stroke-width="2" fill="none"/><path d="M917.5 653.63L903.24 649l14.26-4.64z"/><path d="M918.5 655l-18.5-6 18.5-6zm-12.03-6l10.03 3.26v-6.52zM975.76 649l-14.26 4.63v-9.27z"/><path d="M979 649l-18.5 6v-12zm-16.5 3.26l10.03-3.26-10.03-3.26zM706.5 650H661v-2h45.5zm93 0h-27v-2h27zM661 650h-1v-2h1zM814.76 649l-14.26 4.63v-9.27z"/><path d="M818 649l-18.5 6v-12zm-16.5 3.26l10.03-3.26-10.03-3.26z"/><use xlink:href="#m" transform="matrix(1,0,0,1,706.5011774882252,638.1993760969043) translate(0.005000000000002558 14.4)"/><use xlink:href="#n" transform="matrix(1,0,0,1,706.5011774882252,638.1993760969043) translate(32.005 14.4)"/><path d="M621 608h-2v-27.2h2zm0-48.8h-2v-19.7h2zM621 609h-2v-1h2zM624.64 538.5h-9.28l4.64-14.26z"/><path d="M626 539.5h-12l6-18.5zm-9.26-2h6.52L620 527.47z"/><use xlink:href="#o" transform="matrix(1,0,0,1,582.525,559.1964256598337) translate(0 14.4)"/><use xlink:href="#p" transform="matrix(1,0,0,1,582.525,559.1964256598337) translate(32 14.4)"/><path d="M1079 480c0 22.1-17.9 40-40 40s-40-17.9-40-40 17.9-40 40-40 40 17.9 40 40z" stroke="#000" stroke-width="2" fill="#fff"/><use xlink:href="#a" transform="matrix(1,0,0,1,1004,445) translate(11.5 38.6)"/><path d="M1039 420.5v-41" stroke="#000" stroke-width="2" fill="none"/><path d="M1039 435.76l-4.64-14.26h9.28z"/><path d="M1039 439l-6-18.5h12zm-3.26-16.5l3.26 10.03 3.26-10.03zM1043.64 378.5h-9.28l4.64-14.26z"/><path d="M1045 379.5h-12l6-18.5zm-9.26-2h6.52l-3.26-10.03z"/><path d="M918.5 320h61" stroke="#000" stroke-width="2" fill="none"/><path d="M917.5 324.64L903.24 320l14.26-4.64z"/><path d="M918.5 326l-18.5-6 18.5-6zm-12.03-6l10.03 3.26v-6.52zM994.76 320l-14.26 4.64v-9.28z"/><path d="M998 320l-18.5 6v-12zm-16.5 3.26l10.03-3.26-10.03-3.26z"/><path d="M859 379.5v41" stroke="#000" stroke-width="2" fill="none"/><path d="M863.64 378.5h-9.28l4.64-14.26z"/><path d="M865 379.5h-12l6-18.5zm-9.26-2h6.52L859 367.47zM859 435.76l-4.64-14.26h9.28z"/><path d="M859 439l-6-18.5h12zm-3.26-16.5l3.26 10.03 3.26-10.03z"/><path d="M918.5 480h61" stroke="#000" stroke-width="2" fill="none"/><path d="M917.5 484.64L903.24 480l14.26-4.64z"/><path d="M918.5 486l-18.5-6 18.5-6zm-12.03-6l10.03 3.26v-6.52zM994.76 480l-14.26 4.64v-9.28z"/><path d="M998 480l-18.5 6v-12zm-16.5 3.26l10.03-3.26-10.03-3.26zM860 589.5h-2v-4.2h2zm.33-25.8h-2v-4.2h2zM863.97 558.5h-9.27l4.63-14.26z"/><path d="M865.35 559.5h-12.03l6-18.5zm-9.28-2h6.52l-3.27-10.03zM859 604.76l-4.64-14.26h9.28z"/><path d="M859 608l-6-18.5h12zm-3.26-16.5l3.26 10.03 3.26-10.03z"/><use xlink:href="#k" transform="matrix(1,0,0,1,825.1666666666667,563.6996880484521) translate(0 14.4)"/><use xlink:href="#q" transform="matrix(1,0,0,1,825.1666666666667,563.6996880484521) translate(34 14.4)"/><path d="M716.62 481H701v-2h15.62zm62.88 0h-20.88v-2h20.88zM794.76 480l-14.26 4.64v-9.28z"/><path d="M798 480l-18.5 6v-12zm-16.5 3.26l10.03-3.26-10.03-3.26zM701 481h-1.06l.06-1-.04-1H701z"/><use xlink:href="#r" transform="matrix(1,0,0,1,716.6226860929976,469.2) translate(0 14.4)"/><path d="M690.02 321H679.5v-2h10.52zm89.48 0h-10.52v-2h10.52zM794.76 320l-14.26 4.64v-9.28z"/><path d="M798 320l-18.5 6v-12zm-16.5 3.26l10.03-3.26-10.03-3.26zM678.5 324.64L664.24 320l14.26-4.64z"/><path d="M679.5 326l-18.5-6 18.5-6zm-12.03-6l10.03 3.26v-6.52z"/><use xlink:href="#k" transform="matrix(1,0,0,1,690.025,309.2) translate(0 14.4)"/><use xlink:href="#s" transform="matrix(1,0,0,1,690.025,309.2) translate(34 14.4)"/><path d="M839 370h220v60H839z" stroke="#000" stroke-opacity="0" stroke-width="2" fill="#fff" fill-opacity="0"/><g><use xlink:href="#t" transform="matrix(1,0,0,1,844,375) translate(88 28.6)"/></g><path d="M799 220h300v320H799z" fill-opacity="0"/><path d="M806 220h6m4 0h6m4 0h6m4 0h6m4 0h6m4 0h6m4 0h6m4 0h6m4 0h6m4 0h6m4 0h6m4 0h6m4 0h6m4 0h6m4 0h6m4 0h6m4 0h6m4 0h6m4 0h6m4 0h6m4 0h6m4 0h6m4 0h6m4 0h6m4 0h6m4 0h6m4 0h6m4 0h6m4 0h6m4 0h3v3m0 4v6m0 4v6m0 4v6m0 4v6m0 4v6m0 4v6m0 4v6m0 4v6m0 4v6m0 4v6m0 4v6m0 4v6m0 4v6m0 4v6m0 4v6m0 4v6m0 4v6m0 4v6m0 4v6m0 4v6m0 4v6m0 4v6m0 4v6m0 4v6m0 4v6m0 4v6m0 4v6m0 4v6m0 4v6m0 4v6m0 4v6m0 4v3h-3m-4 0h-6m-4 0h-6m-4 0h-6m-4 0h-6m-4 0h-6m-4 0h-6m-4 0h-6m-4 0h-6m-4 0h-6m-4 0h-6m-4 0h-6m-4 0h-6m-4 0h-6m-4 0h-6m-4 0h-6m-4 0h-6m-4 0h-6m-4 0h-6m-4 0h-6m-4 0h-6m-4 0h-6m-4 0h-6m-4 0h-6m-4 0h-6m-4 0h-6m-4 0h-6m-4 0h-6m-4 0h-6m-4 0h-6m-4 0h-3v-3m0-4v-6m0-4v-6m0-4v-6m0-4v-6m0-4v-6m0-4v-6m0-4v-6m0-4v-6m0-4v-6m0-4v-6m0-4v-6m0-4v-6m0-4v-6m0-4v-6m0-4v-6m0-4v-6m0-4v-6m0-4v-6m0-4v-6m0-4v-6m0-4v-6m0-4v-6m0-4v-6m0-4v-6m0-4v-6m0-4v-6m0-4v-6m0-4v-6m0-4v-6m0-4v-6m0-4v-6m0-4v-3h3" stroke="#666" stroke-width="2" fill="none"/><path d="M849 230h200v40H849z" stroke="#000" stroke-opacity="0" stroke-width="2" fill="#fff" fill-opacity="0"/><g><use xlink:href="#u" transform="matrix(1,0,0,1,854,235) translate(27.625 18.6)"/><use xlink:href="#v" transform="matrix(1,0,0,1,854,235) translate(105.525 18.6)"/></g><defs><path d="M205 0l-28-72H64L36 0H1l101-248h38L239 0h-34zm-38-99l-47-123c-12 45-31 82-46 123h93" id="w"/><path d="M177-190C167-65 218 103 67 71c-23-6-38-20-44-43l32-5c15 47 100 32 89-28v-30C133-14 115 1 83 1 29 1 15-40 15-95c0-56 16-97 71-98 29-1 48 16 59 35 1-10 0-23 2-32h30zM94-22c36 0 50-32 50-73 0-42-14-75-50-75-39 0-46 34-46 75s6 73 46 73" id="x"/><path d="M100-194c63 0 86 42 84 106H49c0 40 14 67 53 68 26 1 43-12 49-29l28 8c-11 28-37 45-77 45C44 4 14-33 15-96c1-61 26-98 85-98zm52 81c6-60-76-77-97-28-3 7-6 17-6 28h103" id="y"/><path d="M117-194c89-4 53 116 60 194h-32v-121c0-31-8-49-39-48C34-167 62-67 57 0H25l-1-190h30c1 10-1 24 2 32 11-22 29-35 61-36" id="z"/><path d="M59-47c-2 24 18 29 38 22v24C64 9 27 4 27-40v-127H5v-23h24l9-43h21v43h35v23H59v120" id="A"/><g id="a"><use transform="matrix(0.05,0,0,0.05,0,0)" xlink:href="#w"/><use transform="matrix(0.05,0,0,0.05,12,0)" xlink:href="#x"/><use transform="matrix(0.05,0,0,0.05,22,0)" xlink:href="#y"/><use transform="matrix(0.05,0,0,0.05,32,0)" xlink:href="#z"/><use transform="matrix(0.05,0,0,0.05,42,0)" xlink:href="#A"/></g><path d="M185-189c-5-48-123-54-124 2 14 75 158 14 163 119 3 78-121 87-175 55-17-10-28-26-33-46l33-7c5 56 141 63 141-1 0-78-155-14-162-118-5-82 145-84 179-34 5 7 8 16 11 25" id="B"/><path d="M126-127c33 6 58 20 58 59 0 88-139 92-164 29-3-8-5-16-6-25l32-3c6 27 21 44 54 44 32 0 52-15 52-46 0-38-36-46-79-43v-28c39 1 72-4 72-42 0-27-17-43-46-43-28 0-47 15-49 41l-32-3c6-42 35-63 81-64 48-1 79 21 79 65 0 36-21 52-52 59" id="C"/><path d="M0 4l72-265h28L28 4H0" id="D"/><path d="M197 0v-115H63V0H30v-248h33v105h134v-105h34V0h-34" id="E"/><path d="M30-248c118-7 216 8 213 122C240-48 200 0 122 0H30v-248zM63-27c89 8 146-16 146-99s-60-101-146-95v194" id="F"/><path d="M63-220v92h138v28H63V0H30v-248h175v28H63" id="G"/><g id="b"><use transform="matrix(0.05,0,0,0.05,0,0)" xlink:href="#B"/><use transform="matrix(0.05,0,0,0.05,12,0)" xlink:href="#C"/><use transform="matrix(0.05,0,0,0.05,22,0)" xlink:href="#D"/><use transform="matrix(0.05,0,0,0.05,27,0)" xlink:href="#E"/><use transform="matrix(0.05,0,0,0.05,39.95,0)" xlink:href="#F"/><use transform="matrix(0.05,0,0,0.05,52.900000000000006,0)" xlink:href="#G"/><use transform="matrix(0.05,0,0,0.05,63.85,0)" xlink:href="#B"/></g><path fill="#3aa6dd" d="M85-194c31 0 48 13 60 33l-1-100h32l1 261h-30c-2-10 0-23-3-31C134-8 116 4 85 4 32 4 16-35 15-94c0-66 23-100 70-100zm9 24c-40 0-46 34-46 75 0 40 6 74 45 74 42 0 51-32 51-76 0-42-9-74-50-73" id="H"/><path fill="#3aa6dd" d="M100-194c62-1 85 37 85 99 1 63-27 99-86 99S16-35 15-95c0-66 28-99 85-99zM99-20c44 1 53-31 53-75 0-43-8-75-51-75s-53 32-53 75 10 74 51 75" id="I"/><path fill="#3aa6dd" d="M96-169c-40 0-48 33-48 73s9 75 48 75c24 0 41-14 43-38l32 2c-6 37-31 61-74 61-59 0-76-41-82-99-10-93 101-131 147-64 4 7 5 14 7 22l-32 3c-4-21-16-35-41-35" id="J"/><path fill="#3aa6dd" d="M143 0L79-87 56-68V0H24v-261h32v163l83-92h37l-77 82L181 0h-38" id="K"/><path fill="#3aa6dd" d="M100-194c63 0 86 42 84 106H49c0 40 14 67 53 68 26 1 43-12 49-29l28 8c-11 28-37 45-77 45C44 4 14-33 15-96c1-61 26-98 85-98zm52 81c6-60-76-77-97-28-3 7-6 17-6 28h103" id="L"/><path fill="#3aa6dd" d="M114-163C36-179 61-72 57 0H25l-1-190h30c1 12-1 29 2 39 6-27 23-49 58-41v29" id="M"/><g id="c"><use transform="matrix(0.05,0,0,0.05,0,0)" xlink:href="#H"/><use transform="matrix(0.05,0,0,0.05,10,0)" xlink:href="#I"/><use transform="matrix(0.05,0,0,0.05,20,0)" xlink:href="#J"/><use transform="matrix(0.05,0,0,0.05,29,0)" xlink:href="#K"/><use transform="matrix(0.05,0,0,0.05,38,0)" xlink:href="#L"/><use transform="matrix(0.05,0,0,0.05,48,0)" xlink:href="#M"/></g><path fill="#3aa6dd" d="M115-194c55 1 70 41 70 98S169 2 115 4C84 4 66-9 55-30l1 105H24l-1-265h31l2 30c10-21 28-34 59-34zm-8 174c40 0 45-34 45-75s-6-73-45-74c-42 0-51 32-51 76 0 43 10 73 51 73" id="N"/><path fill="#3aa6dd" d="M84 4C-5 8 30-112 23-190h32v120c0 31 7 50 39 49 72-2 45-101 50-169h31l1 190h-30c-1-10 1-25-2-33-11 22-28 36-60 37" id="O"/><path fill="#3aa6dd" d="M135-143c-3-34-86-38-87 0 15 53 115 12 119 90S17 21 10-45l28-5c4 36 97 45 98 0-10-56-113-15-118-90-4-57 82-63 122-42 12 7 21 19 24 35" id="P"/><path fill="#3aa6dd" d="M106-169C34-169 62-67 57 0H25v-261h32l-1 103c12-21 28-36 61-36 89 0 53 116 60 194h-32v-121c2-32-8-49-39-48" id="Q"/><g id="d"><use transform="matrix(0.05,0,0,0.05,0,0)" xlink:href="#N"/><use transform="matrix(0.05,0,0,0.05,10,0)" xlink:href="#O"/><use transform="matrix(0.05,0,0,0.05,20,0)" xlink:href="#P"/><use transform="matrix(0.05,0,0,0.05,29,0)" xlink:href="#Q"/></g><path fill="#3aa6dd" d="M24 0v-261h32V0H24" id="R"/><g id="e"><use transform="matrix(0.05,0,0,0.05,0,0)" xlink:href="#N"/><use transform="matrix(0.05,0,0,0.05,10,0)" xlink:href="#O"/><use transform="matrix(0.05,0,0,0.05,20,0)" xlink:href="#R"/><use transform="matrix(0.05,0,0,0.05,23.95,0)" xlink:href="#R"/></g><path d="M127-220V0H93v-220H8v-28h204v28h-85" id="S"/><path d="M114-163C36-179 61-72 57 0H25l-1-190h30c1 12-1 29 2 39 6-27 23-49 58-41v29" id="T"/><path d="M141-36C126-15 110 5 73 4 37 3 15-17 15-53c-1-64 63-63 125-63 3-35-9-54-41-54-24 1-41 7-42 31l-33-3c5-37 33-52 76-52 45 0 72 20 72 64v82c-1 20 7 32 28 27v20c-31 9-61-2-59-35zM48-53c0 20 12 33 32 33 41-3 63-29 60-74-43 2-92-5-92 41" id="U"/><path d="M96-169c-40 0-48 33-48 73s9 75 48 75c24 0 41-14 43-38l32 2c-6 37-31 61-74 61-59 0-76-41-82-99-10-93 101-131 147-64 4 7 5 14 7 22l-32 3c-4-21-16-35-41-35" id="V"/><path d="M143 0L79-87 56-68V0H24v-261h32v163l83-92h37l-77 82L181 0h-38" id="W"/><g id="f"><use transform="matrix(0.05,0,0,0.05,0,0)" xlink:href="#S"/><use transform="matrix(0.05,0,0,0.05,10.3,0)" xlink:href="#T"/><use transform="matrix(0.05,0,0,0.05,16.25,0)" xlink:href="#U"/><use transform="matrix(0.05,0,0,0.05,26.25,0)" xlink:href="#V"/><use transform="matrix(0.05,0,0,0.05,35.25,0)" xlink:href="#W"/><use transform="matrix(0.05,0,0,0.05,44.25,0)" xlink:href="#y"/><use transform="matrix(0.05,0,0,0.05,54.25,0)" xlink:href="#T"/></g><path d="M160-131c35 5 61 23 61 61C221 17 115-2 30 0v-248c76 3 177-17 177 60 0 33-19 50-47 57zm-97-11c50-1 110 9 110-42 0-47-63-36-110-37v79zm0 115c55-2 124 14 124-45 0-56-70-42-124-44v89" id="X"/><path d="M84 4C-5 8 30-112 23-190h32v120c0 31 7 50 39 49 72-2 45-101 50-169h31l1 190h-30c-1-10 1-25-2-33-11 22-28 36-60 37" id="Y"/><path d="M24-231v-30h32v30H24zM24 0v-190h32V0H24" id="Z"/><path d="M24 0v-261h32V0H24" id="aa"/><path d="M85-194c31 0 48 13 60 33l-1-100h32l1 261h-30c-2-10 0-23-3-31C134-8 116 4 85 4 32 4 16-35 15-94c0-66 23-100 70-100zm9 24c-40 0-46 34-46 75 0 40 6 74 45 74 42 0 51-32 51-76 0-42-9-74-50-73" id="ab"/><g id="g"><use transform="matrix(0.05,0,0,0.05,0,0)" xlink:href="#X"/><use transform="matrix(0.05,0,0,0.05,12,0)" xlink:href="#Y"/><use transform="matrix(0.05,0,0,0.05,22,0)" xlink:href="#Z"/><use transform="matrix(0.05,0,0,0.05,25.950000000000003,0)" xlink:href="#aa"/><use transform="matrix(0.05,0,0,0.05,29.899999999999995,0)" xlink:href="#ab"/></g><path d="M33 0v-248h34V0H33" id="ac"/><path d="M141 0L90-78 38 0H4l68-98-65-92h35l48 74 47-74h35l-64 92 68 98h-35" id="ad"/><g id="h"><use transform="matrix(0.05,0,0,0.05,0,0)" xlink:href="#ac"/><use transform="matrix(0.05,0,0,0.05,5,0)" xlink:href="#z"/><use transform="matrix(0.05,0,0,0.05,15,0)" xlink:href="#ab"/><use transform="matrix(0.05,0,0,0.05,25,0)" xlink:href="#y"/><use transform="matrix(0.05,0,0,0.05,35,0)" xlink:href="#ad"/></g><path d="M140-251c81 0 123 46 123 126C263-46 219 4 140 4 59 4 17-45 17-125s42-126 123-126zm0 227c63 0 89-41 89-101s-29-99-89-99c-61 0-89 39-89 99S79-25 140-24" id="ae"/><g id="i"><use transform="matrix(0.05,0,0,0.05,0,0)" xlink:href="#ae"/><use transform="matrix(0.05,0,0,0.05,14,0)" xlink:href="#T"/><use transform="matrix(0.05,0,0,0.05,19.95,0)" xlink:href="#Z"/><use transform="matrix(0.05,0,0,0.05,23.9,0)" xlink:href="#x"/><use transform="matrix(0.05,0,0,0.05,33.9,0)" xlink:href="#Z"/><use transform="matrix(0.05,0,0,0.05,37.85,0)" xlink:href="#z"/></g><path d="M30-248c87 1 191-15 191 75 0 78-77 80-158 76V0H30v-248zm33 125c57 0 124 11 124-50 0-59-68-47-124-48v98" id="af"/><path d="M100-194c62-1 85 37 85 99 1 63-27 99-86 99S16-35 15-95c0-66 28-99 85-99zM99-20c44 1 53-31 53-75 0-43-8-75-51-75s-53 32-53 75 10 74 51 75" id="ag"/><path d="M179-190L93 31C79 59 56 82 12 73V49c39 6 53-20 64-50L1-190h34L92-34l54-156h33" id="ah"/><g id="j"><use transform="matrix(0.05,0,0,0.05,0,0)" xlink:href="#af"/><use transform="matrix(0.05,0,0,0.05,12,0)" xlink:href="#T"/><use transform="matrix(0.05,0,0,0.05,17.95,0)" xlink:href="#ag"/><use transform="matrix(0.05,0,0,0.05,27.950000000000003,0)" xlink:href="#ad"/><use transform="matrix(0.05,0,0,0.05,36.95,0)" xlink:href="#ah"/></g><path d="M143 4C61 4 22-44 18-125c-5-107 100-154 193-111 17 8 29 25 37 43l-32 9c-13-25-37-40-76-40-61 0-88 39-88 99 0 61 29 100 91 101 35 0 62-11 79-27v-45h-74v-28h105v86C228-13 192 4 143 4" id="ai"/><g id="k"><use transform="matrix(0.05,0,0,0.05,0,0)" xlink:href="#ai"/><use transform="matrix(0.05,0,0,0.05,14,0)" xlink:href="#y"/><use transform="matrix(0.05,0,0,0.05,24,0)" xlink:href="#A"/></g><path d="M135-143c-3-34-86-38-87 0 15 53 115 12 119 90S17 21 10-45l28-5c4 36 97 45 98 0-10-56-113-15-118-90-4-57 82-63 122-42 12 7 21 19 24 35" id="aj"/><g id="l"><use transform="matrix(0.05,0,0,0.05,0,0)" xlink:href="#aj"/><use transform="matrix(0.05,0,0,0.05,9,0)" xlink:href="#y"/><use transform="matrix(0.05,0,0,0.05,19,0)" xlink:href="#y"/><use transform="matrix(0.05,0,0,0.05,29,0)" xlink:href="#ab"/><use transform="matrix(0.05,0,0,0.05,39,0)" xlink:href="#y"/><use transform="matrix(0.05,0,0,0.05,49,0)" xlink:href="#T"/><use transform="matrix(0.05,0,0,0.05,54.95,0)" xlink:href="#aj"/></g><g id="m"><use transform="matrix(0.05,0,0,0.05,0,0)" xlink:href="#af"/><use transform="matrix(0.05,0,0,0.05,12,0)" xlink:href="#Y"/><use transform="matrix(0.05,0,0,0.05,22,0)" xlink:href="#A"/></g><g id="n"><use transform="matrix(0.05,0,0,0.05,0,0)" xlink:href="#A"/><use transform="matrix(0.05,0,0,0.05,5,0)" xlink:href="#U"/><use transform="matrix(0.05,0,0,0.05,15,0)" xlink:href="#x"/><use transform="matrix(0.05,0,0,0.05,25,0)" xlink:href="#aj"/></g><g id="o"><use transform="matrix(0.05,0,0,0.05,0,0)" xlink:href="#af"/><use transform="matrix(0.05,0,0,0.05,12,0)" xlink:href="#Y"/><use transform="matrix(0.05,0,0,0.05,22,0)" xlink:href="#A"/></g><path d="M115-194c53 0 69 39 70 98 0 66-23 100-70 100C84 3 66-7 56-30L54 0H23l1-261h32v101c10-23 28-34 59-34zm-8 174c40 0 45-34 45-75 0-40-5-75-45-74-42 0-51 32-51 76 0 43 10 73 51 73" id="ak"/><g id="p"><use transform="matrix(0.05,0,0,0.05,0,0)" xlink:href="#ak"/><use transform="matrix(0.05,0,0,0.05,10,0)" xlink:href="#aa"/><use transform="matrix(0.05,0,0,0.05,13.949999999999998,0)" xlink:href="#ag"/><use transform="matrix(0.05,0,0,0.05,23.95,0)" xlink:href="#ak"/><use transform="matrix(0.05,0,0,0.05,33.95,0)" xlink:href="#aj"/></g><g id="q"><use transform="matrix(0.05,0,0,0.05,0,0)" xlink:href="#A"/><use transform="matrix(0.05,0,0,0.05,5,0)" xlink:href="#U"/><use transform="matrix(0.05,0,0,0.05,15,0)" xlink:href="#x"/><use transform="matrix(0.05,0,0,0.05,25,0)" xlink:href="#aj"/></g><g id="r"><use transform="matrix(0.05,0,0,0.05,0,0)" xlink:href="#B"/><use transform="matrix(0.05,0,0,0.05,12,0)" xlink:href="#y"/><use transform="matrix(0.05,0,0,0.05,22,0)" xlink:href="#y"/><use transform="matrix(0.05,0,0,0.05,32,0)" xlink:href="#ab"/></g><path d="M115-194c55 1 70 41 70 98S169 2 115 4C84 4 66-9 55-30l1 105H24l-1-265h31l2 30c10-21 28-34 59-34zm-8 174c40 0 45-34 45-75s-6-73-45-74c-42 0-51 32-51 76 0 43 10 73 51 73" id="al"/><g id="s"><use transform="matrix(0.05,0,0,0.05,0,0)" xlink:href="#al"/><use transform="matrix(0.05,0,0,0.05,10,0)" xlink:href="#y"/><use transform="matrix(0.05,0,0,0.05,20,0)" xlink:href="#y"/><use transform="matrix(0.05,0,0,0.05,30,0)" xlink:href="#T"/><use transform="matrix(0.05,0,0,0.05,35.95,0)" xlink:href="#aj"/></g><path d="M101-251c82-7 93 87 43 132L82-64C71-53 59-42 53-27h129V0H18c2-99 128-94 128-182 0-28-16-43-45-43s-46 15-49 41l-32-3c6-41 34-60 81-64" id="am"/><g id="t"><use transform="matrix(0.05,0,0,0.05,0,0)" xlink:href="#af"/><use transform="matrix(0.05,0,0,0.05,12,0)" xlink:href="#am"/><use transform="matrix(0.05,0,0,0.05,22,0)" xlink:href="#af"/></g><path d="M212-179c-10-28-35-45-73-45-59 0-87 40-87 99 0 60 29 101 89 101 43 0 62-24 78-52l27 14C228-24 195 4 139 4 59 4 22-46 18-125c-6-104 99-153 187-111 19 9 31 26 39 46" id="an"/><path d="M210-169c-67 3-38 105-44 169h-31v-121c0-29-5-50-35-48C34-165 62-65 56 0H25l-1-190h30c1 10-1 24 2 32 10-44 99-50 107 0 11-21 27-35 58-36 85-2 47 119 55 194h-31v-121c0-29-5-49-35-48" id="ao"/><g id="u"><use transform="matrix(0.05,0,0,0.05,0,0)" xlink:href="#an"/><use transform="matrix(0.05,0,0,0.05,12.950000000000001,0)" xlink:href="#ag"/><use transform="matrix(0.05,0,0,0.05,22.950000000000003,0)" xlink:href="#ao"/><use transform="matrix(0.05,0,0,0.05,37.900000000000006,0)" xlink:href="#al"/><use transform="matrix(0.05,0,0,0.05,47.900000000000006,0)" xlink:href="#Y"/><use transform="matrix(0.05,0,0,0.05,57.900000000000006,0)" xlink:href="#A"/><use transform="matrix(0.05,0,0,0.05,62.900000000000006,0)" xlink:href="#y"/></g><g id="v"><use transform="matrix(0.05,0,0,0.05,0,0)" xlink:href="#an"/><use transform="matrix(0.05,0,0,0.05,12.950000000000001,0)" xlink:href="#aa"/><use transform="matrix(0.05,0,0,0.05,16.900000000000002,0)" xlink:href="#Y"/><use transform="matrix(0.05,0,0,0.05,26.900000000000002,0)" xlink:href="#aj"/><use transform="matrix(0.05,0,0,0.05,35.900000000000006,0)" xlink:href="#A"/><use transform="matrix(0.05,0,0,0.05,40.900000000000006,0)" xlink:href="#y"/><use transform="matrix(0.05,0,0,0.05,50.900000000000006,0)" xlink:href="#T"/></g></defs></g></svg>