<svg version="1.1" viewBox="0.0 0.0 756.0 361.0" fill="none" stroke="none" stroke-linecap="square" stroke-miterlimit="10" width="756" height="361" xmlns:xlink="http://www.w3.org/1999/xlink" xmlns="http://www.w3.org/2000/svg"><path fill="#ffffff" d="M0 0L756.0 0L756.0 361.0L0 361.0L0 0Z" fill-rule="nonzero"/><path fill="#ffffff" d="M0 0L756.0 0L756.0 361.0L0 361.0L0 0Z" fill-rule="nonzero"/><path stroke="#333333" stroke-width="1.0" stroke-linecap="butt" d="M89.5 265.5L737.5 265.5" fill-rule="nonzero"/><path stroke="#cccccc" stroke-width="1.0" stroke-linecap="butt" d="M89.5 205.5L737.5 205.5" fill-rule="nonzero"/><path stroke="#cccccc" stroke-width="1.0" stroke-linecap="butt" d="M89.5 145.5L737.5 145.5" fill-rule="nonzero"/><path stroke="#cccccc" stroke-width="1.0" stroke-linecap="butt" d="M89.5 85.5L737.5 85.5" fill-rule="nonzero"/><path stroke="#cccccc" stroke-width="1.0" stroke-linecap="butt" d="M89.5 25.5L737.5 25.5" fill-rule="nonzero"/><path stroke="#e6e6e6" stroke-width="1.0" stroke-linecap="butt" d="M89.5 220.5L737.5 220.5" fill-rule="nonzero"/><path stroke="#e6e6e6" stroke-width="1.0" stroke-linecap="butt" d="M89.5 235.5L737.5 235.5" fill-rule="nonzero"/><path stroke="#e6e6e6" stroke-width="1.0" stroke-linecap="butt" d="M89.5 250.5L737.5 250.5" fill-rule="nonzero"/><path stroke="#e6e6e6" stroke-width="1.0" stroke-linecap="butt" d="M89.5 160.5L737.5 160.5" fill-rule="nonzero"/><path stroke="#e6e6e6" stroke-width="1.0" stroke-linecap="butt" d="M89.5 175.5L737.5 175.5" fill-rule="nonzero"/><path stroke="#e6e6e6" stroke-width="1.0" stroke-linecap="butt" d="M89.5 190.5L737.5 190.5" fill-rule="nonzero"/><path stroke="#e6e6e6" stroke-width="1.0" stroke-linecap="butt" d="M89.5 100.5L737.5 100.5" fill-rule="nonzero"/><path stroke="#e6e6e6" stroke-width="1.0" stroke-linecap="butt" d="M89.5 115.5L737.5 115.5" fill-rule="nonzero"/><path stroke="#e6e6e6" stroke-width="1.0" stroke-linecap="butt" d="M89.5 130.5L737.5 130.5" fill-rule="nonzero"/><path stroke="#e6e6e6" stroke-width="1.0" stroke-linecap="butt" d="M89.5 40.5L737.5 40.5" fill-rule="nonzero"/><path stroke="#e6e6e6" stroke-width="1.0" stroke-linecap="butt" d="M89.5 55.5L737.5 55.5" fill-rule="nonzero"/><path stroke="#e6e6e6" stroke-width="1.0" stroke-linecap="butt" d="M89.5 70.5L737.5 70.5" fill-rule="nonzero"/><clipPath id="id_0"><path d="M89.05 25.05L737.95 25.05L737.95 265.95L89.05 265.95L89.05 25.05Z" clip-rule="nonzero"/></clipPath><path stroke="#000000" stroke-width="0.0" stroke-linecap="butt" stroke-opacity="0.0" clip-path="url(#id_0)" d="M129.0 266.0L103.0 266.0L103.0 266.0L129.0 266.0Z" fill-rule="nonzero"/><path fill="#4285f4" clip-path="url(#id_0)" d="M129.0 266.0L103.0 266.0L103.0 266.0L129.0 266.0Z" fill-rule="nonzero"/><path stroke="#000000" stroke-width="0.0" stroke-linecap="butt" stroke-opacity="0.0" clip-path="url(#id_0)" d="M169.0 266.0L143.0 266.0L143.0 266.0L169.0 266.0Z" fill-rule="nonzero"/><path fill="#4285f4" clip-path="url(#id_0)" d="M169.0 266.0L143.0 266.0L143.0 266.0L169.0 266.0Z" fill-rule="nonzero"/><path stroke="#000000" stroke-width="0.0" stroke-linecap="butt" stroke-opacity="0.0" clip-path="url(#id_0)" d="M208.0 266.0L182.0 266.0L182.0 265.5C182.0 265.22385 182.22386 265.0 182.5 265.0L207.5 265.0C207.77614 265.0 208.0 265.22385 208.0 265.5Z" fill-rule="nonzero"/><path fill="#4285f4" clip-path="url(#id_0)" d="M208.0 266.0L182.0 266.0L182.0 265.5C182.0 265.22385 182.22386 265.0 182.5 265.0L207.5 265.0C207.77614 265.0 208.0 265.22385 208.0 265.5Z" fill-rule="nonzero"/><path stroke="#000000" stroke-width="0.0" stroke-linecap="butt" stroke-opacity="0.0" clip-path="url(#id_0)" d="M248.0 266.0L222.0 266.0L222.0 259.0C222.0 257.89542 222.89543 257.0 224.0 257.0L246.0 257.0C247.10457 257.0 248.0 257.89542 248.0 259.0Z" fill-rule="nonzero"/><path fill="#4285f4" clip-path="url(#id_0)" d="M248.0 266.0L222.0 266.0L222.0 259.0C222.0 257.89542 222.89543 257.0 224.0 257.0L246.0 257.0C247.10457 257.0 248.0 257.89542 248.0 259.0Z" fill-rule="nonzero"/><path stroke="#000000" stroke-width="0.0" stroke-linecap="butt" stroke-opacity="0.0" clip-path="url(#id_0)" d="M288.0 266.0L262.0 266.0L262.0 75.0C262.0 73.89543 262.89542 73.0 264.0 73.0L286.0 73.0C287.10458 73.0 288.0 73.89543 288.0 75.0Z" fill-rule="nonzero"/><path fill="#4285f4" clip-path="url(#id_0)" d="M288.0 266.0L262.0 266.0L262.0 75.0C262.0 73.89543 262.89542 73.0 264.0 73.0L286.0 73.0C287.10458 73.0 288.0 73.89543 288.0 75.0Z" fill-rule="nonzero"/><path stroke="#000000" stroke-width="0.0" stroke-linecap="butt" stroke-opacity="0.0" clip-path="url(#id_0)" d="M327.0 266.0L301.0 266.0L301.0 236.0C301.0 234.89543 301.89542 234.0 303.0 234.0L325.0 234.0C326.10458 234.0 327.0 234.89543 327.0 236.0Z" fill-rule="nonzero"/><path fill="#4285f4" clip-path="url(#id_0)" d="M327.0 266.0L301.0 266.0L301.0 236.0C301.0 234.89543 301.89542 234.0 303.0 234.0L325.0 234.0C326.10458 234.0 327.0 234.89543 327.0 236.0Z" fill-rule="nonzero"/><path stroke="#000000" stroke-width="0.0" stroke-linecap="butt" stroke-opacity="0.0" clip-path="url(#id_0)" d="M367.0 266.0L341.0 266.0L341.0 242.0C341.0 240.89543 341.89542 240.0 343.0 240.0L365.0 240.0C366.10458 240.0 367.0 240.89543 367.0 242.0Z" fill-rule="nonzero"/><path fill="#4285f4" clip-path="url(#id_0)" d="M367.0 266.0L341.0 266.0L341.0 242.0C341.0 240.89543 341.89542 240.0 343.0 240.0L365.0 240.0C366.10458 240.0 367.0 240.89543 367.0 242.0Z" fill-rule="nonzero"/><path stroke="#000000" stroke-width="0.0" stroke-linecap="butt" stroke-opacity="0.0" clip-path="url(#id_0)" d="M407.0 266.0L381.0 266.0L381.0 230.0C381.0 228.89543 381.89542 228.0 383.0 228.0L405.0 228.0C406.10458 228.0 407.0 228.89543 407.0 230.0Z" fill-rule="nonzero"/><path fill="#4285f4" clip-path="url(#id_0)" d="M407.0 266.0L381.0 266.0L381.0 230.0C381.0 228.89543 381.89542 228.0 383.0 228.0L405.0 228.0C406.10458 228.0 407.0 228.89543 407.0 230.0Z" fill-rule="nonzero"/><path stroke="#000000" stroke-width="0.0" stroke-linecap="butt" stroke-opacity="0.0" clip-path="url(#id_0)" d="M446.0 266.0L420.0 266.0L420.0 256.0C420.0 254.89543 420.89542 254.0 422.0 254.0L444.0 254.0C445.10458 254.0 446.0 254.89543 446.0 256.0Z" fill-rule="nonzero"/><path fill="#4285f4" clip-path="url(#id_0)" d="M446.0 266.0L420.0 266.0L420.0 256.0C420.0 254.89543 420.89542 254.0 422.0 254.0L444.0 254.0C445.10458 254.0 446.0 254.89543 446.0 256.0Z" fill-rule="nonzero"/><path stroke="#000000" stroke-width="0.0" stroke-linecap="butt" stroke-opacity="0.0" clip-path="url(#id_0)" d="M486.0 266.0L460.0 266.0L460.0 265.0C460.0 264.44772 460.44772 264.0 461.0 264.0L485.0 264.0C485.55228 264.0 486.0 264.44772 486.0 265.0Z" fill-rule="nonzero"/><path fill="#4285f4" clip-path="url(#id_0)" d="M486.0 266.0L460.0 266.0L460.0 265.0C460.0 264.44772 460.44772 264.0 461.0 264.0L485.0 264.0C485.55228 264.0 486.0 264.44772 486.0 265.0Z" fill-rule="nonzero"/><path stroke="#000000" stroke-width="0.0" stroke-linecap="butt" stroke-opacity="0.0" clip-path="url(#id_0)" d="M526.0 266.0L500.0 266.0L500.0 266.0C500.0 266.0 500.0 266.0 500.0 266.0L526.0 266.0C526.0 266.0 526.0 266.0 526.0 266.0Z" fill-rule="nonzero"/><path fill="#4285f4" clip-path="url(#id_0)" d="M526.0 266.0L500.0 266.0L500.0 266.0C500.0 266.0 500.0 266.0 500.0 266.0L526.0 266.0C526.0 266.0 526.0 266.0 526.0 266.0Z" fill-rule="nonzero"/><path stroke="#000000" stroke-width="0.0" stroke-linecap="butt" stroke-opacity="0.0" clip-path="url(#id_0)" d="M565.0 266.0L539.0 266.0L539.0 266.0C539.0 266.0 539.0 266.0 539.0 266.0L565.0 266.0C565.0 266.0 565.0 266.0 565.0 266.0Z" fill-rule="nonzero"/><path fill="#4285f4" clip-path="url(#id_0)" d="M565.0 266.0L539.0 266.0L539.0 266.0C539.0 266.0 539.0 266.0 539.0 266.0L565.0 266.0C565.0 266.0 565.0 266.0 565.0 266.0Z" fill-rule="nonzero"/><path stroke="#000000" stroke-width="0.0" stroke-linecap="butt" stroke-opacity="0.0" clip-path="url(#id_0)" d="M605.0 266.0L579.0 266.0L579.0 266.0C579.0 266.0 579.0 266.0 579.0 266.0L605.0 266.0C605.0 266.0 605.0 266.0 605.0 266.0Z" fill-rule="nonzero"/><path fill="#4285f4" clip-path="url(#id_0)" d="M605.0 266.0L579.0 266.0L579.0 266.0C579.0 266.0 579.0 266.0 579.0 266.0L605.0 266.0C605.0 266.0 605.0 266.0 605.0 266.0Z" fill-rule="nonzero"/><path stroke="#000000" stroke-width="0.0" stroke-linecap="butt" stroke-opacity="0.0" clip-path="url(#id_0)" d="M645.0 266.0L619.0 266.0L619.0 266.0L645.0 266.0Z" fill-rule="nonzero"/><path fill="#4285f4" clip-path="url(#id_0)" d="M645.0 266.0L619.0 266.0L619.0 266.0L645.0 266.0Z" fill-rule="nonzero"/><path stroke="#000000" stroke-width="0.0" stroke-linecap="butt" stroke-opacity="0.0" clip-path="url(#id_0)" d="M684.0 266.0L658.0 266.0L658.0 266.0L684.0 266.0Z" fill-rule="nonzero"/><path fill="#4285f4" clip-path="url(#id_0)" d="M684.0 266.0L658.0 266.0L658.0 266.0L684.0 266.0Z" fill-rule="nonzero"/><path stroke="#000000" stroke-width="0.0" stroke-linecap="butt" stroke-opacity="0.0" clip-path="url(#id_0)" d="M724.0 266.0L698.0 266.0L698.0 266.0C698.0 266.0 698.0 266.0 698.0 266.0L724.0 266.0C724.0 266.0 724.0 266.0 724.0 266.0Z" fill-rule="nonzero"/><path fill="#4285f4" clip-path="url(#id_0)" d="M724.0 266.0L698.0 266.0L698.0 266.0C698.0 266.0 698.0 266.0 698.0 266.0L724.0 266.0C724.0 266.0 724.0 266.0 724.0 266.0Z" fill-rule="nonzero"/><path fill="#424242" d="M688.575 339.95L688.575 331.10626L685.27814 331.10626L685.27814 329.9344L693.21564 329.9344L693.21564 331.10626L689.90314 331.10626L689.90314 339.95L688.575 339.95ZM694.8875 331.34064L694.8875 329.9344L696.10626 329.9344L696.10626 331.34064L694.8875 331.34064ZM694.8875 339.95L694.8875 332.6844L696.10626 332.6844L696.10626 339.95L694.8875 339.95ZM697.8719 339.95L697.8719 332.6844L698.98126 332.6844L698.98126 333.71564Q699.3094 333.16876 699.8719 332.85626Q700.45 332.52814 701.16876 332.52814Q701.98126 332.52814 702.4969 332.8719Q703.0125 333.2 703.23126 333.79376Q704.09064 332.52814 705.46564 332.52814Q706.54376 332.52814 707.1219 333.1219Q707.71564 333.71564 707.71564 334.96564L707.71564 339.95L706.48126 339.95L706.48126 335.3719Q706.48126 334.6375 706.35626 334.3094Q706.2469 333.98126 705.9344 333.79376Q705.6219 333.59064 705.2 333.59064Q704.4344 333.59064 703.91876 334.10626Q703.41876 334.60626 703.41876 335.73126L703.41876 339.95L702.1844 339.95L702.1844 335.23126Q702.1844 334.41876 701.8875 334.0125Q701.59064 333.59064 700.90314 333.59064Q700.3875 333.59064 699.9344 333.8719Q699.4969 334.1375 699.29376 334.66876Q699.10626 335.1844 699.10626 336.1844L699.10626 339.95L697.8719 339.95ZM714.84064 337.60626L716.1219 337.7625Q715.8094 338.8875 714.9969 339.5125Q714.1844 340.1219 712.91876 340.1219Q711.325 340.1219 710.3875 339.1375Q709.46564 338.15314 709.46564 336.3875Q709.46564 334.54376 710.40314 333.54376Q711.35626 332.52814 712.85626 332.52814Q714.3094 332.52814 715.23126 333.52814Q716.15314 334.5125 716.15314 336.3094Q716.15314 336.41876 716.15314 336.6375L710.73126 336.6375Q710.8094 337.825 711.40314 338.46564Q712.0125 339.10626 712.9344 339.10626Q713.60626 339.10626 714.075 338.7469Q714.5594 338.3875 714.84064 337.60626ZM710.8094 335.6219L714.85626 335.6219Q714.77814 334.7 714.3875 334.2469Q713.8094 333.54376 712.8719 333.54376Q712.0125 333.54376 711.4344 334.10626Q710.8719 334.66876 710.8094 335.6219ZM724.23126 342.90314Q723.2 341.60626 722.4969 339.8875Q721.79376 338.16876 721.79376 336.325Q721.79376 334.7 722.325 333.2Q722.9344 331.46564 724.23126 329.7625L725.10626 329.7625Q724.27814 331.1844 724.0125 331.79376Q723.59064 332.73126 723.35626 333.7625Q723.0594 335.02814 723.0594 336.325Q723.0594 339.6219 725.10626 342.90314L724.23126 342.90314ZM726.3875 337.77814L727.59064 337.59064Q727.7 338.325 728.16876 338.71564Q728.6375 339.10626 729.48126 339.10626Q730.325 339.10626 730.73126 338.7625Q731.15314 338.41876 731.15314 337.95Q731.15314 337.52814 730.77814 337.29376Q730.52814 337.1219 729.52814 336.8719Q728.16876 336.52814 727.6375 336.27814Q727.1219 336.02814 726.85626 335.59064Q726.59064 335.15314 726.59064 334.6219Q726.59064 334.1375 726.8094 333.73126Q727.02814 333.3094 727.41876 333.02814Q727.7 332.825 728.1844 332.6844Q728.6844 332.52814 729.2625 332.52814Q730.10626 332.52814 730.7469 332.77814Q731.40314 333.0125 731.71564 333.4344Q732.02814 333.85626 732.1375 334.5594L730.9344 334.73126Q730.85626 334.16876 730.45 333.85626Q730.0594 333.54376 729.34064 333.54376Q728.4969 333.54376 728.1375 333.825Q727.77814 334.09064 727.77814 334.48126Q727.77814 334.71564 727.91876 334.90314Q728.075 335.10626 728.40314 335.23126Q728.575 335.29376 729.48126 335.54376Q730.79376 335.90314 731.3094 336.1219Q731.825 336.34064 732.10626 336.7625Q732.40314 337.1844 732.40314 337.8094Q732.40314 338.4344 732.04376 338.98126Q731.7 339.5125 731.0125 339.825Q730.34064 340.1219 729.48126 340.1219Q728.075 340.1219 727.325 339.52814Q726.59064 338.9344 726.3875 337.77814ZM734.6844 342.90314L733.79376 342.90314Q735.84064 339.6219 735.84064 336.325Q735.84064 335.04376 735.54376 333.77814Q735.3094 332.7469 734.90314 331.8094Q734.6375 331.2 733.79376 329.7625L734.6844 329.7625Q735.96564 331.46564 736.575 333.2Q737.10626 334.7 737.10626 336.325Q737.10626 338.16876 736.3875 339.8875Q735.6844 341.60626 734.6844 342.90314Z" fill-rule="nonzero"/><path fill="#424242" d="M31.050013 195.92188L21.034388 195.92188L21.034388 192.46875Q21.034388 191.29688 21.175013 190.6875Q21.362513 189.82812 21.893763 189.21875Q22.565638 188.42188 23.612513 188.03125Q24.643763 187.64062 25.987513 187.64062Q27.128138 187.64062 28.018763 187.90625Q28.893763 188.17188 29.471888 188.59375Q30.050013 189.0 30.378138 189.5Q30.706263 190.0 30.878138 190.70312Q31.050013 191.39062 31.050013 192.29688L31.050013 195.92188ZM29.862513 194.59375L29.862513 192.45312Q29.862513 191.46875 29.690638 190.90625Q29.503138 190.32812 29.159388 190.0Q28.690638 189.53125 27.893763 189.26562Q27.096888 189.0 25.956263 189.0Q24.393763 189.0 23.550013 189.51562Q22.706263 190.03125 22.409388 190.76562Q22.206263 191.3125 22.206263 192.48438L22.206263 194.59375L29.862513 194.59375ZM27.425013 186.53125Q25.409388 186.53125 24.425013 185.40625Q23.628138 184.48438 23.628138 183.125Q23.628138 181.64062 24.612513 180.6875Q25.581263 179.73438 27.315638 179.73438Q28.721888 179.73438 29.534388 180.15625Q30.331263 180.57812 30.784388 181.39062Q31.221888 182.1875 31.221888 183.125Q31.221888 184.65625 30.237513 185.59375Q29.253138 186.53125 27.425013 186.53125ZM27.425013 185.26562Q28.815638 185.26562 29.518763 184.65625Q30.206263 184.04688 30.206263 183.125Q30.206263 182.21875 29.503138 181.60938Q28.800013 181.0 27.378138 181.0Q26.034388 181.0 25.346888 181.60938Q24.643763 182.21875 24.643763 183.125Q24.643763 184.04688 25.331263 184.65625Q26.018763 185.26562 27.425013 185.26562ZM31.050013 176.73438L23.784388 178.95312L23.784388 177.6875L27.987513 176.53125L29.534388 176.09375Q29.425013 176.07812 28.034388 175.71875L23.784388 174.5625L23.784388 173.3125L28.003138 172.21875L29.393763 171.85938L27.987513 171.4375L23.784388 170.1875L23.784388 169.0L31.050013 171.26562L31.050013 172.54688L26.706263 173.70312L25.471888 173.98438L31.050013 175.45312L31.050013 176.73438ZM31.050013 168.07812L23.784388 168.07812L23.784388 166.96875L24.815638 166.96875Q23.628138 166.17188 23.628138 164.65625Q23.628138 164.0 23.862513 163.45312Q24.096888 162.90625 24.487513 162.64062Q24.862513 162.35938 25.393763 162.25Q25.737513 162.17188 26.581263 162.17188L31.050013 162.17188L31.050013 163.40625L26.628138 163.40625Q25.878138 163.40625 25.518763 163.54688Q25.143763 163.6875 24.925013 164.0625Q24.690638 164.42188 24.690638 164.92188Q24.690638 165.70312 25.190638 166.28125Q25.690638 166.84375 27.081263 166.84375L31.050013 166.84375L31.050013 168.07812ZM31.050013 160.10938L21.034388 160.10938L21.034388 158.875L31.050013 158.875L31.050013 160.10938ZM27.425013 157.53125Q25.409388 157.53125 24.425013 156.40625Q23.628138 155.48438 23.628138 154.125Q23.628138 152.64062 24.612513 151.6875Q25.581263 150.73438 27.315638 150.73438Q28.721888 150.73438 29.534388 151.15625Q30.331263 151.57812 30.784388 152.39062Q31.221888 153.1875 31.221888 154.125Q31.221888 155.65625 30.237513 156.59375Q29.253138 157.53125 27.425013 157.53125ZM27.425013 156.26562Q28.815638 156.26562 29.518763 155.65625Q30.206263 155.04688 30.206263 154.125Q30.206263 153.21875 29.503138 152.60938Q28.800013 152.0 27.378138 152.0Q26.034388 152.0 25.346888 152.60938Q24.643763 153.21875 24.643763 154.125Q24.643763 155.04688 25.331263 155.65625Q26.018763 156.26562 27.425013 156.26562ZM30.159388 144.34375Q30.737513 145.01562 30.987513 145.65625Q31.221888 146.28125 31.221888 147.01562Q31.221888 148.20312 30.643763 148.85938Q30.050013 149.5 29.128138 149.5Q28.596888 149.5 28.159388 149.26562Q27.721888 149.01562 27.456263 148.625Q27.190638 148.21875 27.050013 147.73438Q26.956263 147.375 26.862513 146.64062Q26.690638 145.14062 26.440638 144.4375Q26.190638 144.4375 26.128138 144.4375Q25.362513 144.4375 25.065638 144.78125Q24.643763 145.25 24.643763 146.1875Q24.643763 147.04688 24.956263 147.46875Q25.253138 147.875 26.018763 148.07812L25.862513 149.28125Q25.081263 149.125 24.612513 148.75Q24.143763 148.35938 23.893763 147.65625Q23.628138 146.9375 23.628138 146.0Q23.628138 145.07812 23.846888 144.5Q24.065638 143.92188 24.393763 143.65625Q24.721888 143.375 25.237513 143.26562Q25.550013 143.20312 26.362513 143.20312L28.003138 143.20312Q29.721888 143.20312 30.175013 143.125Q30.628138 143.04688 31.050013 142.8125L31.050013 144.09375Q30.659388 144.28125 30.159388 144.34375ZM27.409388 144.4375Q27.675013 145.10938 27.878138 146.45312Q27.987513 147.20312 28.128138 147.53125Q28.253138 147.84375 28.518763 148.01562Q28.784388 148.1875 29.096888 148.1875Q29.596888 148.1875 29.925013 147.8125Q30.253138 147.4375 30.253138 146.71875Q30.253138 146.0 29.940638 145.45312Q29.628138 144.90625 29.081263 144.64062Q28.675013 144.4375 27.862513 144.4375L27.409388 144.4375ZM31.050013 136.35938L30.128138 136.35938Q31.221888 137.0625 31.221888 138.39062Q31.221888 139.26562 30.737513 140.0Q30.253138 140.71875 29.393763 141.125Q28.534388 141.51562 27.425013 141.51562Q26.346888 141.51562 25.456263 141.15625Q24.565638 140.79688 24.096888 140.07812Q23.628138 139.34375 23.628138 138.45312Q23.628138 137.79688 23.909388 137.28125Q24.175013 136.76562 24.628138 136.45312L21.034388 136.45312L21.034388 135.21875L31.050013 135.21875L31.050013 136.35938ZM27.425013 140.25Q28.815638 140.25 29.518763 139.67188Q30.206263 139.07812 30.206263 138.28125Q30.206263 137.46875 29.550013 136.90625Q28.878138 136.34375 27.534388 136.34375Q26.034388 136.34375 25.346888 136.92188Q24.643763 137.5 24.643763 138.32812Q24.643763 139.15625 25.315638 139.70312Q25.987513 140.25 27.425013 140.25ZM28.878138 133.5625L28.690638 132.35938Q29.425013 132.25 29.815638 131.78125Q30.206263 131.3125 30.206263 130.46875Q30.206263 129.625 29.862513 129.21875Q29.518763 128.79688 29.050013 128.79688Q28.628138 128.79688 28.393763 129.17188Q28.221888 129.42188 27.971888 130.42188Q27.628138 131.78125 27.378138 132.3125Q27.128138 132.82812 26.690638 133.09375Q26.253138 133.35938 25.721888 133.35938Q25.237513 133.35938 24.831263 133.14062Q24.409388 132.92188 24.128138 132.53125Q23.925013 132.25 23.784388 131.76562Q23.628138 131.26562 23.628138 130.6875Q23.628138 129.84375 23.878138 129.20312Q24.112513 128.54688 24.534388 128.23438Q24.956263 127.921875 25.659388 127.8125L25.831263 129.01562Q25.268763 129.09375 24.956263 129.5Q24.643763 129.89062 24.643763 130.60938Q24.643763 131.45312 24.925013 131.8125Q25.190638 132.17188 25.581263 132.17188Q25.815638 132.17188 26.003138 132.03125Q26.206263 131.875 26.331263 131.54688Q26.393763 131.375 26.643763 130.46875Q27.003138 129.15625 27.221888 128.64062Q27.440638 128.125 27.862513 127.84375Q28.284388 127.546875 28.909388 127.546875Q29.534388 127.546875 30.081263 127.90625Q30.612513 128.25 30.925013 128.9375Q31.221888 129.60938 31.221888 130.46875Q31.221888 131.875 30.628138 132.625Q30.034388 133.35938 28.878138 133.5625Z" fill-rule="nonzero"/><path fill="#757575" d="M76.55 265.71564Q76.55 264.1844 76.8625 263.2625Q77.175 262.325 77.78438 261.825Q78.40938 261.325 79.34688 261.325Q80.03438 261.325 80.55 261.60626Q81.08125 261.8875 81.425 262.41876Q81.76875 262.9344 81.95625 263.6844Q82.14375 264.4344 82.14375 265.71564Q82.14375 267.23126 81.83125 268.15314Q81.53438 269.075 80.90938 269.59064Q80.3 270.09064 79.34688 270.09064Q78.1125 270.09064 77.39375 269.2Q76.55 268.1375 76.55 265.71564ZM77.62813 265.71564Q77.62813 267.825 78.12813 268.52814Q78.62813 269.23126 79.34688 269.23126Q80.08125 269.23126 80.56563 268.52814Q81.06563 267.825 81.06563 265.71564Q81.06563 263.59064 80.56563 262.90314Q80.08125 262.2 79.33125 262.2Q78.6125 262.2 78.175 262.8094Q77.62813 263.59064 77.62813 265.71564Z" fill-rule="nonzero"/><path fill="#757575" d="M59.51875 209.725L58.471874 209.725L58.471874 203.00626Q58.08125 203.36563 57.45625 203.74063Q56.846874 204.1 56.3625 204.27188L56.3625 203.25626Q57.2375 202.83438 57.89375 202.25626Q58.565624 201.6625 58.846874 201.1L59.51875 201.1L59.51875 209.725ZM62.55 205.49063Q62.55 203.95938 62.8625 203.0375Q63.175 202.1 63.784374 201.6Q64.40938 201.1 65.34688 201.1Q66.03438 201.1 66.55 201.38126Q67.08125 201.6625 67.425 202.19376Q67.76875 202.70938 67.95625 203.45938Q68.14375 204.20938 68.14375 205.49063Q68.14375 207.00626 67.83125 207.92813Q67.53438 208.85 66.90938 209.36563Q66.3 209.86563 65.34688 209.86563Q64.1125 209.86563 63.39375 208.975Q62.55 207.9125 62.55 205.49063ZM63.628124 205.49063Q63.628124 207.6 64.12813 208.30313Q64.62813 209.00626 65.34688 209.00626Q66.08125 209.00626 66.56563 208.30313Q67.06563 207.6 67.06563 205.49063Q67.06563 203.36563 66.56563 202.67813Q66.08125 201.975 65.33125 201.975Q64.6125 201.975 64.175 202.58438Q63.628124 203.36563 63.628124 205.49063ZM69.55 205.49063Q69.55 203.95938 69.8625 203.0375Q70.175 202.1 70.78438 201.6Q71.40938 201.1 72.34688 201.1Q73.03438 201.1 73.55 201.38126Q74.08125 201.6625 74.425 202.19376Q74.76875 202.70938 74.95625 203.45938Q75.14375 204.20938 75.14375 205.49063Q75.14375 207.00626 74.83125 207.92813Q74.53438 208.85 73.90938 209.36563Q73.3 209.86563 72.34688 209.86563Q71.1125 209.86563 70.39375 208.975Q69.55 207.9125 69.55 205.49063ZM70.62813 205.49063Q70.62813 207.6 71.12813 208.30313Q71.62813 209.00626 72.34688 209.00626Q73.08125 209.00626 73.56563 208.30313Q74.06563 207.6 74.06563 205.49063Q74.06563 203.36563 73.56563 202.67813Q73.08125 201.975 72.33125 201.975Q71.6125 201.975 71.175 202.58438Q70.62813 203.36563 70.62813 205.49063ZM76.55 205.49063Q76.55 203.95938 76.8625 203.0375Q77.175 202.1 77.78438 201.6Q78.40938 201.1 79.34688 201.1Q80.03438 201.1 80.55 201.38126Q81.08125 201.6625 81.425 202.19376Q81.76875 202.70938 81.95625 203.45938Q82.14375 204.20938 82.14375 205.49063Q82.14375 207.00626 81.83125 207.92813Q81.53438 208.85 80.90938 209.36563Q80.3 209.86563 79.34688 209.86563Q78.1125 209.86563 77.39375 208.975Q76.55 207.9125 76.55 205.49063ZM77.62813 205.49063Q77.62813 207.6 78.12813 208.30313Q78.62813 209.00626 79.34688 209.00626Q80.08125 209.00626 80.56563 208.30313Q81.06563 207.6 81.06563 205.49063Q81.06563 203.36563 80.56563 202.67813Q80.08125 201.975 79.33125 201.975Q78.6125 201.975 78.175 202.58438Q77.62813 203.36563 77.62813 205.49063Z" fill-rule="nonzero"/><path fill="#757575" d="M61.096874 148.48438L61.096874 149.5L55.409374 149.5Q55.409374 149.125 55.534374 148.76562Q55.753124 148.1875 56.221874 147.625Q56.70625 147.0625 57.6125 146.32812Q59.01875 145.17188 59.503124 144.5Q60.003124 143.82812 60.003124 143.23438Q60.003124 142.60938 59.55 142.1875Q59.096874 141.75 58.378124 141.75Q57.6125 141.75 57.159374 142.20312Q56.70625 142.65625 56.690624 143.46875L55.6125 143.35938Q55.721874 142.14062 56.440624 141.51562Q57.175 140.875 58.409374 140.875Q59.64375 140.875 60.3625 141.5625Q61.08125 142.25 61.08125 143.26562Q61.08125 143.78125 60.8625 144.28125Q60.659374 144.76562 60.159374 145.32812Q59.675 145.875 58.55 146.82812Q57.596874 147.625 57.315624 147.92188Q57.05 148.20312 56.878124 148.48438L61.096874 148.48438ZM62.55 145.26562Q62.55 143.73438 62.8625 142.8125Q63.175 141.875 63.784374 141.375Q64.40938 140.875 65.34688 140.875Q66.03438 140.875 66.55 141.15625Q67.08125 141.4375 67.425 141.96875Q67.76875 142.48438 67.95625 143.23438Q68.14375 143.98438 68.14375 145.26562Q68.14375 146.78125 67.83125 147.70312Q67.53438 148.625 66.90938 149.14062Q66.3 149.64062 65.34688 149.64062Q64.1125 149.64062 63.39375 148.75Q62.55 147.6875 62.55 145.26562ZM63.628124 145.26562Q63.628124 147.375 64.12813 148.07812Q64.62813 148.78125 65.34688 148.78125Q66.08125 148.78125 66.56563 148.07812Q67.06563 147.375 67.06563 145.26562Q67.06563 143.14062 66.56563 142.45312Q66.08125 141.75 65.33125 141.75Q64.6125 141.75 64.175 142.35938Q63.628124 143.14062 63.628124 145.26562ZM69.55 145.26562Q69.55 143.73438 69.8625 142.8125Q70.175 141.875 70.78438 141.375Q71.40938 140.875 72.34688 140.875Q73.03438 140.875 73.55 141.15625Q74.08125 141.4375 74.425 141.96875Q74.76875 142.48438 74.95625 143.23438Q75.14375 143.98438 75.14375 145.26562Q75.14375 146.78125 74.83125 147.70312Q74.53438 148.625 73.90938 149.14062Q73.3 149.64062 72.34688 149.64062Q71.1125 149.64062 70.39375 148.75Q69.55 147.6875 69.55 145.26562ZM70.62813 145.26562Q70.62813 147.375 71.12813 148.07812Q71.62813 148.78125 72.34688 148.78125Q73.08125 148.78125 73.56563 148.07812Q74.06563 147.375 74.06563 145.26562Q74.06563 143.14062 73.56563 142.45312Q73.08125 141.75 72.33125 141.75Q71.6125 141.75 71.175 142.35938Q70.62813 143.14062 70.62813 145.26562ZM76.55 145.26562Q76.55 143.73438 76.8625 142.8125Q77.175 141.875 77.78438 141.375Q78.40938 140.875 79.34688 140.875Q80.03438 140.875 80.55 141.15625Q81.08125 141.4375 81.425 141.96875Q81.76875 142.48438 81.95625 143.23438Q82.14375 143.98438 82.14375 145.26562Q82.14375 146.78125 81.83125 147.70312Q81.53438 148.625 80.90938 149.14062Q80.3 149.64062 79.34688 149.64062Q78.1125 149.64062 77.39375 148.75Q76.55 147.6875 76.55 145.26562ZM77.62813 145.26562Q77.62813 147.375 78.12813 148.07812Q78.62813 148.78125 79.34688 148.78125Q80.08125 148.78125 80.56563 148.07812Q81.06563 147.375 81.06563 145.26562Q81.06563 143.14062 80.56563 142.45312Q80.08125 141.75 79.33125 141.75Q78.6125 141.75 78.175 142.35938Q77.62813 143.14062 77.62813 145.26562Z" fill-rule="nonzero"/><path fill="#757575" d="M55.55 87.00938L56.6125 86.86875Q56.784374 87.75938 57.221874 88.16563Q57.659374 88.55625 58.284374 88.55625Q59.034374 88.55625 59.55 88.04063Q60.065624 87.525 60.065624 86.75938Q60.065624 86.04063 59.58125 85.57188Q59.1125 85.0875 58.378124 85.0875Q58.08125 85.0875 57.628124 85.2125L57.753124 84.275Q57.8625 84.29063 57.925 84.29063Q58.596874 84.29063 59.128124 83.94688Q59.675 83.5875 59.675 82.85313Q59.675 82.275 59.284374 81.9Q58.89375 81.50938 58.26875 81.50938Q57.659374 81.50938 57.2375 81.9Q56.83125 82.29063 56.721874 83.05625L55.659374 82.86875Q55.846874 81.82188 56.534374 81.24375Q57.221874 80.65 58.2375 80.65Q58.940624 80.65 59.534374 80.9625Q60.128124 81.25938 60.440624 81.775Q60.753124 82.29063 60.753124 82.88438Q60.753124 83.43125 60.45625 83.9Q60.159374 84.35313 59.58125 84.61875Q60.33125 84.79063 60.753124 85.35313Q61.175 85.9 61.175 86.74375Q61.175 87.86875 60.346874 88.65Q59.534374 89.43125 58.284374 89.43125Q57.159374 89.43125 56.409374 88.75938Q55.659374 88.07188 55.55 87.00938ZM62.55 85.04063Q62.55 83.50938 62.8625 82.5875Q63.175 81.65 63.784374 81.15Q64.40938 80.65 65.34688 80.65Q66.03438 80.65 66.55 80.93125Q67.08125 81.2125 67.425 81.74375Q67.76875 82.25938 67.95625 83.00938Q68.14375 83.75938 68.14375 85.04063Q68.14375 86.55625 67.83125 87.47813Q67.53438 88.4 66.90938 88.91563Q66.3 89.41563 65.34688 89.41563Q64.1125 89.41563 63.39375 88.525Q62.55 87.4625 62.55 85.04063ZM63.628124 85.04063Q63.628124 87.15 64.12813 87.85313Q64.62813 88.55625 65.34688 88.55625Q66.08125 88.55625 66.56563 87.85313Q67.06563 87.15 67.06563 85.04063Q67.06563 82.91563 66.56563 82.22813Q66.08125 81.525 65.33125 81.525Q64.6125 81.525 64.175 82.13438Q63.628124 82.91563 63.628124 85.04063ZM69.55 85.04063Q69.55 83.50938 69.8625 82.5875Q70.175 81.65 70.78438 81.15Q71.40938 80.65 72.34688 80.65Q73.03438 80.65 73.55 80.93125Q74.08125 81.2125 74.425 81.74375Q74.76875 82.25938 74.95625 83.00938Q75.14375 83.75938 75.14375 85.04063Q75.14375 86.55625 74.83125 87.47813Q74.53438 88.4 73.90938 88.91563Q73.3 89.41563 72.34688 89.41563Q71.1125 89.41563 70.39375 88.525Q69.55 87.4625 69.55 85.04063ZM70.62813 85.04063Q70.62813 87.15 71.12813 87.85313Q71.62813 88.55625 72.34688 88.55625Q73.08125 88.55625 73.56563 87.85313Q74.06563 87.15 74.06563 85.04063Q74.06563 82.91563 73.56563 82.22813Q73.08125 81.525 72.33125 81.525Q71.6125 81.525 71.175 82.13438Q70.62813 82.91563 70.62813 85.04063ZM76.55 85.04063Q76.55 83.50938 76.8625 82.5875Q77.175 81.65 77.78438 81.15Q78.40938 80.65 79.34688 80.65Q80.03438 80.65 80.55 80.93125Q81.08125 81.2125 81.425 81.74375Q81.76875 82.25938 81.95625 83.00938Q82.14375 83.75938 82.14375 85.04063Q82.14375 86.55625 81.83125 87.47813Q81.53438 88.4 80.90938 88.91563Q80.3 89.41563 79.34688 89.41563Q78.1125 89.41563 77.39375 88.525Q76.55 87.4625 76.55 85.04063ZM77.62813 85.04063Q77.62813 87.15 78.12813 87.85313Q78.62813 88.55625 79.34688 88.55625Q80.08125 88.55625 80.56563 87.85313Q81.06563 87.15 81.06563 85.04063Q81.06563 82.91563 80.56563 82.22813Q80.08125 81.525 79.33125 81.525Q78.6125 81.525 78.175 82.13438Q77.62813 82.91563 77.62813 85.04063Z" fill-rule="nonzero"/><path fill="#757575" d="M58.925 29.05L58.925 26.9875L55.20625 26.9875L55.20625 26.01875L59.128124 20.45625L59.9875 20.45625L59.9875 26.01875L61.14375 26.01875L61.14375 26.9875L59.9875 26.9875L59.9875 29.05L58.925 29.05ZM58.925 26.01875L58.925 22.159374L56.2375 26.01875L58.925 26.01875ZM62.55 24.815624Q62.55 23.284374 62.8625 22.3625Q63.175 21.425 63.784374 20.925Q64.40938 20.425 65.34688 20.425Q66.03438 20.425 66.55 20.70625Q67.08125 20.9875 67.425 21.51875Q67.76875 22.034374 67.95625 22.784374Q68.14375 23.534374 68.14375 24.815624Q68.14375 26.33125 67.83125 27.253124Q67.53438 28.175 66.90938 28.690624Q66.3 29.190624 65.34688 29.190624Q64.1125 29.190624 63.39375 28.3Q62.55 27.2375 62.55 24.815624ZM63.628124 24.815624Q63.628124 26.925 64.12813 27.628124Q64.62813 28.33125 65.34688 28.33125Q66.08125 28.33125 66.56563 27.628124Q67.06563 26.925 67.06563 24.815624Q67.06563 22.690624 66.56563 22.003124Q66.08125 21.3 65.33125 21.3Q64.6125 21.3 64.175 21.909374Q63.628124 22.690624 63.628124 24.815624ZM69.55 24.815624Q69.55 23.284374 69.8625 22.3625Q70.175 21.425 70.78438 20.925Q71.40938 20.425 72.34688 20.425Q73.03438 20.425 73.55 20.70625Q74.08125 20.9875 74.425 21.51875Q74.76875 22.034374 74.95625 22.784374Q75.14375 23.534374 75.14375 24.815624Q75.14375 26.33125 74.83125 27.253124Q74.53438 28.175 73.90938 28.690624Q73.3 29.190624 72.34688 29.190624Q71.1125 29.190624 70.39375 28.3Q69.55 27.2375 69.55 24.815624ZM70.62813 24.815624Q70.62813 26.925 71.12813 27.628124Q71.62813 28.33125 72.34688 28.33125Q73.08125 28.33125 73.56563 27.628124Q74.06563 26.925 74.06563 24.815624Q74.06563 22.690624 73.56563 22.003124Q73.08125 21.3 72.33125 21.3Q71.6125 21.3 71.175 21.909374Q70.62813 22.690624 70.62813 24.815624ZM76.55 24.815624Q76.55 23.284374 76.8625 22.3625Q77.175 21.425 77.78438 20.925Q78.40938 20.425 79.34688 20.425Q80.03438 20.425 80.55 20.70625Q81.08125 20.9875 81.425 21.51875Q81.76875 22.034374 81.95625 22.784374Q82.14375 23.534374 82.14375 24.815624Q82.14375 26.33125 81.83125 27.253124Q81.53438 28.175 80.90938 28.690624Q80.3 29.190624 79.34688 29.190624Q78.1125 29.190624 77.39375 28.3Q76.55 27.2375 76.55 24.815624ZM77.62813 24.815624Q77.62813 26.925 78.12813 27.628124Q78.62813 28.33125 79.34688 28.33125Q80.08125 28.33125 80.56563 27.628124Q81.06563 26.925 81.06563 24.815624Q81.06563 22.690624 80.56563 22.003124Q80.08125 21.3 79.33125 21.3Q78.6125 21.3 78.175 21.909374Q77.62813 22.690624 77.62813 24.815624Z" fill-rule="nonzero"/><path fill="#757575" d="M121.41757 297.91876L121.41757 299.95L110.07382 299.95Q110.04257 299.1844 110.3082 298.48126Q110.7457 297.325 111.69882 296.2Q112.65195 295.075 114.46445 293.59064Q117.26132 291.29376 118.2457 289.96564Q119.23007 288.6219 119.23007 287.41876Q119.23007 286.16876 118.32382 285.3094Q117.4332 284.45 115.9957 284.45Q114.48007 284.45 113.5582 285.3719Q112.65195 286.27814 112.63632 287.8875L110.46445 287.66876Q110.6832 285.2469 112.13632 283.98126Q113.58945 282.7 116.04257 282.7Q118.51132 282.7 119.94882 284.075Q121.40195 285.4344 121.40195 287.46564Q121.40195 288.4969 120.98007 289.4969Q120.5582 290.4969 119.57382 291.60626Q118.60507 292.7 116.32382 294.6219Q114.4332 296.21564 113.88632 296.77814Q113.35507 297.34064 112.9957 297.91876L121.41757 297.91876Z" fill-rule="nonzero"/><path fill="#757575" d="M156.79315 299.95L156.79315 295.84064L149.34003 295.84064L149.34003 293.90314L157.16815 282.7625L158.90253 282.7625L158.90253 293.90314L161.21503 293.90314L161.21503 295.84064L158.90253 295.84064L158.90253 299.95L156.79315 299.95ZM156.79315 293.90314L156.79315 286.15314L151.40253 293.90314L156.79315 293.90314Z" fill-rule="nonzero"/><path fill="#757575" d="M200.65309 286.98126L198.55934 287.1375Q198.27809 285.90314 197.76247 285.34064Q196.90309 284.4344 195.65309 284.4344Q194.65309 284.4344 193.88747 284.9969Q192.88747 285.71564 192.30934 287.1219Q191.74684 288.5125 191.71559 291.09064Q192.48122 289.9344 193.57497 289.3719Q194.68434 288.8094 195.88747 288.8094Q197.99684 288.8094 199.48122 290.35626Q200.96559 291.90314 200.96559 294.3719Q200.96559 295.98126 200.26247 297.3719Q199.57497 298.7625 198.35622 299.5125Q197.13747 300.2469 195.59059 300.2469Q192.94997 300.2469 191.27809 298.3094Q189.62184 296.35626 189.62184 291.90314Q189.62184 286.9344 191.46559 284.66876Q193.05934 282.7 195.77809 282.7Q197.80934 282.7 199.10622 283.84064Q200.40309 284.96564 200.65309 286.98126ZM192.04372 294.3875Q192.04372 295.46564 192.49684 296.46564Q192.96559 297.46564 193.79372 297.9969Q194.63747 298.5125 195.54372 298.5125Q196.88747 298.5125 197.84059 297.4344Q198.80934 296.35626 198.80934 294.4969Q198.80934 292.71564 197.85622 291.7Q196.90309 290.66876 195.46559 290.66876Q194.04372 290.66876 193.04372 291.7Q192.04372 292.71564 192.04372 294.3875Z" fill-rule="nonzero"/><path fill="#757575" d="M232.65367 290.6375Q231.34117 290.15314 230.70055 289.2625Q230.07555 288.3719 230.07555 287.1219Q230.07555 285.2469 231.4193 283.98126Q232.76305 282.7 234.99742 282.7Q237.24742 282.7 238.62242 284.0125Q239.99742 285.3094 239.99742 287.1844Q239.99742 288.3875 239.37242 289.27814Q238.74742 290.15314 237.46617 290.6375Q239.0443 291.15314 239.87242 292.3094Q240.70055 293.45 240.70055 295.04376Q240.70055 297.2469 239.13805 298.7469Q237.57555 300.2469 235.0443 300.2469Q232.49742 300.2469 230.93492 298.7469Q229.37242 297.23126 229.37242 294.98126Q229.37242 293.3094 230.21617 292.1844Q231.07555 291.04376 232.65367 290.6375ZM232.2318 287.0594Q232.2318 288.27814 233.01305 289.0594Q233.7943 289.825 235.0443 289.825Q236.26305 289.825 237.0443 289.0594Q237.82555 288.29376 237.82555 287.16876Q237.82555 286.0125 237.01305 285.23126Q236.21617 284.4344 235.02867 284.4344Q233.82555 284.4344 233.02867 285.21564Q232.2318 285.98126 232.2318 287.0594ZM231.5443 294.9969Q231.5443 295.8875 231.96617 296.73126Q232.40367 297.575 233.24742 298.04376Q234.09117 298.5125 235.05992 298.5125Q236.57555 298.5125 237.55992 297.54376Q238.5443 296.5594 238.5443 295.0594Q238.5443 293.54376 237.52867 292.54376Q236.51305 291.54376 234.99742 291.54376Q233.49742 291.54376 232.51305 292.52814Q231.5443 293.5125 231.5443 294.9969Z" fill-rule="nonzero"/><path fill="#757575" d="M270.52924 299.95L268.41986 299.95L268.41986 286.5125Q267.66986 287.23126 266.41986 287.96564Q265.1855 288.6844 264.2011 289.04376L264.2011 287.0125Q265.98236 286.1844 267.29486 284.9969Q268.623 283.8094 269.16986 282.7L270.52924 282.7L270.52924 299.95ZM275.59174 291.48126Q275.59174 288.4344 276.21674 286.575Q276.84174 284.71564 278.0761 283.71564Q279.3105 282.7 281.1855 282.7Q282.5761 282.7 283.60736 283.2625Q284.65424 283.8094 285.3261 284.85626Q286.0136 285.90314 286.40424 287.41876Q286.79486 288.91876 286.79486 291.48126Q286.79486 294.4969 286.16986 296.35626Q285.54486 298.21564 284.3105 299.23126Q283.0761 300.2469 281.1855 300.2469Q278.7011 300.2469 277.29486 298.46564Q275.59174 296.3094 275.59174 291.48126ZM277.7636 291.48126Q277.7636 295.7 278.748 297.10626Q279.73236 298.5125 281.1855 298.5125Q282.6386 298.5125 283.623 297.10626Q284.623 295.7 284.623 291.48126Q284.623 287.23126 283.623 285.84064Q282.6386 284.45 281.16986 284.45Q279.71674 284.45 278.84174 285.66876Q277.7636 287.2469 277.7636 291.48126Z" fill-rule="nonzero"/><path fill="#757575" d="M310.21732 299.95L308.10794 299.95L308.10794 286.5125Q307.35794 287.23126 306.10794 287.96564Q304.87357 288.6844 303.8892 289.04376L303.8892 287.0125Q305.67044 286.1844 306.98294 284.9969Q308.31107 283.8094 308.85794 282.7L310.21732 282.7L310.21732 299.95ZM326.35794 297.91876L326.35794 299.95L315.0142 299.95Q314.98294 299.1844 315.24857 298.48126Q315.68607 297.325 316.6392 296.2Q317.59232 295.075 319.40482 293.59064Q322.2017 291.29376 323.18607 289.96564Q324.17044 288.6219 324.17044 287.41876Q324.17044 286.16876 323.2642 285.3094Q322.37357 284.45 320.93607 284.45Q319.42044 284.45 318.49857 285.3719Q317.59232 286.27814 317.5767 287.8875L315.40482 287.66876Q315.62357 285.2469 317.0767 283.98126Q318.52982 282.7 320.98294 282.7Q323.4517 282.7 324.8892 284.075Q326.34232 285.4344 326.34232 287.46564Q326.34232 288.4969 325.92044 289.4969Q325.49857 290.4969 324.5142 291.60626Q323.54544 292.7 321.2642 294.6219Q319.37357 296.21564 318.8267 296.77814Q318.29544 297.34064 317.93607 297.91876L326.35794 297.91876Z" fill-rule="nonzero"/><path fill="#757575" d="M349.9054 299.95L347.79602 299.95L347.79602 286.5125Q347.04602 287.23126 345.79602 287.96564Q344.56165 288.6844 343.57727 289.04376L343.57727 287.0125Q345.35852 286.1844 346.67102 284.9969Q347.99915 283.8094 348.54602 282.7L349.9054 282.7L349.9054 299.95ZM361.73352 299.95L361.73352 295.84064L354.2804 295.84064L354.2804 293.90314L362.10852 282.7625L363.8429 282.7625L363.8429 293.90314L366.1554 293.90314L366.1554 295.84064L363.8429 295.84064L363.8429 299.95L361.73352 299.95ZM361.73352 293.90314L361.73352 286.15314L356.3429 293.90314L361.73352 293.90314Z" fill-rule="nonzero"/><path fill="#757575" d="M389.59348 299.95L387.4841 299.95L387.4841 286.5125Q386.7341 287.23126 385.4841 287.96564Q384.24973 288.6844 383.26535 289.04376L383.26535 287.0125Q385.0466 286.1844 386.3591 284.9969Q387.68723 283.8094 388.2341 282.7L389.59348 282.7L389.59348 299.95ZM405.59348 286.98126L403.49973 287.1375Q403.21848 285.90314 402.70285 285.34064Q401.84348 284.4344 400.59348 284.4344Q399.59348 284.4344 398.82785 284.9969Q397.82785 285.71564 397.24973 287.1219Q396.68723 288.5125 396.65598 291.09064Q397.4216 289.9344 398.51535 289.3719Q399.62473 288.8094 400.82785 288.8094Q402.93723 288.8094 404.4216 290.35626Q405.90598 291.90314 405.90598 294.3719Q405.90598 295.98126 405.20285 297.3719Q404.51535 298.7625 403.2966 299.5125Q402.07785 300.2469 400.53098 300.2469Q397.89035 300.2469 396.21848 298.3094Q394.56223 296.35626 394.56223 291.90314Q394.56223 286.9344 396.40598 284.66876Q397.99973 282.7 400.71848 282.7Q402.74973 282.7 404.0466 283.84064Q405.34348 284.96564 405.59348 286.98126ZM396.9841 294.3875Q396.9841 295.46564 397.43723 296.46564Q397.90598 297.46564 398.7341 297.9969Q399.57785 298.5125 400.4841 298.5125Q401.82785 298.5125 402.78098 297.4344Q403.74973 296.35626 403.74973 294.4969Q403.74973 292.71564 402.7966 291.7Q401.84348 290.66876 400.40598 290.66876Q398.9841 290.66876 397.9841 291.7Q396.9841 292.71564 396.9841 294.3875Z" fill-rule="nonzero"/><path fill="#757575" d="M429.28152 299.95L427.17215 299.95L427.17215 286.5125Q426.42215 287.23126 425.17215 287.96564Q423.93777 288.6844 422.9534 289.04376L422.9534 287.0125Q424.73465 286.1844 426.04715 284.9969Q427.37527 283.8094 427.92215 282.7L429.28152 282.7L429.28152 299.95ZM437.59402 290.6375Q436.28152 290.15314 435.6409 289.2625Q435.0159 288.3719 435.0159 287.1219Q435.0159 285.2469 436.35965 283.98126Q437.7034 282.7 439.93777 282.7Q442.18777 282.7 443.56277 284.0125Q444.93777 285.3094 444.93777 287.1844Q444.93777 288.3875 444.31277 289.27814Q443.68777 290.15314 442.40652 290.6375Q443.98465 291.15314 444.81277 292.3094Q445.6409 293.45 445.6409 295.04376Q445.6409 297.2469 444.0784 298.7469Q442.5159 300.2469 439.98465 300.2469Q437.43777 300.2469 435.87527 298.7469Q434.31277 297.23126 434.31277 294.98126Q434.31277 293.3094 435.15652 292.1844Q436.0159 291.04376 437.59402 290.6375ZM437.17215 287.0594Q437.17215 288.27814 437.9534 289.0594Q438.73465 289.825 439.98465 289.825Q441.2034 289.825 441.98465 289.0594Q442.7659 288.29376 442.7659 287.16876Q442.7659 286.0125 441.9534 285.23126Q441.15652 284.4344 439.96902 284.4344Q438.7659 284.4344 437.96902 285.21564Q437.17215 285.98126 437.17215 287.0594ZM436.48465 294.9969Q436.48465 295.8875 436.90652 296.73126Q437.34402 297.575 438.18777 298.04376Q439.03152 298.5125 440.00027 298.5125Q441.5159 298.5125 442.50027 297.54376Q443.48465 296.5594 443.48465 295.0594Q443.48465 293.54376 442.46902 292.54376Q441.4534 291.54376 439.93777 291.54376Q438.43777 291.54376 437.4534 292.52814Q436.48465 293.5125 436.48465 294.9969Z" fill-rule="nonzero"/><path fill="#757575" d="M472.11023 297.91876L472.11023 299.95L460.76648 299.95Q460.73523 299.1844 461.00085 298.48126Q461.43835 297.325 462.39148 296.2Q463.3446 295.075 465.1571 293.59064Q467.95398 291.29376 468.93835 289.96564Q469.92273 288.6219 469.92273 287.41876Q469.92273 286.16876 469.01648 285.3094Q468.12585 284.45 466.68835 284.45Q465.17273 284.45 464.25085 285.3719Q463.3446 286.27814 463.32898 287.8875L461.1571 287.66876Q461.37585 285.2469 462.82898 283.98126Q464.2821 282.7 466.73523 282.7Q469.20398 282.7 470.64148 284.075Q472.0946 285.4344 472.0946 287.46564Q472.0946 288.4969 471.67273 289.4969Q471.25085 290.4969 470.26648 291.60626Q469.29773 292.7 467.01648 294.6219Q465.12585 296.21564 464.57898 296.77814Q464.04773 297.34064 463.68835 297.91876L472.11023 297.91876ZM474.0321 291.48126Q474.0321 288.4344 474.6571 286.575Q475.2821 284.71564 476.51648 283.71564Q477.75085 282.7 479.62585 282.7Q481.01648 282.7 482.04773 283.2625Q483.0946 283.8094 483.76648 284.85626Q484.45398 285.90314 484.8446 287.41876Q485.23523 288.91876 485.23523 291.48126Q485.23523 294.4969 484.61023 296.35626Q483.98523 298.21564 482.75085 299.23126Q481.51648 300.2469 479.62585 300.2469Q477.14148 300.2469 475.73523 298.46564Q474.0321 296.3094 474.0321 291.48126ZM476.20398 291.48126Q476.20398 295.7 477.18835 297.10626Q478.17273 298.5125 479.62585 298.5125Q481.07898 298.5125 482.06335 297.10626Q483.06335 295.7 483.06335 291.48126Q483.06335 287.23126 482.06335 285.84064Q481.07898 284.45 479.61023 284.45Q478.1571 284.45 477.2821 285.66876Q476.20398 287.2469 476.20398 291.48126Z" fill-rule="nonzero"/><path fill="#757575" d="M511.7983 297.91876L511.7983 299.95L500.45456 299.95Q500.4233 299.1844 500.68893 298.48126Q501.12643 297.325 502.07956 296.2Q503.03268 295.075 504.84518 293.59064Q507.64206 291.29376 508.62643 289.96564Q509.6108 288.6219 509.6108 287.41876Q509.6108 286.16876 508.70456 285.3094Q507.81393 284.45 506.37643 284.45Q504.8608 284.45 503.93893 285.3719Q503.03268 286.27814 503.01706 287.8875L500.84518 287.66876Q501.06393 285.2469 502.51706 283.98126Q503.97018 282.7 506.4233 282.7Q508.89206 282.7 510.32956 284.075Q511.78268 285.4344 511.78268 287.46564Q511.78268 288.4969 511.3608 289.4969Q510.93893 290.4969 509.95456 291.60626Q508.9858 292.7 506.70456 294.6219Q504.81393 296.21564 504.26706 296.77814Q503.7358 297.34064 503.37643 297.91876L511.7983 297.91876ZM524.79834 297.91876L524.79834 299.95L513.4546 299.95Q513.42334 299.1844 513.68896 298.48126Q514.12646 297.325 515.0796 296.2Q516.0327 295.075 517.8452 293.59064Q520.6421 291.29376 521.62646 289.96564Q522.61084 288.6219 522.61084 287.41876Q522.61084 286.16876 521.7046 285.3094Q520.81396 284.45 519.37646 284.45Q517.86084 284.45 516.93896 285.3719Q516.0327 286.27814 516.0171 287.8875L513.8452 287.66876Q514.06396 285.2469 515.5171 283.98126Q516.9702 282.7 519.42334 282.7Q521.8921 282.7 523.3296 284.075Q524.7827 285.4344 524.7827 287.46564Q524.7827 288.4969 524.36084 289.4969Q523.93896 290.4969 522.9546 291.60626Q521.98584 292.7 519.7046 294.6219Q517.81396 296.21564 517.2671 296.77814Q516.73584 297.34064 516.37646 297.91876L524.79834 297.91876Z" fill-rule="nonzero"/><path fill="#757575" d="M551.4864 297.91876L551.4864 299.95L540.14264 299.95Q540.1114 299.1844 540.377 298.48126Q540.8145 297.325 541.76764 296.2Q542.72076 295.075 544.53326 293.59064Q547.33014 291.29376 548.3145 289.96564Q549.2989 288.6219 549.2989 287.41876Q549.2989 286.16876 548.39264 285.3094Q547.502 284.45 546.0645 284.45Q544.5489 284.45 543.627 285.3719Q542.72076 286.27814 542.70514 287.8875L540.53326 287.66876Q540.752 285.2469 542.20514 283.98126Q543.65826 282.7 546.1114 282.7Q548.58014 282.7 550.01764 284.075Q551.47076 285.4344 551.47076 287.46564Q551.47076 288.4969 551.0489 289.4969Q550.627 290.4969 549.64264 291.60626Q548.6739 292.7 546.39264 294.6219Q544.502 296.21564 543.95514 296.77814Q543.4239 297.34064 543.0645 297.91876L551.4864 297.91876ZM560.1739 299.95L560.1739 295.84064L552.72076 295.84064L552.72076 293.90314L560.5489 282.7625L562.28326 282.7625L562.28326 293.90314L564.59576 293.90314L564.59576 295.84064L562.28326 295.84064L562.28326 299.95L560.1739 299.95ZM560.1739 293.90314L560.1739 286.15314L554.78326 293.90314L560.1739 293.90314Z" fill-rule="nonzero"/><path fill="#757575" d="M591.17444 297.91876L591.17444 299.95L579.8307 299.95Q579.79944 299.1844 580.06506 298.48126Q580.50256 297.325 581.4557 296.2Q582.4088 295.075 584.2213 293.59064Q587.0182 291.29376 588.00256 289.96564Q588.98694 288.6219 588.98694 287.41876Q588.98694 286.16876 588.0807 285.3094Q587.19006 284.45 585.75256 284.45Q584.23694 284.45 583.31506 285.3719Q582.4088 286.27814 582.3932 287.8875L580.2213 287.66876Q580.44006 285.2469 581.8932 283.98126Q583.3463 282.7 585.79944 282.7Q588.2682 282.7 589.7057 284.075Q591.1588 285.4344 591.1588 287.46564Q591.1588 288.4969 590.73694 289.4969Q590.31506 290.4969 589.3307 291.60626Q588.36194 292.7 586.0807 294.6219Q584.19006 296.21564 583.6432 296.77814Q583.11194 297.34064 582.75256 297.91876L591.17444 297.91876ZM604.0338 286.98126L601.94006 287.1375Q601.6588 285.90314 601.1432 285.34064Q600.2838 284.4344 599.0338 284.4344Q598.0338 284.4344 597.2682 284.9969Q596.2682 285.71564 595.69006 287.1219Q595.12756 288.5125 595.0963 291.09064Q595.86194 289.9344 596.9557 289.3719Q598.06506 288.8094 599.2682 288.8094Q601.37756 288.8094 602.86194 290.35626Q604.3463 291.90314 604.3463 294.3719Q604.3463 295.98126 603.6432 297.3719Q602.9557 298.7625 601.73694 299.5125Q600.5182 300.2469 598.9713 300.2469Q596.3307 300.2469 594.6588 298.3094Q593.00256 296.35626 593.00256 291.90314Q593.00256 286.9344 594.8463 284.66876Q596.44006 282.7 599.1588 282.7Q601.19006 282.7 602.48694 283.84064Q603.7838 284.96564 604.0338 286.98126ZM595.42444 294.3875Q595.42444 295.46564 595.87756 296.46564Q596.3463 297.46564 597.17444 297.9969Q598.0182 298.5125 598.92444 298.5125Q600.2682 298.5125 601.2213 297.4344Q602.19006 296.35626 602.19006 294.4969Q602.19006 292.71564 601.23694 291.7Q600.2838 290.66876 598.8463 290.66876Q597.42444 290.66876 596.42444 291.7Q595.42444 292.71564 595.42444 294.3875Z" fill-rule="nonzero"/><path fill="#757575" d="M630.86255 297.91876L630.86255 299.95L619.5188 299.95Q619.48755 299.1844 619.7532 298.48126Q620.1907 297.325 621.1438 296.2Q622.0969 295.075 623.9094 293.59064Q626.7063 291.29376 627.6907 289.96564Q628.67505 288.6219 628.67505 287.41876Q628.67505 286.16876 627.7688 285.3094Q626.8782 284.45 625.4407 284.45Q623.92505 284.45 623.0032 285.3719Q622.0969 286.27814 622.0813 287.8875L619.9094 287.66876Q620.1282 285.2469 621.5813 283.98126Q623.0344 282.7 625.48755 282.7Q627.9563 282.7 629.3938 284.075Q630.8469 285.4344 630.8469 287.46564Q630.8469 288.4969 630.42505 289.4969Q630.0032 290.4969 629.0188 291.60626Q628.05005 292.7 625.7688 294.6219Q623.8782 296.21564 623.3313 296.77814Q622.80005 297.34064 622.4407 297.91876L630.86255 297.91876ZM636.0344 290.6375Q634.7219 290.15314 634.0813 289.2625Q633.4563 288.3719 633.4563 287.1219Q633.4563 285.2469 634.80005 283.98126Q636.1438 282.7 638.3782 282.7Q640.6282 282.7 642.0032 284.0125Q643.3782 285.3094 643.3782 287.1844Q643.3782 288.3875 642.7532 289.27814Q642.1282 290.15314 640.8469 290.6375Q642.42505 291.15314 643.2532 292.3094Q644.0813 293.45 644.0813 295.04376Q644.0813 297.2469 642.5188 298.7469Q640.9563 300.2469 638.42505 300.2469Q635.8782 300.2469 634.3157 298.7469Q632.7532 297.23126 632.7532 294.98126Q632.7532 293.3094 633.5969 292.1844Q634.4563 291.04376 636.0344 290.6375ZM635.61255 287.0594Q635.61255 288.27814 636.3938 289.0594Q637.17505 289.825 638.42505 289.825Q639.6438 289.825 640.42505 289.0594Q641.2063 288.29376 641.2063 287.16876Q641.2063 286.0125 640.3938 285.23126Q639.5969 284.4344 638.4094 284.4344Q637.2063 284.4344 636.4094 285.21564Q635.61255 285.98126 635.61255 287.0594ZM634.92505 294.9969Q634.92505 295.8875 635.3469 296.73126Q635.7844 297.575 636.6282 298.04376Q637.4719 298.5125 638.4407 298.5125Q639.9563 298.5125 640.9407 297.54376Q641.92505 296.5594 641.92505 295.0594Q641.92505 293.54376 640.9094 292.54376Q639.8938 291.54376 638.3782 291.54376Q636.8782 291.54376 635.8938 292.52814Q634.92505 293.5125 634.92505 294.9969Z" fill-rule="nonzero"/><path fill="#757575" d="M659.4881 295.41876L661.5975 295.1375Q661.95685 296.91876 662.83185 297.71564Q663.70685 298.5125 664.95685 298.5125Q666.4412 298.5125 667.45685 297.48126Q668.4881 296.45 668.4881 294.91876Q668.4881 293.46564 667.535 292.52814Q666.5975 291.575 665.1287 291.575Q664.535 291.575 663.64435 291.8094L663.8787 289.96564Q664.08185 289.98126 664.2225 289.98126Q665.5662 289.98126 666.64435 289.27814Q667.7225 288.575 667.7225 287.1219Q667.7225 285.95 666.9256 285.2Q666.14435 284.4344 664.91 284.4344Q663.6756 284.4344 662.8475 285.21564Q662.035 285.98126 661.8006 287.52814L659.6912 287.15314Q660.08185 285.02814 661.4412 283.8719Q662.8162 282.7 664.8631 282.7Q666.26935 282.7 667.4412 283.3094Q668.6287 283.90314 669.2537 284.95Q669.89435 285.9969 669.89435 287.16876Q669.89435 288.27814 669.285 289.2Q668.6912 290.10626 667.51935 290.6375Q669.0506 290.9969 669.89435 292.10626Q670.7381 293.21564 670.7381 294.8719Q670.7381 297.1219 669.0975 298.7Q667.45685 300.2625 664.9412 300.2625Q662.6756 300.2625 661.1756 298.91876Q659.6912 297.5594 659.4881 295.41876ZM672.4725 291.48126Q672.4725 288.4344 673.0975 286.575Q673.7225 284.71564 674.95685 283.71564Q676.1912 282.7 678.0662 282.7Q679.45685 282.7 680.4881 283.2625Q681.535 283.8094 682.20685 284.85626Q682.89435 285.90314 683.285 287.41876Q683.6756 288.91876 683.6756 291.48126Q683.6756 294.4969 683.0506 296.35626Q682.4256 298.21564 681.1912 299.23126Q679.95685 300.2469 678.0662 300.2469Q675.58185 300.2469 674.1756 298.46564Q672.4725 296.3094 672.4725 291.48126ZM674.64435 291.48126Q674.64435 295.7 675.6287 297.10626Q676.6131 298.5125 678.0662 298.5125Q679.51935 298.5125 680.5037 297.10626Q681.5037 295.7 681.5037 291.48126Q681.5037 287.23126 680.5037 285.84064Q679.51935 284.45 678.0506 284.45Q676.5975 284.45 675.7225 285.66876Q674.64435 287.2469 674.64435 291.48126Z" fill-rule="nonzero"/><path fill="#757575" d="M699.17615 295.41876L701.2855 295.1375Q701.6449 296.91876 702.5199 297.71564Q703.3949 298.5125 704.6449 298.5125Q706.1293 298.5125 707.1449 297.48126Q708.17615 296.45 708.17615 294.91876Q708.17615 293.46564 707.223 292.52814Q706.2855 291.575 704.8168 291.575Q704.223 291.575 703.3324 291.8094L703.5668 289.96564Q703.7699 289.98126 703.9105 289.98126Q705.2543 289.98126 706.3324 289.27814Q707.4105 288.575 707.4105 287.1219Q707.4105 285.95 706.61365 285.2Q705.8324 284.4344 704.598 284.4344Q703.36365 284.4344 702.5355 285.21564Q701.723 285.98126 701.48865 287.52814L699.3793 287.15314Q699.7699 285.02814 701.1293 283.8719Q702.5043 282.7 704.55115 282.7Q705.9574 282.7 707.1293 283.3094Q708.3168 283.90314 708.9418 284.95Q709.5824 285.9969 709.5824 287.16876Q709.5824 288.27814 708.973 289.2Q708.3793 290.10626 707.2074 290.6375Q708.73865 290.9969 709.5824 292.10626Q710.42615 293.21564 710.42615 294.8719Q710.42615 297.1219 708.7855 298.7Q707.1449 300.2625 704.6293 300.2625Q702.36365 300.2625 700.86365 298.91876Q699.3793 297.5594 699.17615 295.41876ZM723.23865 297.91876L723.23865 299.95L711.8949 299.95Q711.86365 299.1844 712.1293 298.48126Q712.5668 297.325 713.5199 296.2Q714.473 295.075 716.2855 293.59064Q719.0824 291.29376 720.0668 289.96564Q721.05115 288.6219 721.05115 287.41876Q721.05115 286.16876 720.1449 285.3094Q719.2543 284.45 717.8168 284.45Q716.30115 284.45 715.3793 285.3719Q714.473 286.27814 714.4574 287.8875L712.2855 287.66876Q712.5043 285.2469 713.9574 283.98126Q715.4105 282.7 717.86365 282.7Q720.3324 282.7 721.7699 284.075Q723.223 285.4344 723.223 287.46564Q723.223 288.4969 722.80115 289.4969Q722.3793 290.4969 721.3949 291.60626Q720.42615 292.7 718.1449 294.6219Q716.2543 296.21564 715.7074 296.77814Q715.17615 297.34064 714.8168 297.91876L723.23865 297.91876Z" fill-rule="nonzero"/></svg>