<svg xmlns="http://www.w3.org/2000/svg" xmlns:xlink="http://www.w3.org/1999/xlink" xmlns:lucid="lucid" width="580" height="560"><g transform="translate(-320 -420)" lucid:page-tab-id="0_0"><path d="M740 800c0 22.1-17.9 40-40 40s-40-17.9-40-40 17.9-40 40-40 40 17.9 40 40z" stroke="#0c7cba" stroke-width="2" fill="#fff"/><use xlink:href="#a" transform="matrix(1,0,0,1,665,765) translate(11.5 38.6)"/><path d="M640 548c0 6.63-26.86 12-60 12s-60-5.37-60-12v-96c0-6.63 26.86-12 60-12s60 5.37 60 12z" stroke="#0c7cba" stroke-width="2" fill="#fff"/><path d="M640 452c0 6.63-26.86 12-60 12s-60-5.37-60-12" stroke="#0c7cba" stroke-width="2" fill="none"/><use xlink:href="#b" transform="matrix(1,0,0,1,525,469) translate(31.075 46.6)"/><path d="M620 568c0 6.63-26.86 12-60 12s-60-5.37-60-12v-96c0-6.63 26.86-12 60-12s60 5.37 60 12z" stroke="#0c7cba" stroke-width="2" fill="#fff"/><path d="M620 472c0 6.63-26.86 12-60 12s-60-5.37-60-12" stroke="#0c7cba" stroke-width="2" fill="none"/><use xlink:href="#b" transform="matrix(1,0,0,1,505,489) translate(31.075 46.6)"/><path d="M600 588c0 6.63-26.86 12-60 12s-60-5.37-60-12v-96c0-6.63 26.86-12 60-12s60 5.37 60 12z" stroke="#0c7cba" stroke-width="2" fill="#fff"/><path d="M600 492c0 6.63-26.86 12-60 12s-60-5.37-60-12" stroke="#0c7cba" stroke-width="2" fill="none"/><use xlink:href="#b" transform="matrix(1,0,0,1,485,509) translate(31.075 46.6)"/><path d="M860 540c0 22.1-17.9 40-40 40s-40-17.9-40-40 17.9-40 40-40 40 17.9 40 40z" stroke="#0c7cba" stroke-width="2" fill="#fff"/><use xlink:href="#c" transform="matrix(1,0,0,1,785,505) translate(4.899999999999999 38.6)"/><path d="M755.53 564.95l-1.14.22-3.02.45-.3-1.98 2.97-.44 1.1-.22zm10.18-2.02l-2.03.4-.4-1.96 2.05-.4zm-85.07-13.66h-.05v-.03zm-8.2-5.24l1.16.75-1.08 1.68-1.2-.76-2.27-1.6 1.15-1.63zm-9.03-6.32l-1.15 1.64-3.4-2.38 1.15-1.64zm-10.14-7.18l-1.2 1.6-3.32-2.47 1.2-1.6zm-10-7.42l-1.2 1.6-1.66-1.23 1.2-1.6z" fill="#666"/><path d="M780.23 559.04l-13.1 7.3-1.8-9.08z" fill="#fff"/><path d="M783.4 558.4l-16.98 9.5-2.34-11.8zm-15.55 6.4l9.2-5.13-10.47-1.25zM641.6 521.86l-1.2 1.6-2.4-1.78 1.2-1.6z" fill="#666"/><use xlink:href="#d" transform="matrix(1,0,0,1,653.8702513475191,549.2692995470424) translate(0 14.4)"/><path d="M880 800c0 22.1-17.9 40-40 40s-40-17.9-40-40 17.9-40 40-40 40 17.9 40 40z" stroke="#0c7cba" stroke-width="2" fill="#fff"/><use xlink:href="#a" transform="matrix(1,0,0,1,805,765) translate(11.5 38.6)"/><path d="M800 920c0 22.1-17.9 40-40 40s-40-17.9-40-40 17.9-40 40-40 40 17.9 40 40z" stroke="#0c7cba" stroke-width="2" fill="#fff"/><use xlink:href="#a" transform="matrix(1,0,0,1,725,885) translate(11.5 38.6)"/><path d="M702.28 758.87l-1.8 1-.97-1.74 1.8-1zm10.74-6.1l-2.04 1.22-1.54.85-.97-1.74 1.5-.84 2-1.2zm10.54-6.38l-3.5 2.1-1.05-1.7 3.52-2.13zm10.35-6.77l-3.4 2.27-1.12-1.67 3.42-2.27zm10.1-7.13l-3.32 2.4-1.17-1.6 3.33-2.42zm9.8-7.55l-3.23 2.55-1.24-1.57 3.22-2.55zm9.4-8.06l-.55.52-2.56 2.2-1.3-1.5 2.5-2.2.54-.5zm8.9-8.6l-2.87 2.93-1.43-1.4 2.87-2.93zm8.4-9.12l-.44.53-2.3 2.58-1.5-1.34 1.77-1.96h2.23zm20.87-30.67l-1.45 2.78-.5.9-1.75-1 .5-.86 1.42-2.73zm5.32-11.2l-.9 2.15-.8 1.66-1.8-.84.76-1.63.88-2.1zm4.43-11.56l-.38 1.17-1 2.74-1.9-.7 1-2.68.38-1.14zm3.56-11.84l-1.12 3.96-1.92-.54 1.1-3.96zm2.66-12.1l-.77 4.03-1.97-.38.77-4.03zm1.94-12.26l-.05.48-.54 3.63-1.96-.3.52-3.58.05-.44zm1-10.26l-.12 1.86-.02.23-2-.2.03-.2.1-1.8z" fill="#666"/><path d="M823.96 598.67l-9.27-.36 5.18-14.06z" fill="#fff"/><path d="M825.3 599.72l-12.02-.46L820 581zm-9.2-2.35l6.52.25-2.87-10.15zM700.5 759.87l-2.6 1.48-1-1.74 2.6-1.47z" fill="#666"/><use xlink:href="#e" transform="matrix(1,0,0,1,739.9483780032759,677.3793070946022) translate(0 14.4)"/><path d="M695.1 740.83l-.44 1.97-1.95-.43.45-1.98zm2.65-11.86l-.88 3.95-1.95-.43.88-3.96zm2.84-11.77l-1.05 3.92-1.93-.52 1.04-3.9zm3.1-11.74l-1.04 3.92-1.93-.52 1.04-3.9zm3.42-11.6l-1.23 3.86-1.92-.6 1.23-3.87zm3.9-11.45l-1.42 3.8-1.88-.7 1.4-3.8zm4.5-11.22l-1.6 3.72-1.84-.78 1.6-3.73zm5.2-10.86l-.8 1.5-1 2.07-1.8-.9 1-2.1.85-1.54zm3.93-7l-1.48-.94h2.06zm16.5-22.78l-.2.24h-2.64l.62-.76.76-.83zm8.3-8.8l-1.9 1.83-.92 1-1.48-1.35.95-1.04 1.95-1.88zm8.8-8.28l-2.06 1.75-.94.9-1.4-1.43.98-.94 2.1-1.8zm9.18-7.84l-.17.12-2.87 2.46-1.3-1.52 2.9-2.5.23-.16zm9.7-7.32l-3.23 2.44-1.2-1.6 3.22-2.44zm9.84-7l-3.38 2.23-1.1-1.67 3.37-2.23zm10.13-6.7l-3.38 2.22-1.1-1.66 3.37-2.24zm8.44-5.6l-1.7 1.12-1.1-1.67 1.7-1.12zM808.04 577.34l-2.5 1.66-1.1-1.67 2.5-1.65z" fill="#666"/><path d="M698.05 744.3l-7.63 12.92L689 742.3z" fill="#fff"/><path d="M699.6 743.64l-9.9 16.74L687.9 741zm-8.48 10.43l5.37-9.08-6.37-1.43z" fill="#666"/><use xlink:href="#f" transform="matrix(1,0,0,1,658.7260486910825,630.7815058787539) translate(0 14.4)"/><use xlink:href="#g" transform="matrix(1,0,0,1,658.7260486910825,630.7815058787539) translate(99.95 14.4)"/><path d="M569.62 704.02l4.08 5.87 4.46 5.86 4.9 5.93 5.42 6 6.02 6.15 6.74 6.32 7.6 6.56 8.68 6.88 10.03 7.28 11.77 7.82 7.95 4.8-1.04 1.72-7.98-4.83-11.84-7.87-10.1-7.33-8.73-6.92-7.67-6.62-6.8-6.38-6.07-6.2-5.48-6.08-4.96-6-4.52-5.94-4.13-5.93-3.42-5.4h2.37zm-28.4-92.55l.6 9.6.93 8.9 1.22 8.3 1.5 7.8 1.72 7.38 1.95 7.03 2.2 6.74 2.4 6.5 1.86 4.4h-2.15l-1.55-3.66-2.44-6.58-2.22-6.82-2-7.12-1.74-7.46-1.5-7.9-1.23-8.37-.95-8.96-.6-9.7-.22-10.52 2-.04z" fill="#666"/><path d="M541 600.97l-2 .07-.1-3 2-.07zM659.73 781.87l-14.67-3.13 4.64-8.03z" fill="#666"/><path d="M662.54 783.5l-19.03-4.07 6.03-10.4zm-15.92-5.45l10.3 2.2-7.04-7.84z" fill="#666"/><use xlink:href="#h" transform="matrix(1,0,0,1,519.142292077302,678.1302010773375) translate(0 14.4)"/><path d="M672 770.94l-1.98.3-.3-1.95 1.96-.32zm-1.55-9.82l-1.98.3-.6-3.92 1.96-.3zm-1.85-11.78l-1.98.3-.62-3.92 1.98-.3zm-2.1-13.27l.24 1.5-1.97.3-.23-1.44-.5-2.43 1.97-.4zm-2.06-10.26l-1.96.4-.78-3.9 1.96-.4zm-2.4-11.7l-1.94.46-.95-3.86 1.95-.48zm-3.35-13.67l.5 2.07-1.94.48-.5-2.04-.52-1.76 1.92-.56zm-3.2-11l.45 1.56-1.93.54-.44-1.5-.75-2.24 1.9-.64zm-13.55-32.25l.3.6-1.75.94-.3-.56-1.68-2.84 1.72-1.02zm-7.85-12.1l1.76 2.48-1.63 1.16-1.73-2.44-.58-.74 1.58-1.23zm-5.68-7l-1.47 1.36-2.7-2.92 1.48-1.36zm-10.36-10.3l1.93 1.77-1.36 1.47-1.9-1.74-1.04-.88 1.3-1.52zm-9.64-7.75l2.36 1.8-1.23 1.6-2.32-1.8-.8-.57 1.14-1.64zm-7.4-5.2l-1.07 1.68-3.34-2.15 1.1-1.68zm-10.05-6.48l-1.02 1.72-1.7-1 1-1.73zM672.46 773.9l-1.98.3-.46-2.95 1.97-.3z" fill="#666"/><path d="M590.48 603.84l-4.73 7.97-9.9-11.25z" fill="#fff"/><path d="M592.05 603.17l-6.14 10.34-12.83-14.6zm-6.45 6.95l3.32-5.6-10.3-2.32z" fill="#666"/><use xlink:href="#i" transform="matrix(1,0,0,1,594.0595629088259,658.8632603646892) translate(0 14.4)"/><path d="M799.06 504.78l-1.72 1.02-1-1.7 1.73-1zM794 496.3l-1.67 1.1-2.13-3.3 1.68-1.08zm-6.98-10.3l.36.52-1.63 1.16-.34-.48-2-2.6 1.58-1.23zm-9.57-11.4l2.45 2.67-1.47 1.35L776 476l-.2-.23 1.4-1.4zm-8.46-7.8l2.46 2.08-1.3 1.53-2.43-2.06-.55-.42 1.23-1.58zm-109.07-.52l-1.82.74-.74-1.85 1.82-.74zm10.98-4.15l-3.68 1.33-.68-1.88 3.7-1.33zm11.17-3.65l-3.75 1.17-.6-1.9 3.75-1.18z" fill="#666"/><path d="M800.63 507.32l-1.7 1.05-1.58-2.56 1.7-1.03z" fill="#666"/><path d="M658.9 470.64l-14.93 1.4 11.25-9.9z" fill="#fff"/><path d="M660.37 471.5L641 473.34l14.6-12.86zm-13.43-.74l10.5-1-2.6-5.97z" fill="#666"/><use xlink:href="#j" transform="matrix(1,0,0,1,682.8865407760626,443.93457801635833) translate(0 14.4)"/><use xlink:href="#k" transform="matrix(1,0,0,1,682.8865407760626,443.93457801635833) translate(49 14.4)"/><path d="M813.24 894.62l2.98-1.44 3.92-2.32 3.22-2.28 2.7-2.3 2.33-2.32 2.02-2.42 1.8-2.54 1.62-2.75 1.45-3.04 1.3-3.45 1.2-4.13 1.02-5.24.14-1.2" stroke="#666" stroke-width="2" fill="none"/><path d="M799.1 899.52l11.96-9.05 3.03 8.76zM839.8 844.23l3.82 14.5-9.25-.52z" stroke="#666" stroke-width="2" fill="#666"/><path d="M785.5 777.18l-1.7-.42-4.9-.8-4.68-.43-4.7-.05-4.92.33-5.43.8-4.48.98" stroke="#666" stroke-width="2" fill="none"/><path d="M799.6 782.13l-14.98-.34 3.07-8.76zM740.44 782.2l12.14-8.8 2.86 8.82z" stroke="#666" stroke-width="2" fill="#666"/><path d="M688.36 856.78l.62 2.74 1.27 4 1.42 3.4 1.57 3 1.76 2.78 2.05 2.66 2.47 2.7 3.22 2.94 4.87 3.74 3.37 2.1" stroke="#666" stroke-width="2" fill="none"/><path d="M686.87 841.9l6.03 13.72-9.22.93zM723.67 894.82l-14.55-3.66 4.93-7.86z" stroke="#666" stroke-width="2" fill="#666"/><path d="M460 808c0 6.63-26.86 12-60 12s-60-5.37-60-12v-96c0-6.63 26.86-12 60-12s60 5.37 60 12z" stroke="#666" stroke-width="2" fill="#fff"/><path d="M460 712c0 6.63-26.86 12-60 12s-60-5.37-60-12" stroke="#666" stroke-width="2" fill="none"/><use xlink:href="#l" transform="matrix(1,0,0,1,345,729) translate(17.074999999999996 46.6)"/><path d="M442.54 665.5l-1.7 6.1-1.74 7.68-1.9 10.9-1.54 11.28-1.98-.27 1.53-11.34 1.94-10.97 1.76-7.8 1.72-6.18.3-.9h2.1zm40.2-56.18l-7.57 6.67-6.1 5.9-4.7 5.04-3.83 4.5-3.2 4.17-2.78 4-1.76 2.8h-2.36l2.45-3.9 2.82-4.07 3.27-4.25 3.87-4.57 4.78-5.1 6.17-5.98 7.6-6.7zM485.56 611.73l-5.8-7.23 14.03-5.32z" fill="#666"/><path d="M485.65 613.43l-7.53-9.38 18.2-6.9zm-4.25-8.5l4.08 5.1 5.78-8.82zM435.66 701.47l-.43 2.97-1.98-.3.43-2.96z" fill="#666"/><use xlink:href="#m" transform="matrix(1,0,0,1,384.05583443582003,642.4097980139213) translate(0 14.4)"/><use xlink:href="#n" transform="matrix(1,0,0,1,384.05583443582003,642.4097980139213) translate(75.95 14.4)"/><path d="M680 820h160v20H680z" stroke="#000" stroke-opacity="0" stroke-width="2" fill="#fff" fill-opacity="0"/><g><use xlink:href="#o" transform="matrix(1,0,0,1,685,825) translate(60 14.4)"/></g><defs><path fill="#0c7cba" d="M205 0l-28-72H64L36 0H1l101-248h38L239 0h-34zm-38-99l-47-123c-12 45-31 82-46 123h93" id="p"/><path fill="#0c7cba" d="M177-190C167-65 218 103 67 71c-23-6-38-20-44-43l32-5c15 47 100 32 89-28v-30C133-14 115 1 83 1 29 1 15-40 15-95c0-56 16-97 71-98 29-1 48 16 59 35 1-10 0-23 2-32h30zM94-22c36 0 50-32 50-73 0-42-14-75-50-75-39 0-46 34-46 75s6 73 46 73" id="q"/><path fill="#0c7cba" d="M100-194c63 0 86 42 84 106H49c0 40 14 67 53 68 26 1 43-12 49-29l28 8c-11 28-37 45-77 45C44 4 14-33 15-96c1-61 26-98 85-98zm52 81c6-60-76-77-97-28-3 7-6 17-6 28h103" id="r"/><path fill="#0c7cba" d="M117-194c89-4 53 116 60 194h-32v-121c0-31-8-49-39-48C34-167 62-67 57 0H25l-1-190h30c1 10-1 24 2 32 11-22 29-35 61-36" id="s"/><path fill="#0c7cba" d="M59-47c-2 24 18 29 38 22v24C64 9 27 4 27-40v-127H5v-23h24l9-43h21v43h35v23H59v120" id="t"/><g id="a"><use transform="matrix(0.05,0,0,0.05,0,0)" xlink:href="#p"/><use transform="matrix(0.05,0,0,0.05,12,0)" xlink:href="#q"/><use transform="matrix(0.05,0,0,0.05,22,0)" xlink:href="#r"/><use transform="matrix(0.05,0,0,0.05,32,0)" xlink:href="#s"/><use transform="matrix(0.05,0,0,0.05,42,0)" xlink:href="#t"/></g><path fill="#0c7cba" d="M140-251c81 0 123 46 123 126C263-46 219 4 140 4 59 4 17-45 17-125s42-126 123-126zm0 227c63 0 89-41 89-101s-29-99-89-99c-61 0-89 39-89 99S79-25 140-24" id="u"/><path fill="#0c7cba" d="M114-163C36-179 61-72 57 0H25l-1-190h30c1 12-1 29 2 39 6-27 23-49 58-41v29" id="v"/><path fill="#0c7cba" d="M24-231v-30h32v30H24zM24 0v-190h32V0H24" id="w"/><g id="b"><use transform="matrix(0.05,0,0,0.05,0,0)" xlink:href="#u"/><use transform="matrix(0.05,0,0,0.05,14,0)" xlink:href="#v"/><use transform="matrix(0.05,0,0,0.05,19.95,0)" xlink:href="#w"/><use transform="matrix(0.05,0,0,0.05,23.9,0)" xlink:href="#q"/><use transform="matrix(0.05,0,0,0.05,33.9,0)" xlink:href="#w"/><use transform="matrix(0.05,0,0,0.05,37.85,0)" xlink:href="#s"/></g><path fill="#0c7cba" d="M127-220V0H93v-220H8v-28h204v28h-85" id="x"/><path fill="#0c7cba" d="M141-36C126-15 110 5 73 4 37 3 15-17 15-53c-1-64 63-63 125-63 3-35-9-54-41-54-24 1-41 7-42 31l-33-3c5-37 33-52 76-52 45 0 72 20 72 64v82c-1 20 7 32 28 27v20c-31 9-61-2-59-35zM48-53c0 20 12 33 32 33 41-3 63-29 60-74-43 2-92-5-92 41" id="y"/><path fill="#0c7cba" d="M96-169c-40 0-48 33-48 73s9 75 48 75c24 0 41-14 43-38l32 2c-6 37-31 61-74 61-59 0-76-41-82-99-10-93 101-131 147-64 4 7 5 14 7 22l-32 3c-4-21-16-35-41-35" id="z"/><path fill="#0c7cba" d="M143 0L79-87 56-68V0H24v-261h32v163l83-92h37l-77 82L181 0h-38" id="A"/><g id="c"><use transform="matrix(0.05,0,0,0.05,0,0)" xlink:href="#x"/><use transform="matrix(0.05,0,0,0.05,10.3,0)" xlink:href="#v"/><use transform="matrix(0.05,0,0,0.05,16.25,0)" xlink:href="#y"/><use transform="matrix(0.05,0,0,0.05,26.25,0)" xlink:href="#z"/><use transform="matrix(0.05,0,0,0.05,35.25,0)" xlink:href="#A"/><use transform="matrix(0.05,0,0,0.05,44.25,0)" xlink:href="#r"/><use transform="matrix(0.05,0,0,0.05,54.25,0)" xlink:href="#v"/></g><path fill="#666" d="M126-127c33 6 58 20 58 59 0 88-139 92-164 29-3-8-5-16-6-25l32-3c6 27 21 44 54 44 32 0 52-15 52-46 0-38-36-46-79-43v-28c39 1 72-4 72-42 0-27-17-43-46-43-28 0-47 15-49 41l-32-3c6-42 35-63 81-64 48-1 79 21 79 65 0 36-21 52-52 59" id="B"/><path fill="#666" d="M33 0v-38h34V0H33" id="C"/><path fill="#666" d="M240 0l2-218c-23 76-54 145-80 218h-23L58-218 59 0H30v-248h44l77 211c21-75 51-140 76-211h43V0h-30" id="D"/><path fill="#666" d="M100-194c63 0 86 42 84 106H49c0 40 14 67 53 68 26 1 43-12 49-29l28 8c-11 28-37 45-77 45C44 4 14-33 15-96c1-61 26-98 85-98zm52 81c6-60-76-77-97-28-3 7-6 17-6 28h103" id="E"/><path fill="#666" d="M59-47c-2 24 18 29 38 22v24C64 9 27 4 27-40v-127H5v-23h24l9-43h21v43h35v23H59v120" id="F"/><path fill="#666" d="M141-36C126-15 110 5 73 4 37 3 15-17 15-53c-1-64 63-63 125-63 3-35-9-54-41-54-24 1-41 7-42 31l-33-3c5-37 33-52 76-52 45 0 72 20 72 64v82c-1 20 7 32 28 27v20c-31 9-61-2-59-35zM48-53c0 20 12 33 32 33 41-3 63-29 60-74-43 2-92-5-92 41" id="G"/><path fill="#666" d="M85-194c31 0 48 13 60 33l-1-100h32l1 261h-30c-2-10 0-23-3-31C134-8 116 4 85 4 32 4 16-35 15-94c0-66 23-100 70-100zm9 24c-40 0-46 34-46 75 0 40 6 74 45 74 42 0 51-32 51-76 0-42-9-74-50-73" id="H"/><g id="d"><use transform="matrix(0.05,0,0,0.05,0,0)" xlink:href="#B"/><use transform="matrix(0.05,0,0,0.05,10,0)" xlink:href="#C"/><use transform="matrix(0.05,0,0,0.05,15,0)" xlink:href="#D"/><use transform="matrix(0.05,0,0,0.05,29.950000000000003,0)" xlink:href="#E"/><use transform="matrix(0.05,0,0,0.05,39.95,0)" xlink:href="#F"/><use transform="matrix(0.05,0,0,0.05,44.95,0)" xlink:href="#G"/><use transform="matrix(0.05,0,0,0.05,54.95,0)" xlink:href="#H"/><use transform="matrix(0.05,0,0,0.05,64.95,0)" xlink:href="#G"/><use transform="matrix(0.05,0,0,0.05,74.95,0)" xlink:href="#F"/><use transform="matrix(0.05,0,0,0.05,79.95,0)" xlink:href="#G"/></g><path fill="#666" d="M27 0v-27h64v-190l-56 39v-29l58-41h29v221h61V0H27" id="I"/><path fill="#666" d="M205 0l-28-72H64L36 0H1l101-248h38L239 0h-34zm-38-99l-47-123c-12 45-31 82-46 123h93" id="J"/><path fill="#666" d="M117-194c89-4 53 116 60 194h-32v-121c0-31-8-49-39-48C34-167 62-67 57 0H25l-1-190h30c1 10-1 24 2 32 11-22 29-35 61-36" id="K"/><path fill="#666" d="M100-194c62-1 85 37 85 99 1 63-27 99-86 99S16-35 15-95c0-66 28-99 85-99zM99-20c44 1 53-31 53-75 0-43-8-75-51-75s-53 32-53 75 10 74 51 75" id="L"/><path fill="#666" d="M84 4C-5 8 30-112 23-190h32v120c0 31 7 50 39 49 72-2 45-101 50-169h31l1 190h-30c-1-10 1-25-2-33-11 22-28 36-60 37" id="M"/><path fill="#666" d="M96-169c-40 0-48 33-48 73s9 75 48 75c24 0 41-14 43-38l32 2c-6 37-31 61-74 61-59 0-76-41-82-99-10-93 101-131 147-64 4 7 5 14 7 22l-32 3c-4-21-16-35-41-35" id="N"/><g id="e"><use transform="matrix(0.05,0,0,0.05,0,0)" xlink:href="#I"/><use transform="matrix(0.05,0,0,0.05,10,0)" xlink:href="#C"/><use transform="matrix(0.05,0,0,0.05,15,0)" xlink:href="#J"/><use transform="matrix(0.05,0,0,0.05,27,0)" xlink:href="#K"/><use transform="matrix(0.05,0,0,0.05,37,0)" xlink:href="#K"/><use transform="matrix(0.05,0,0,0.05,47,0)" xlink:href="#L"/><use transform="matrix(0.05,0,0,0.05,57,0)" xlink:href="#M"/><use transform="matrix(0.05,0,0,0.05,67,0)" xlink:href="#K"/><use transform="matrix(0.05,0,0,0.05,77,0)" xlink:href="#N"/><use transform="matrix(0.05,0,0,0.05,86,0)" xlink:href="#E"/></g><path fill="#666" d="M155-56V0h-30v-56H8v-25l114-167h33v167h35v25h-35zm-30-156c-27 46-58 90-88 131h88v-131" id="O"/><path fill="#666" d="M68-38c1 34 0 65-14 84H32c9-13 17-26 17-46H33v-38h35" id="P"/><g id="f"><use transform="matrix(0.05,0,0,0.05,0,0)" xlink:href="#O"/><use transform="matrix(0.05,0,0,0.05,10,0)" xlink:href="#C"/><use transform="matrix(0.05,0,0,0.05,15,0)" xlink:href="#D"/><use transform="matrix(0.05,0,0,0.05,29.950000000000003,0)" xlink:href="#E"/><use transform="matrix(0.05,0,0,0.05,39.95,0)" xlink:href="#F"/><use transform="matrix(0.05,0,0,0.05,44.95,0)" xlink:href="#G"/><use transform="matrix(0.05,0,0,0.05,54.95,0)" xlink:href="#H"/><use transform="matrix(0.05,0,0,0.05,64.95,0)" xlink:href="#G"/><use transform="matrix(0.05,0,0,0.05,74.95,0)" xlink:href="#F"/><use transform="matrix(0.05,0,0,0.05,79.95,0)" xlink:href="#G"/><use transform="matrix(0.05,0,0,0.05,89.95,0)" xlink:href="#P"/></g><path fill="#666" d="M115-194c55 1 70 41 70 98S169 2 115 4C84 4 66-9 55-30l1 105H24l-1-265h31l2 30c10-21 28-34 59-34zm-8 174c40 0 45-34 45-75s-6-73-45-74c-42 0-51 32-51 76 0 43 10 73 51 73" id="Q"/><path fill="#666" d="M114-163C36-179 61-72 57 0H25l-1-190h30c1 12-1 29 2 39 6-27 23-49 58-41v29" id="R"/><path fill="#666" d="M135-143c-3-34-86-38-87 0 15 53 115 12 119 90S17 21 10-45l28-5c4 36 97 45 98 0-10-56-113-15-118-90-4-57 82-63 122-42 12 7 21 19 24 35" id="S"/><g id="g"><use transform="matrix(0.05,0,0,0.05,0,0)" xlink:href="#Q"/><use transform="matrix(0.05,0,0,0.05,10,0)" xlink:href="#E"/><use transform="matrix(0.05,0,0,0.05,20,0)" xlink:href="#E"/><use transform="matrix(0.05,0,0,0.05,30,0)" xlink:href="#R"/><use transform="matrix(0.05,0,0,0.05,35.95,0)" xlink:href="#S"/></g><path fill="#666" d="M110-160c48 1 74 30 74 79 0 53-28 85-80 85-65 0-83-55-86-122-5-90 50-162 133-122 14 7 22 21 27 39l-31 6c-5-40-67-38-82-6-9 19-15 44-15 74 11-20 30-34 60-33zm-7 138c34 0 49-23 49-58s-16-56-50-56c-29 0-50 16-49 49 1 36 15 65 50 65" id="T"/><path fill="#666" d="M185-189c-5-48-123-54-124 2 14 75 158 14 163 119 3 78-121 87-175 55-17-10-28-26-33-46l33-7c5 56 141 63 141-1 0-78-155-14-162-118-5-82 145-84 179-34 5 7 8 16 11 25" id="U"/><path fill="#666" d="M24-231v-30h32v30H24zM24 0v-190h32V0H24" id="V"/><path fill="#666" d="M177-190C167-65 218 103 67 71c-23-6-38-20-44-43l32-5c15 47 100 32 89-28v-30C133-14 115 1 83 1 29 1 15-40 15-95c0-56 16-97 71-98 29-1 48 16 59 35 1-10 0-23 2-32h30zM94-22c36 0 50-32 50-73 0-42-14-75-50-75-39 0-46 34-46 75s6 73 46 73" id="W"/><g id="h"><use transform="matrix(0.05,0,0,0.05,0,0)" xlink:href="#T"/><use transform="matrix(0.05,0,0,0.05,10,0)" xlink:href="#C"/><use transform="matrix(0.05,0,0,0.05,15,0)" xlink:href="#U"/><use transform="matrix(0.05,0,0,0.05,27,0)" xlink:href="#E"/><use transform="matrix(0.05,0,0,0.05,37,0)" xlink:href="#E"/><use transform="matrix(0.05,0,0,0.05,47,0)" xlink:href="#H"/><use transform="matrix(0.05,0,0,0.05,57,0)" xlink:href="#V"/><use transform="matrix(0.05,0,0,0.05,60.95,0)" xlink:href="#K"/><use transform="matrix(0.05,0,0,0.05,70.95,0)" xlink:href="#W"/></g><path fill="#666" d="M54-142c48-35 137-8 131 61C196 18 31 33 14-55l32-4c7 23 22 37 52 37 35-1 51-22 54-58 4-55-73-65-99-34H22l8-134h141v27H59" id="X"/><path fill="#666" d="M197 0v-115H63V0H30v-248h33v105h134v-105h34V0h-34" id="Y"/><path fill="#666" d="M106-169C34-169 62-67 57 0H25v-261h32l-1 103c12-21 28-36 61-36 89 0 53 116 60 194h-32v-121c2-32-8-49-39-48" id="Z"/><path fill="#666" d="M143 0L79-87 56-68V0H24v-261h32v163l83-92h37l-77 82L181 0h-38" id="aa"/><g id="i"><use transform="matrix(0.05,0,0,0.05,0,0)" xlink:href="#X"/><use transform="matrix(0.05,0,0,0.05,10,0)" xlink:href="#C"/><use transform="matrix(0.05,0,0,0.05,15,0)" xlink:href="#Y"/><use transform="matrix(0.05,0,0,0.05,27.950000000000003,0)" xlink:href="#G"/><use transform="matrix(0.05,0,0,0.05,37.95,0)" xlink:href="#K"/><use transform="matrix(0.05,0,0,0.05,47.95,0)" xlink:href="#H"/><use transform="matrix(0.05,0,0,0.05,57.95,0)" xlink:href="#S"/><use transform="matrix(0.05,0,0,0.05,66.95,0)" xlink:href="#Z"/><use transform="matrix(0.05,0,0,0.05,76.95,0)" xlink:href="#G"/><use transform="matrix(0.05,0,0,0.05,86.95,0)" xlink:href="#aa"/><use transform="matrix(0.05,0,0,0.05,95.95,0)" xlink:href="#E"/></g><path fill="#666" d="M101-251c82-7 93 87 43 132L82-64C71-53 59-42 53-27h129V0H18c2-99 128-94 128-182 0-28-16-43-45-43s-46 15-49 41l-32-3c6-41 34-60 81-64" id="ab"/><path fill="#666" d="M143 4C61 4 22-44 18-125c-5-107 100-154 193-111 17 8 29 25 37 43l-32 9c-13-25-37-40-76-40-61 0-88 39-88 99 0 61 29 100 91 101 35 0 62-11 79-27v-45h-74v-28h105v86C228-13 192 4 143 4" id="ac"/><g id="j"><use transform="matrix(0.05,0,0,0.05,0,0)" xlink:href="#ab"/><use transform="matrix(0.05,0,0,0.05,10,0)" xlink:href="#C"/><use transform="matrix(0.05,0,0,0.05,15,0)" xlink:href="#ac"/><use transform="matrix(0.05,0,0,0.05,29,0)" xlink:href="#E"/><use transform="matrix(0.05,0,0,0.05,39,0)" xlink:href="#F"/></g><g id="k"><use transform="matrix(0.05,0,0,0.05,0,0)" xlink:href="#D"/><use transform="matrix(0.05,0,0,0.05,14.950000000000001,0)" xlink:href="#E"/><use transform="matrix(0.05,0,0,0.05,24.950000000000003,0)" xlink:href="#F"/><use transform="matrix(0.05,0,0,0.05,29.950000000000003,0)" xlink:href="#G"/><use transform="matrix(0.05,0,0,0.05,39.95,0)" xlink:href="#H"/><use transform="matrix(0.05,0,0,0.05,49.95,0)" xlink:href="#G"/><use transform="matrix(0.05,0,0,0.05,59.95,0)" xlink:href="#F"/><use transform="matrix(0.05,0,0,0.05,64.95,0)" xlink:href="#G"/></g><path fill="#666" d="M0 4l72-265h28L28 4H0" id="ad"/><path fill="#666" d="M30-248c118-7 216 8 213 122C240-48 200 0 122 0H30v-248zM63-27c89 8 146-16 146-99s-60-101-146-95v194" id="ae"/><path fill="#666" d="M63-220v92h138v28H63V0H30v-248h175v28H63" id="af"/><g id="l"><use transform="matrix(0.05,0,0,0.05,0,0)" xlink:href="#U"/><use transform="matrix(0.05,0,0,0.05,12,0)" xlink:href="#B"/><use transform="matrix(0.05,0,0,0.05,22,0)" xlink:href="#ad"/><use transform="matrix(0.05,0,0,0.05,27,0)" xlink:href="#Y"/><use transform="matrix(0.05,0,0,0.05,39.95,0)" xlink:href="#ae"/><use transform="matrix(0.05,0,0,0.05,52.900000000000006,0)" xlink:href="#af"/><use transform="matrix(0.05,0,0,0.05,63.85,0)" xlink:href="#U"/></g><path fill="#666" d="M30-248c87 1 191-15 191 75 0 78-77 80-158 76V0H30v-248zm33 125c57 0 124 11 124-50 0-59-68-47-124-48v98" id="ag"/><path fill="#666" d="M24 0v-261h32V0H24" id="ah"/><g id="m"><use transform="matrix(0.05,0,0,0.05,0,0)" xlink:href="#ag"/><use transform="matrix(0.05,0,0,0.05,12,0)" xlink:href="#L"/><use transform="matrix(0.05,0,0,0.05,22,0)" xlink:href="#Q"/><use transform="matrix(0.05,0,0,0.05,32,0)" xlink:href="#M"/><use transform="matrix(0.05,0,0,0.05,42,0)" xlink:href="#ah"/><use transform="matrix(0.05,0,0,0.05,45.95,0)" xlink:href="#G"/><use transform="matrix(0.05,0,0,0.05,55.95,0)" xlink:href="#F"/><use transform="matrix(0.05,0,0,0.05,60.95,0)" xlink:href="#E"/></g><g id="n"><use transform="matrix(0.05,0,0,0.05,0,0)" xlink:href="#N"/><use transform="matrix(0.05,0,0,0.05,9,0)" xlink:href="#G"/><use transform="matrix(0.05,0,0,0.05,19,0)" xlink:href="#N"/><use transform="matrix(0.05,0,0,0.05,28,0)" xlink:href="#Z"/><use transform="matrix(0.05,0,0,0.05,38,0)" xlink:href="#E"/></g><g id="o"><use transform="matrix(0.05,0,0,0.05,0,0)" xlink:href="#Q"/><use transform="matrix(0.05,0,0,0.05,10,0)" xlink:href="#ab"/><use transform="matrix(0.05,0,0,0.05,20,0)" xlink:href="#Q"/></g></defs></g></svg>