<svg xmlns="http://www.w3.org/2000/svg" xmlns:xlink="http://www.w3.org/1999/xlink" xmlns:lucid="lucid" width="666.94" height="559"><g transform="translate(-260 -440)" lucid:page-tab-id="noaExTgKkusa"><path d="M640 927c0 6.63-26.86 12-60 12s-60-5.37-60-12v-96c0-6.63 26.86-12 60-12s60 5.37 60 12z" stroke="#666" stroke-width="2" fill="#fff"/><path d="M640 831c0 6.63-26.86 12-60 12s-60-5.37-60-12" stroke="#666" stroke-width="2" fill="none"/><use xlink:href="#a" transform="matrix(1,0,0,1,525,847.9993760969041) translate(31.075 46.6)"/><path d="M620 947c0 6.63-26.86 12-60 12s-60-5.37-60-12v-96c0-6.63 26.86-12 60-12s60 5.37 60 12z" stroke="#666" stroke-width="2" fill="#fff"/><path d="M620 851c0 6.63-26.86 12-60 12s-60-5.37-60-12" stroke="#666" stroke-width="2" fill="none"/><use xlink:href="#a" transform="matrix(1,0,0,1,505,867.9993760969041) translate(31.075 46.6)"/><path d="M600 967c0 6.63-26.86 12-60 12s-60-5.37-60-12v-96c0-6.63 26.86-12 60-12s60 5.37 60 12z" stroke="#666" stroke-width="2" fill="#fff"/><path d="M600 871c0 6.63-26.86 12-60 12s-60-5.37-60-12" stroke="#666" stroke-width="2" fill="none"/><use xlink:href="#a" transform="matrix(1,0,0,1,485,887.9993760969041) translate(31.075 46.6)"/><path d="M600 680c0 22.1-17.9 40-40 40s-40-17.9-40-40 17.9-40 40-40 40 17.9 40 40z" stroke="#0c7cba" stroke-width="2" fill="#fff"/><use xlink:href="#b" transform="matrix(1,0,0,1,525,645) translate(13 38.6)"/><path d="M866.94 680c0 22.1-17.9 40-40 40s-40-17.9-40-40 17.9-40 40-40 40 17.9 40 40z" stroke="#0c7cba" stroke-width="2" fill="#fff"/><use xlink:href="#b" transform="matrix(1,0,0,1,791.9361467058943,645) translate(13 38.6)"/><path d="M327.24 853.82l-2.4 7.74-2.64 10.68-1.22 5.96-1.96-.4 1.23-6 2.66-10.77 2.45-7.86.84-2.22h2.12zm34.28-48.92l-4.5 4.1-7.6 7.88-5.07 5.9-3.87 5.08-1 1.5h-2.42l1.8-2.67 3.93-5.18 5.13-6 7.7-7.95 4.54-4.15zM364.5 807.08l-6.24-6.84 13.66-6.2z" fill="#666"/><path d="M364.7 808.77l-8.1-8.87 17.7-8.04zm-4.77-8.2l4.4 4.82 5.2-9.18zM320.97 878.22l-.67 2.93-1.95-.45.68-2.93z" fill="#666"/><use xlink:href="#c" transform="matrix(1,0,0,1,295.9596799315737,829.3460203454088) translate(0 14.4)"/><path d="M906.94 927c0 6.63-26.87 12-60 12-33.14 0-60-5.37-60-12v-96c0-6.63 26.86-12 60-12 33.13 0 60 5.37 60 12z" stroke="#666" stroke-width="2" fill="#fff"/><path d="M906.94 831c0 6.63-26.87 12-60 12-33.14 0-60-5.37-60-12" stroke="#666" stroke-width="2" fill="none"/><use xlink:href="#a" transform="matrix(1,0,0,1,791.9361467058943,847.9993760969041) translate(31.075 46.6)"/><path d="M886.94 947c0 6.63-26.87 12-60 12-33.14 0-60-5.37-60-12v-96c0-6.63 26.86-12 60-12 33.13 0 60 5.37 60 12z" stroke="#666" stroke-width="2" fill="#fff"/><path d="M886.94 851c0 6.63-26.87 12-60 12-33.14 0-60-5.37-60-12" stroke="#666" stroke-width="2" fill="none"/><use xlink:href="#a" transform="matrix(1,0,0,1,771.9361467058943,867.9993760969041) translate(31.075 46.6)"/><path d="M866.94 967c0 6.63-26.87 12-60 12-33.14 0-60-5.37-60-12v-96c0-6.63 26.86-12 60-12 33.13 0 60 5.37 60 12z" stroke="#666" stroke-width="2" fill="#fff"/><path d="M866.94 871c0 6.63-26.87 12-60 12-33.14 0-60-5.37-60-12" stroke="#666" stroke-width="2" fill="none"/><use xlink:href="#a" transform="matrix(1,0,0,1,751.9361467058943,887.9993760969041) translate(31.075 46.6)"/><path d="M786.08 679l-.3 2-1.97-.3.3-1.98zm-9.9-1.43l-.28 1.98-3.96-.58.3-1.98zm-155 .62l-1.98.27-.28-2 1.98-.26zm143.14-2.37l-.3 1.98-3.95-.56.3-1.98zm-131.26.82l-3.97.48-.25-2 3.97-.47zm119.4-2.55l-.3 1.98-3.96-.58.3-1.98zm-110.86 1.52l-.6.07-.24-2 .84-.1z" fill="#666"/><path d="M789.05 679.44l-.3 1.98-2.96-.43.28-2z" fill="#666"/><path d="M618.98 682.17l-14.77-2.62 13.5-6.56z" fill="#fff"/><path d="M620.16 683.4L601 680l17.5-8.52zm-12.75-4.3l10.4 1.84-.9-6.45z" fill="#666"/><use xlink:href="#d" transform="matrix(1,0,0,1,641.5977954316683,659.2500998392862) translate(0 14.4)"/><use xlink:href="#e" transform="matrix(1,0,0,1,641.5977954316683,659.2500998392862) translate(67.85000000000001 14.4)"/><path d="M598.8 661.36l-1.8 1-.95-1.76 1.8-1zm10.92-5.68l-3.67 1.86-.9-1.8 3.66-1.84zm164.55-2.9l-.72 1.88-1.92-.74.73-1.87zm-153.42-2.28l-3.74 1.7-.8-1.82 3.73-1.7zm140.45-2.74l3.4 1.32-.73 1.86-3.35-1.3-.45-.15.65-1.9zm-129.04-1.7l-3.38 1.2-.45.17-.75-1.85.5-.2 3.4-1.22zm117.5-2.23l3.28 1.12-.65 1.9-3.25-1.1-.62-.2.57-1.9zm-105.83-1.6l-3.92 1.2-.6-1.9 3.94-1.2zm95.6-1.4l1.68.5-.55 1.9-1.66-.48-2.28-.57.5-1.94zm-10.35-2.54l-.4 1.95-4.03-.83.4-1.96zm-73.36 1l-4.02.88-.43-1.96 4.02-.88zm61.2-3.3l-.3 1.82v-1.87zm-49.14 1.2l-3.2.43-.83.15-.35-1.97.88-.14 3.23-.44z" fill="#666"/><path d="M787.66 659.72l-14.93-1.45 3.7-8.5z" fill="#fff"/><path d="M790.63 661.02l-19.37-1.9 4.8-11zm-16.43-3.6l10.5 1-7.9-7zM597 662.36l-2.66 1.4-.93-1.78 2.67-1.4z" fill="#666"/><use xlink:href="#f" transform="matrix(1,0,0,1,669.7310804095147,623.9943424734648) translate(0 14.4)"/><path d="M620 568c0 6.63-26.86 12-60 12s-60-5.37-60-12v-96c0-6.63 26.86-12 60-12s60 5.37 60 12z" stroke="#666" stroke-width="2" fill="#fff"/><path d="M620 472c0 6.63-26.86 12-60 12s-60-5.37-60-12" stroke="#666" stroke-width="2" fill="none"/><use xlink:href="#g" transform="matrix(1,0,0,1,505,489) translate(17.074999999999996 46.6)"/><path d="M886.94 568c0 6.63-26.87 12-60 12-33.14 0-60-5.37-60-12v-96c0-6.63 26.86-12 60-12 33.13 0 60 5.37 60 12z" stroke="#666" stroke-width="2" fill="#fff"/><path d="M886.94 472c0 6.63-26.87 12-60 12-33.14 0-60-5.37-60-12" stroke="#666" stroke-width="2" fill="none"/><use xlink:href="#g" transform="matrix(1,0,0,1,771.9361467058943,489) translate(17.074999999999996 46.6)"/><path d="M560 599.24v21.52" stroke="#666" stroke-width="2" fill="none"/><path d="M560 584.24l4.64 14.26h-9.28zM560 635.76l-4.64-14.26h9.28z" stroke="#666" stroke-width="2" fill="#666"/><path d="M826.94 599.24v21.52" stroke="#666" stroke-width="2" fill="none"/><path d="M826.94 584.24l4.63 14.26h-9.27zM826.94 635.76l-4.64-14.26h9.27z" stroke="#666" stroke-width="2" fill="#666"/><path d="M561 800.45h-2v-1.9h2zm0-9.46h-2v-3.8h2zm0-11.36h-2v-3.78h2zm0-26.44h-2v-.04h2zm0-7.6h-2v-3.8h2zm0-11.36h-2v-3.78h2zm0-11.35h-2V721h2zM561 721h-2v-3h2z" fill="#666"/><path d="M560 815.45l-4.64-14.27h9.28z" fill="#fff"/><path d="M560 818.68l-6-18.5h12zm-3.26-16.5L560 812.2l3.26-10.02z" fill="#666"/><use xlink:href="#h" transform="matrix(1,0,0,1,511.075,753.2) translate(0 14.4)"/><path d="M360 919c0 22.1-17.9 40-40 40s-40-17.9-40-40 17.9-40 40-40 40 17.9 40 40z" stroke="#666" stroke-width="2" fill="#fff"/><use xlink:href="#i" transform="matrix(1,0,0,1,285,883.9993760969041) translate(10.024999999999999 27.799999999999997)"/><use xlink:href="#j" transform="matrix(1,0,0,1,285,883.9993760969041) translate(7.074999999999999 49.4)"/><path d="M646.77 799.35l-4.66 2.1-4.5 2.3-4.4 2.45-4.26 2.62-4.1 2.77-3.98 2.92-3.83 3.08-3.7 3.23-1.3-1.5 3.7-3.27 3.9-3.12 4.05-2.98 4.18-2.82 4.32-2.66 4.47-2.5 4.6-2.32.87-.4H647zm109.16-.34l6.62 2.9 6.68 3.26 6.76 3.66 5.94 3.55-1.02 1.7-5.92-3.5-6.68-3.63-6.6-3.23-6.56-2.84-4.1-1.6h2.18v-1.3z" fill="#666"/><path d="M613.3 820.86l-2.34 1.88-1.25-1.56 2.35-1.88zM793.8 821.68l-14.38-4.22 5.22-7.65z" fill="#666"/><path d="M796.5 823.5l-18.68-5.46 6.77-9.93zM781 816.9l10.12 2.95-6.45-8.34z" fill="#666"/><use xlink:href="#k" transform="matrix(1,0,0,1,622.4408286010029,777.6614195280115) translate(0 14.4)"/><use xlink:href="#l" transform="matrix(1,0,0,1,622.4408286010029,777.6614195280115) translate(94.85000000000001 14.4)"/><path d="M774.55 707.68l-7.36 3.35-8.13 3.28-3.4 1.23V714H754l4.36-1.56 8.04-3.25 7.32-3.34zM613.5 704.7l13.48 5.24 11.54 3.93.42.13h-6.26l-6.38-2.18-13.56-5.26-16.56-7.24.8-1.83z" fill="#666"/><path d="M596.98 697.5l-.8 1.82-2.75-1.2.8-1.84zM776.9 710.55l-4.24-8.23 14.8-2.43z" fill="#666"/><path d="M776.66 712.23l-5.52-10.68 19.2-3.15zm-2.48-9.15l3 5.8 7.4-7.5z" fill="#666"/><use xlink:href="#m" transform="matrix(1,0,0,1,631.8614925591959,713.9953026020846) translate(0 14.4)"/><use xlink:href="#n" transform="matrix(1,0,0,1,631.8614925591959,713.9953026020846) translate(94.85000000000001 14.4)"/><path d="M440 760c0 22.1-17.9 40-40 40s-40-17.9-40-40 17.9-40 40-40 40 17.9 40 40z" stroke="#0c7cba" stroke-width="2" fill="#fff"/><use xlink:href="#o" transform="matrix(1,0,0,1,365,725) translate(12.024999999999999 38.6)"/><path d="M436.17 719.1l-8.92 10.35-1.52-1.3 8.96-10.4 1.62-1.7h2.77zm64.8-36.9l-4.88.75-5.36 1.14-4.98 1.33-4.7 1.55-4.54 1.77-4.42 2-4.4 2.28-2.38 1.42h-3.84l.74-.5 4.52-2.67 4.48-2.33 4.52-2.05 4.64-1.8 4.8-1.6 5.1-1.36 5.45-1.15 4.93-.78z" fill="#666"/><path d="M427.24 729.45l-1.97 2.27-1.5-1.3 1.96-2.28zM515.77 680.2l-13.93 5.58-.6-9.25z" fill="#666"/><path d="M519 680l-18.07 7.22-.8-12zm-16.25 4.34l9.8-3.9-10.23-2.6z" fill="#666"/><use xlink:href="#p" transform="matrix(1,0,0,1,395.8999893886177,694.4473227250667) translate(0 14.4)"/><use xlink:href="#n" transform="matrix(1,0,0,1,395.8999893886177,694.4473227250667) translate(76.9 14.4)"/><path d="M483.2 840.95l-.82 1.83-13.42-5.9h4.98zm-59.35-40.53l3.05 4.4 3.06 3.86 3.13 3.48 3.2 3.13h-2.87l-1.78-1.76-3.22-3.57-3.14-3.96-3.13-4.5-3.15-5.2 1.7-1.04z" fill="#666"/><path d="M420.7 795.22l-1.65 1.12-1.68-2.48 1.65-1.12zM496.52 847.9l-14.93-1.5 3.72-8.48z" fill="#666"/><path d="M499.48 849.2l-19.36-1.93 4.56-10.38h1zm-16.42-3.65l10.5 1.05-7.88-7.02z" fill="#666"/><g><use xlink:href="#q" transform="matrix(1,0,0,1,392.8649213209002,815.2921569766048) translate(0 14.4)"/><use xlink:href="#l" transform="matrix(1,0,0,1,392.8649213209002,815.2921569766048) translate(76.9 14.4)"/></g><defs><path fill="#666" d="M140-251c81 0 123 46 123 126C263-46 219 4 140 4 59 4 17-45 17-125s42-126 123-126zm0 227c63 0 89-41 89-101s-29-99-89-99c-61 0-89 39-89 99S79-25 140-24" id="r"/><path fill="#666" d="M114-163C36-179 61-72 57 0H25l-1-190h30c1 12-1 29 2 39 6-27 23-49 58-41v29" id="s"/><path fill="#666" d="M24-231v-30h32v30H24zM24 0v-190h32V0H24" id="t"/><path fill="#666" d="M177-190C167-65 218 103 67 71c-23-6-38-20-44-43l32-5c15 47 100 32 89-28v-30C133-14 115 1 83 1 29 1 15-40 15-95c0-56 16-97 71-98 29-1 48 16 59 35 1-10 0-23 2-32h30zM94-22c36 0 50-32 50-73 0-42-14-75-50-75-39 0-46 34-46 75s6 73 46 73" id="u"/><path fill="#666" d="M117-194c89-4 53 116 60 194h-32v-121c0-31-8-49-39-48C34-167 62-67 57 0H25l-1-190h30c1 10-1 24 2 32 11-22 29-35 61-36" id="v"/><g id="a"><use transform="matrix(0.05,0,0,0.05,0,0)" xlink:href="#r"/><use transform="matrix(0.05,0,0,0.05,14,0)" xlink:href="#s"/><use transform="matrix(0.05,0,0,0.05,19.95,0)" xlink:href="#t"/><use transform="matrix(0.05,0,0,0.05,23.9,0)" xlink:href="#u"/><use transform="matrix(0.05,0,0,0.05,33.9,0)" xlink:href="#t"/><use transform="matrix(0.05,0,0,0.05,37.85,0)" xlink:href="#v"/></g><path fill="#0c7cba" d="M33 0v-248h34V0H33" id="w"/><path fill="#0c7cba" d="M117-194c89-4 53 116 60 194h-32v-121c0-31-8-49-39-48C34-167 62-67 57 0H25l-1-190h30c1 10-1 24 2 32 11-22 29-35 61-36" id="x"/><path fill="#0c7cba" d="M85-194c31 0 48 13 60 33l-1-100h32l1 261h-30c-2-10 0-23-3-31C134-8 116 4 85 4 32 4 16-35 15-94c0-66 23-100 70-100zm9 24c-40 0-46 34-46 75 0 40 6 74 45 74 42 0 51-32 51-76 0-42-9-74-50-73" id="y"/><path fill="#0c7cba" d="M100-194c63 0 86 42 84 106H49c0 40 14 67 53 68 26 1 43-12 49-29l28 8c-11 28-37 45-77 45C44 4 14-33 15-96c1-61 26-98 85-98zm52 81c6-60-76-77-97-28-3 7-6 17-6 28h103" id="z"/><path fill="#0c7cba" d="M141 0L90-78 38 0H4l68-98-65-92h35l48 74 47-74h35l-64 92 68 98h-35" id="A"/><g id="b"><use transform="matrix(0.05,0,0,0.05,0,0)" xlink:href="#w"/><use transform="matrix(0.05,0,0,0.05,5,0)" xlink:href="#x"/><use transform="matrix(0.05,0,0,0.05,15,0)" xlink:href="#y"/><use transform="matrix(0.05,0,0,0.05,25,0)" xlink:href="#z"/><use transform="matrix(0.05,0,0,0.05,35,0)" xlink:href="#A"/></g><path fill="#666" d="M27 0v-27h64v-190l-56 39v-29l58-41h29v221h61V0H27" id="B"/><path fill="#666" d="M33 0v-38h34V0H33" id="C"/><path fill="#666" d="M232-93c-1 65-40 97-104 97C67 4 28-28 28-90v-158h33c8 89-33 224 67 224 102 0 64-133 71-224h33v155" id="D"/><path fill="#666" d="M115-194c55 1 70 41 70 98S169 2 115 4C84 4 66-9 55-30l1 105H24l-1-265h31l2 30c10-21 28-34 59-34zm-8 174c40 0 45-34 45-75s-6-73-45-74c-42 0-51 32-51 76 0 43 10 73 51 73" id="E"/><path fill="#666" d="M24 0v-261h32V0H24" id="F"/><path fill="#666" d="M100-194c62-1 85 37 85 99 1 63-27 99-86 99S16-35 15-95c0-66 28-99 85-99zM99-20c44 1 53-31 53-75 0-43-8-75-51-75s-53 32-53 75 10 74 51 75" id="G"/><path fill="#666" d="M141-36C126-15 110 5 73 4 37 3 15-17 15-53c-1-64 63-63 125-63 3-35-9-54-41-54-24 1-41 7-42 31l-33-3c5-37 33-52 76-52 45 0 72 20 72 64v82c-1 20 7 32 28 27v20c-31 9-61-2-59-35zM48-53c0 20 12 33 32 33 41-3 63-29 60-74-43 2-92-5-92 41" id="H"/><path fill="#666" d="M85-194c31 0 48 13 60 33l-1-100h32l1 261h-30c-2-10 0-23-3-31C134-8 116 4 85 4 32 4 16-35 15-94c0-66 23-100 70-100zm9 24c-40 0-46 34-46 75 0 40 6 74 45 74 42 0 51-32 51-76 0-42-9-74-50-73" id="I"/><g id="c"><use transform="matrix(0.05,0,0,0.05,0,0)" xlink:href="#B"/><use transform="matrix(0.05,0,0,0.05,10,0)" xlink:href="#C"/><use transform="matrix(0.05,0,0,0.05,15,0)" xlink:href="#D"/><use transform="matrix(0.05,0,0,0.05,27.950000000000003,0)" xlink:href="#E"/><use transform="matrix(0.05,0,0,0.05,37.95,0)" xlink:href="#F"/><use transform="matrix(0.05,0,0,0.05,41.900000000000006,0)" xlink:href="#G"/><use transform="matrix(0.05,0,0,0.05,51.900000000000006,0)" xlink:href="#H"/><use transform="matrix(0.05,0,0,0.05,61.900000000000006,0)" xlink:href="#I"/></g><path fill="#666" d="M54-142c48-35 137-8 131 61C196 18 31 33 14-55l32-4c7 23 22 37 52 37 35-1 51-22 54-58 4-55-73-65-99-34H22l8-134h141v27H59" id="J"/><g id="d"><use transform="matrix(0.05,0,0,0.05,0,0)" xlink:href="#J"/><use transform="matrix(0.05,0,0,0.05,10,0)" xlink:href="#C"/><use transform="matrix(0.05,0,0,0.05,15,0)" xlink:href="#r"/><use transform="matrix(0.05,0,0,0.05,29,0)" xlink:href="#s"/><use transform="matrix(0.05,0,0,0.05,34.95,0)" xlink:href="#t"/><use transform="matrix(0.05,0,0,0.05,38.900000000000006,0)" xlink:href="#u"/><use transform="matrix(0.05,0,0,0.05,48.900000000000006,0)" xlink:href="#t"/><use transform="matrix(0.05,0,0,0.05,52.85,0)" xlink:href="#v"/></g><g id="e"><use transform="matrix(0.05,0,0,0.05,0,0)" xlink:href="#H"/><use transform="matrix(0.05,0,0,0.05,10,0)" xlink:href="#I"/><use transform="matrix(0.05,0,0,0.05,20,0)" xlink:href="#I"/><use transform="matrix(0.05,0,0,0.05,30,0)" xlink:href="#s"/></g><path fill="#666" d="M155-56V0h-30v-56H8v-25l114-167h33v167h35v25h-35zm-30-156c-27 46-58 90-88 131h88v-131" id="K"/><path fill="#666" d="M185-189c-5-48-123-54-124 2 14 75 158 14 163 119 3 78-121 87-175 55-17-10-28-26-33-46l33-7c5 56 141 63 141-1 0-78-155-14-162-118-5-82 145-84 179-34 5 7 8 16 11 25" id="L"/><path fill="#666" d="M59-47c-2 24 18 29 38 22v24C64 9 27 4 27-40v-127H5v-23h24l9-43h21v43h35v23H59v120" id="M"/><g id="f"><use transform="matrix(0.05,0,0,0.05,0,0)" xlink:href="#K"/><use transform="matrix(0.05,0,0,0.05,10,0)" xlink:href="#C"/><use transform="matrix(0.05,0,0,0.05,15,0)" xlink:href="#L"/><use transform="matrix(0.05,0,0,0.05,27,0)" xlink:href="#M"/><use transform="matrix(0.05,0,0,0.05,32,0)" xlink:href="#H"/><use transform="matrix(0.05,0,0,0.05,42,0)" xlink:href="#M"/></g><path fill="#666" d="M126-127c33 6 58 20 58 59 0 88-139 92-164 29-3-8-5-16-6-25l32-3c6 27 21 44 54 44 32 0 52-15 52-46 0-38-36-46-79-43v-28c39 1 72-4 72-42 0-27-17-43-46-43-28 0-47 15-49 41l-32-3c6-42 35-63 81-64 48-1 79 21 79 65 0 36-21 52-52 59" id="N"/><path fill="#666" d="M0 4l72-265h28L28 4H0" id="O"/><path fill="#666" d="M197 0v-115H63V0H30v-248h33v105h134v-105h34V0h-34" id="P"/><path fill="#666" d="M30-248c118-7 216 8 213 122C240-48 200 0 122 0H30v-248zM63-27c89 8 146-16 146-99s-60-101-146-95v194" id="Q"/><path fill="#666" d="M63-220v92h138v28H63V0H30v-248h175v28H63" id="R"/><g id="g"><use transform="matrix(0.05,0,0,0.05,0,0)" xlink:href="#L"/><use transform="matrix(0.05,0,0,0.05,12,0)" xlink:href="#N"/><use transform="matrix(0.05,0,0,0.05,22,0)" xlink:href="#O"/><use transform="matrix(0.05,0,0,0.05,27,0)" xlink:href="#P"/><use transform="matrix(0.05,0,0,0.05,39.95,0)" xlink:href="#Q"/><use transform="matrix(0.05,0,0,0.05,52.900000000000006,0)" xlink:href="#R"/><use transform="matrix(0.05,0,0,0.05,63.85,0)" xlink:href="#L"/></g><path fill="#666" d="M110-160c48 1 74 30 74 79 0 53-28 85-80 85-65 0-83-55-86-122-5-90 50-162 133-122 14 7 22 21 27 39l-31 6c-5-40-67-38-82-6-9 19-15 44-15 74 11-20 30-34 60-33zm-7 138c34 0 49-23 49-58s-16-56-50-56c-29 0-50 16-49 49 1 36 15 65 50 65" id="S"/><path fill="#666" d="M212-179c-10-28-35-45-73-45-59 0-87 40-87 99 0 60 29 101 89 101 43 0 62-24 78-52l27 14C228-24 195 4 139 4 59 4 22-46 18-125c-6-104 99-153 187-111 19 9 31 26 39 46" id="T"/><path fill="#666" d="M210-169c-67 3-38 105-44 169h-31v-121c0-29-5-50-35-48C34-165 62-65 56 0H25l-1-190h30c1 10-1 24 2 32 10-44 99-50 107 0 11-21 27-35 58-36 85-2 47 119 55 194h-31v-121c0-29-5-49-35-48" id="U"/><g id="h"><use transform="matrix(0.05,0,0,0.05,0,0)" xlink:href="#S"/><use transform="matrix(0.05,0,0,0.05,10,0)" xlink:href="#C"/><use transform="matrix(0.05,0,0,0.05,15,0)" xlink:href="#T"/><use transform="matrix(0.05,0,0,0.05,27.950000000000003,0)" xlink:href="#G"/><use transform="matrix(0.05,0,0,0.05,37.95,0)" xlink:href="#U"/><use transform="matrix(0.05,0,0,0.05,52.900000000000006,0)" xlink:href="#U"/><use transform="matrix(0.05,0,0,0.05,67.85000000000001,0)" xlink:href="#H"/><use transform="matrix(0.05,0,0,0.05,77.85000000000001,0)" xlink:href="#v"/><use transform="matrix(0.05,0,0,0.05,87.85000000000001,0)" xlink:href="#I"/></g><path fill="#666" d="M33 0v-248h34V0H33" id="V"/><path fill="#666" d="M100-194c63 0 86 42 84 106H49c0 40 14 67 53 68 26 1 43-12 49-29l28 8c-11 28-37 45-77 45C44 4 14-33 15-96c1-61 26-98 85-98zm52 81c6-60-76-77-97-28-3 7-6 17-6 28h103" id="W"/><g id="i"><use transform="matrix(0.05,0,0,0.05,0,0)" xlink:href="#V"/><use transform="matrix(0.05,0,0,0.05,5,0)" xlink:href="#U"/><use transform="matrix(0.05,0,0,0.05,19.950000000000003,0)" xlink:href="#H"/><use transform="matrix(0.05,0,0,0.05,29.950000000000003,0)" xlink:href="#u"/><use transform="matrix(0.05,0,0,0.05,39.95,0)" xlink:href="#W"/></g><path fill="#666" d="M160-131c35 5 61 23 61 61C221 17 115-2 30 0v-248c76 3 177-17 177 60 0 33-19 50-47 57zm-97-11c50-1 110 9 110-42 0-47-63-36-110-37v79zm0 115c55-2 124 14 124-45 0-56-70-42-124-44v89" id="X"/><path fill="#666" d="M84 4C-5 8 30-112 23-190h32v120c0 31 7 50 39 49 72-2 45-101 50-169h31l1 190h-30c-1-10 1-25-2-33-11 22-28 36-60 37" id="Y"/><g id="j"><use transform="matrix(0.05,0,0,0.05,0,0)" xlink:href="#X"/><use transform="matrix(0.05,0,0,0.05,12,0)" xlink:href="#Y"/><use transform="matrix(0.05,0,0,0.05,22,0)" xlink:href="#t"/><use transform="matrix(0.05,0,0,0.05,25.950000000000003,0)" xlink:href="#F"/><use transform="matrix(0.05,0,0,0.05,29.899999999999995,0)" xlink:href="#I"/><use transform="matrix(0.05,0,0,0.05,39.9,0)" xlink:href="#W"/><use transform="matrix(0.05,0,0,0.05,49.9,0)" xlink:href="#s"/></g><path fill="#666" d="M64 0c3-98 48-159 88-221H18v-27h164v26C143-157 98-101 97 0H64" id="Z"/><path fill="#666" d="M233-177c-1 41-23 64-60 70L243 0h-38l-65-103H63V0H30v-248c88 3 205-21 203 71zM63-129c60-2 137 13 137-47 0-61-80-42-137-45v92" id="aa"/><path fill="#666" d="M96-169c-40 0-48 33-48 73s9 75 48 75c24 0 41-14 43-38l32 2c-6 37-31 61-74 61-59 0-76-41-82-99-10-93 101-131 147-64 4 7 5 14 7 22l-32 3c-4-21-16-35-41-35" id="ab"/><g id="k"><use transform="matrix(0.05,0,0,0.05,0,0)" xlink:href="#Z"/><use transform="matrix(0.05,0,0,0.05,10,0)" xlink:href="#C"/><use transform="matrix(0.05,0,0,0.05,15,0)" xlink:href="#aa"/><use transform="matrix(0.05,0,0,0.05,27.950000000000003,0)" xlink:href="#W"/><use transform="matrix(0.05,0,0,0.05,37.95,0)" xlink:href="#E"/><use transform="matrix(0.05,0,0,0.05,47.95,0)" xlink:href="#F"/><use transform="matrix(0.05,0,0,0.05,51.900000000000006,0)" xlink:href="#t"/><use transform="matrix(0.05,0,0,0.05,55.85,0)" xlink:href="#ab"/><use transform="matrix(0.05,0,0,0.05,64.85000000000001,0)" xlink:href="#H"/><use transform="matrix(0.05,0,0,0.05,74.85000000000001,0)" xlink:href="#M"/><use transform="matrix(0.05,0,0,0.05,79.85000000000001,0)" xlink:href="#W"/></g><path fill="#666" d="M115-194c53 0 69 39 70 98 0 66-23 100-70 100C84 3 66-7 56-30L54 0H23l1-261h32v101c10-23 28-34 59-34zm-8 174c40 0 45-34 45-75 0-40-5-75-45-74-42 0-51 32-51 76 0 43 10 73 51 73" id="ac"/><g id="l"><use transform="matrix(0.05,0,0,0.05,0,0)" xlink:href="#X"/><use transform="matrix(0.05,0,0,0.05,12,0)" xlink:href="#F"/><use transform="matrix(0.05,0,0,0.05,15.949999999999998,0)" xlink:href="#G"/><use transform="matrix(0.05,0,0,0.05,25.950000000000003,0)" xlink:href="#ac"/></g><path fill="#666" d="M134-131c28 9 52 24 51 62-1 50-34 73-85 73S17-19 16-69c0-36 21-54 49-61-75-25-45-126 34-121 46 3 78 18 79 63 0 33-17 51-44 57zm-34-11c31 1 46-15 46-44 0-28-17-43-47-42-29 0-46 13-45 42 1 28 16 44 46 44zm1 122c35 0 51-18 51-52 0-30-18-46-53-46-33 0-51 17-51 47 0 34 19 51 53 51" id="ad"/><g id="m"><use transform="matrix(0.05,0,0,0.05,0,0)" xlink:href="#ad"/><use transform="matrix(0.05,0,0,0.05,10,0)" xlink:href="#C"/><use transform="matrix(0.05,0,0,0.05,15,0)" xlink:href="#aa"/><use transform="matrix(0.05,0,0,0.05,27.950000000000003,0)" xlink:href="#W"/><use transform="matrix(0.05,0,0,0.05,37.95,0)" xlink:href="#E"/><use transform="matrix(0.05,0,0,0.05,47.95,0)" xlink:href="#F"/><use transform="matrix(0.05,0,0,0.05,51.900000000000006,0)" xlink:href="#t"/><use transform="matrix(0.05,0,0,0.05,55.85,0)" xlink:href="#ab"/><use transform="matrix(0.05,0,0,0.05,64.85000000000001,0)" xlink:href="#H"/><use transform="matrix(0.05,0,0,0.05,74.85000000000001,0)" xlink:href="#M"/><use transform="matrix(0.05,0,0,0.05,79.85000000000001,0)" xlink:href="#W"/></g><path fill="#666" d="M127-220V0H93v-220H8v-28h204v28h-85" id="ae"/><g id="n"><use transform="matrix(0.05,0,0,0.05,0,0)" xlink:href="#ae"/><use transform="matrix(0.05,0,0,0.05,8.950000000000001,0)" xlink:href="#H"/><use transform="matrix(0.05,0,0,0.05,18.950000000000003,0)" xlink:href="#u"/></g><path fill="#0c7cba" d="M30-248c87 1 191-15 191 75 0 78-77 80-158 76V0H30v-248zm33 125c57 0 124 11 124-50 0-59-68-47-124-48v98" id="af"/><path fill="#0c7cba" d="M114-163C36-179 61-72 57 0H25l-1-190h30c1 12-1 29 2 39 6-27 23-49 58-41v29" id="ag"/><path fill="#0c7cba" d="M100-194c62-1 85 37 85 99 1 63-27 99-86 99S16-35 15-95c0-66 28-99 85-99zM99-20c44 1 53-31 53-75 0-43-8-75-51-75s-53 32-53 75 10 74 51 75" id="ah"/><path fill="#0c7cba" d="M179-190L93 31C79 59 56 82 12 73V49c39 6 53-20 64-50L1-190h34L92-34l54-156h33" id="ai"/><g id="o"><use transform="matrix(0.05,0,0,0.05,0,0)" xlink:href="#af"/><use transform="matrix(0.05,0,0,0.05,12,0)" xlink:href="#ag"/><use transform="matrix(0.05,0,0,0.05,17.95,0)" xlink:href="#ah"/><use transform="matrix(0.05,0,0,0.05,27.950000000000003,0)" xlink:href="#A"/><use transform="matrix(0.05,0,0,0.05,36.95,0)" xlink:href="#ai"/></g><g id="p"><use transform="matrix(0.05,0,0,0.05,0,0)" xlink:href="#N"/><use transform="matrix(0.05,0,0,0.05,10,0)" xlink:href="#C"/><use transform="matrix(0.05,0,0,0.05,15,0)" xlink:href="#D"/><use transform="matrix(0.05,0,0,0.05,27.950000000000003,0)" xlink:href="#E"/><use transform="matrix(0.05,0,0,0.05,37.95,0)" xlink:href="#F"/><use transform="matrix(0.05,0,0,0.05,41.900000000000006,0)" xlink:href="#G"/><use transform="matrix(0.05,0,0,0.05,51.900000000000006,0)" xlink:href="#H"/><use transform="matrix(0.05,0,0,0.05,61.900000000000006,0)" xlink:href="#I"/></g><path fill="#666" d="M101-251c82-7 93 87 43 132L82-64C71-53 59-42 53-27h129V0H18c2-99 128-94 128-182 0-28-16-43-45-43s-46 15-49 41l-32-3c6-41 34-60 81-64" id="aj"/><g id="q"><use transform="matrix(0.05,0,0,0.05,0,0)" xlink:href="#aj"/><use transform="matrix(0.05,0,0,0.05,10,0)" xlink:href="#C"/><use transform="matrix(0.05,0,0,0.05,15,0)" xlink:href="#D"/><use transform="matrix(0.05,0,0,0.05,27.950000000000003,0)" xlink:href="#E"/><use transform="matrix(0.05,0,0,0.05,37.95,0)" xlink:href="#F"/><use transform="matrix(0.05,0,0,0.05,41.900000000000006,0)" xlink:href="#G"/><use transform="matrix(0.05,0,0,0.05,51.900000000000006,0)" xlink:href="#H"/><use transform="matrix(0.05,0,0,0.05,61.900000000000006,0)" xlink:href="#I"/></g></defs></g></svg>